<?xml version="1.0" encoding="UTF-8" standalone="no"?>
<!-- Created with Inkscape (http://www.inkscape.org/) -->
<svg
   xmlns:dc="http://purl.org/dc/elements/1.1/"
   xmlns:cc="http://creativecommons.org/ns#"
   xmlns:rdf="http://www.w3.org/1999/02/22-rdf-syntax-ns#"
   xmlns:svg="http://www.w3.org/2000/svg"
   xmlns="http://www.w3.org/2000/svg"
   xmlns:xlink="http://www.w3.org/1999/xlink"
   xmlns:sodipodi="http://sodipodi.sourceforge.net/DTD/sodipodi-0.dtd"
   xmlns:inkscape="http://www.inkscape.org/namespaces/inkscape"
   width="700"
   height="420"
   id="svg2"
   sodipodi:version="0.32"
   inkscape:version="0.46"
   version="1.0"
   sodipodi:docname="welcome.svg"
   inkscape:output_extension="org.inkscape.output.svg.inkscape"
   inkscape:export-filename="/home/dmccall/Documents/Software/UbiquitySlideshow/ubiquity-slideshow-data-ubuntu/slides/welcome.png"
   inkscape:export-xdpi="90"
   inkscape:export-ydpi="90">
  <defs
     id="defs4">
    <linearGradient
       id="linearGradient3531">
      <stop
         style="stop-color:#000000;stop-opacity:0;"
         offset="0"
         id="stop3533" />
      <stop
         id="stop3539"
         offset="0.09035017"
         style="stop-color:#000000;stop-opacity:0.70588237;" />
      <stop
         style="stop-color:#000000;stop-opacity:0.70588237;"
         offset="0.94188702"
         id="stop3541" />
      <stop
         style="stop-color:#000000;stop-opacity:0;"
         offset="1"
         id="stop3535" />
    </linearGradient>
    <linearGradient
       id="linearGradient3508">
      <stop
         id="stop3510"
         offset="0"
         style="stop-color:#000000;stop-opacity:1;" />
      <stop
         id="stop3512"
         offset="1"
         style="stop-color:#000000;stop-opacity:0;" />
    </linearGradient>
    <linearGradient
       inkscape:collect="always"
       xlink:href="#linearGradient3531"
       id="linearGradient3529"
       x1="396.15594"
       y1="74.42173"
       x2="396.15594"
       y2="414.49551"
       gradientUnits="userSpaceOnUse"
       gradientTransform="translate(1.6948218,0.8519607)" />
    <inkscape:perspective
       id="perspective3629"
       inkscape:persp3d-origin="64 : 42.666667 : 1"
       inkscape:vp_z="128 : 64 : 1"
       inkscape:vp_y="0 : 1000 : 0"
       inkscape:vp_x="0 : 64 : 1"
       sodipodi:type="inkscape:persp3d" />
    <linearGradient
       inkscape:collect="always"
       xlink:href="#linearGradient3531"
       id="linearGradient2526"
       gradientUnits="userSpaceOnUse"
       gradientTransform="translate(1.6948218,0.8519607)"
       x1="396.15594"
       y1="69.146545"
       x2="396.15594"
       y2="414.49551" />
    <inkscape:perspective
       id="perspective2497"
       inkscape:persp3d-origin="64 : 42.666667 : 1"
       inkscape:vp_z="128 : 64 : 1"
       inkscape:vp_y="0 : 1000 : 0"
       inkscape:vp_x="0 : 64 : 1"
       sodipodi:type="inkscape:persp3d" />
  </defs>
  <sodipodi:namedview
     id="base"
     pagecolor="#ffffff"
     bordercolor="#666666"
     borderopacity="1.0"
     gridtolerance="10000"
     guidetolerance="10"
     objecttolerance="10"
     inkscape:pageopacity="0.0"
     inkscape:pageshadow="2"
     inkscape:zoom="1.11"
     inkscape:cx="333.88965"
     inkscape:cy="223.84877"
     inkscape:document-units="px"
     inkscape:current-layer="layer2"
     showgrid="false"
     inkscape:window-width="1280"
     inkscape:window-height="723"
     inkscape:window-x="0"
     inkscape:window-y="30"
     showguides="true"
     inkscape:guide-bbox="true" />
  <metadata
     id="metadata7">
    <rdf:RDF>
      <cc:Work
         rdf:about="">
        <dc:format>image/svg+xml</dc:format>
        <dc:type
           rdf:resource="http://purl.org/dc/dcmitype/StillImage" />
      </cc:Work>
    </rdf:RDF>
  </metadata>
  <g
     inkscape:groupmode="layer"
     id="layer9"
     inkscape:label="Background"
     sodipodi:insensitive="true">
    <rect
       style="fill:#816647;fill-opacity:1;fill-rule:nonzero;stroke:none;stroke-width:1"
       id="rect3390"
       width="700"
       height="420"
       x="1.2521825"
       y="-420.36349"
       transform="scale(1,-1)" />
  </g>
  <g
     inkscape:groupmode="layer"
     id="layer4"
     inkscape:label="Footer"
     style="display:inline" />
  <g
     inkscape:groupmode="layer"
     id="layer2"
     inkscape:label="Header">
    <text
       xml:space="preserve"
       style="font-size:36px;font-style:normal;font-variant:normal;font-weight:bold;font-stretch:normal;fill:#ffffff;fill-opacity:1;stroke:none;stroke-width:1px;stroke-linecap:butt;stroke-linejoin:miter;stroke-opacity:1;font-family:Sans;-inkscape-font-specification:Sans Bold"
       x="258.67285"
       y="57.68301"
       id="text3669"><tspan
         sodipodi:role="line"
         id="tspan3671"
         x="258.67285"
         y="57.68301">Welcome</tspan></text>
    <g
       style="overflow:visible"
       id="g2500"
       transform="matrix(0.6919735,0,0,0.6919735,5.3739928,1.5352728)">
      <path
         id="path2448"
         d="M 51.868,84.936 C 45.459,79.297 41.784,71.221 41.784,62.78 C 41.784,54.276 45.498,46.164 51.974,40.523 C 52.339,40.204 52.419,39.667 52.16,39.256 L 42.036,23.192 C 41.888,22.958 41.648,22.796 41.375,22.748 C 41.102,22.7 40.819,22.769 40.602,22.937 C 32.334,29.305 26.119,38.265 23.1,48.167 C 22.982,48.554 23.112,48.974 23.431,49.226 C 27.586,52.517 30.066,57.583 30.066,62.779 C 30.066,67.975 27.585,73.043 23.429,76.334 C 23.112,76.585 22.98,77.004 23.098,77.392 C 26.093,87.211 32.238,96.12 40.404,102.474 C 40.623,102.645 40.903,102.715 41.177,102.667 C 41.45,102.62 41.691,102.459 41.84,102.226 L 52.049,86.204 C 52.309,85.794 52.232,85.256 51.868,84.936 z M 12.803,50.223 C 5.732,50.223 0,55.951 0,63.016 C 0,70.081 5.732,75.81 12.803,75.81 C 19.874,75.81 25.606,70.081 25.606,63.016 C 25.606,55.951 19.874,50.223 12.803,50.223 z M 58.779,35.162 C 59.036,35.57 59.551,35.732 59.996,35.545 C 63.75,33.958 67.65,33.153 71.586,33.153 C 86.064,33.153 98.693,43.887 100.963,58.122 C 101.039,58.6 101.451,58.951 101.934,58.951 L 121.014,58.98 C 121.292,58.98 121.557,58.863 121.744,58.657 C 121.931,58.451 122.021,58.178 121.995,57.9 C 120.967,47.338 116.471,37.15 109.336,29.215 C 109.014,28.855 108.477,28.783 108.07,29.046 C 105.193,30.904 101.925,31.888 98.623,31.888 C 88.99,31.888 81.154,24.098 81.153,14.524 C 81.154,14.519 81.172,14.158 81.172,14.142 C 81.172,13.665 80.829,13.254 80.356,13.172 C 77.344,12.65 74.394,12.284 71.586,12.284 C 63.875,12.284 56.084,14.221 49.054,17.695 C 48.804,17.819 48.618,18.043 48.543,18.311 C 48.467,18.579 48.509,18.866 48.657,19.102 L 58.779,35.162 z M 98,27.5 C 104.908,27.5 110.51,21.902 110.51,15 C 110.51,8.096 104.908,2.5 98,2.5 C 91.092,2.5 85.49,8.096 85.49,15 C 85.49,21.902 91.092,27.5 98,27.5 z M 120.994,66.733 L 101.916,66.795 C 101.435,66.796 101.024,67.147 100.947,67.621 C 98.646,81.75 86.024,92.405 71.586,92.405 C 67.604,92.405 63.66,91.581 59.864,89.955 C 59.42,89.766 58.906,89.925 58.645,90.33 L 48.442,106.345 C 48.293,106.58 48.25,106.867 48.324,107.136 C 48.398,107.404 48.583,107.629 48.832,107.753 C 55.917,111.3 63.786,113.174 71.586,113.174 C 74.479,113.174 77.492,112.901 80.541,112.36 C 80.969,112.285 81.297,111.936 81.348,111.505 C 82.364,102.73 89.791,96.112 98.623,96.112 C 101.361,96.112 104.147,96.81 106.679,98.13 C 107.064,98.331 107.533,98.257 107.838,97.946 C 115.823,89.803 120.846,79.104 121.978,67.817 C 122.006,67.54 121.915,67.264 121.727,67.057 C 121.539,66.85 121.272,66.732 120.994,66.733 z M 98.486,100.545 C 91.415,100.545 85.682,106.242 85.682,113.273 C 85.682,120.302 91.414,126.001 98.486,126.001 C 105.556,126.001 111.289,120.303 111.289,113.273 C 111.289,106.242 105.557,100.545 98.486,100.545 z"
         style="opacity:0.2;fill:#141414;fill-rule:evenodd" />
      <path
         id="path2450"
         d="M 51.868,85.936 C 45.459,80.297 41.784,72.221 41.784,63.78 C 41.784,55.276 45.498,47.164 51.974,41.523 C 52.339,41.204 52.419,40.667 52.16,40.256 L 42.036,24.192 C 41.888,23.958 41.648,23.796 41.375,23.748 C 41.102,23.7 40.819,23.769 40.602,23.937 C 32.334,30.305 26.119,39.265 23.1,49.167 C 22.982,49.554 23.112,49.974 23.431,50.226 C 27.586,53.517 30.066,58.583 30.066,63.779 C 30.066,68.975 27.585,74.043 23.429,77.334 C 23.112,77.585 22.98,78.004 23.098,78.392 C 26.093,88.211 32.238,97.12 40.404,103.474 C 40.623,103.645 40.903,103.715 41.177,103.667 C 41.45,103.62 41.691,103.459 41.84,103.226 L 52.049,87.204 C 52.309,86.794 52.232,86.256 51.868,85.936 z M 12.803,51.223 C 5.732,51.223 0,56.951 0,64.016 C 0,71.081 5.732,76.81 12.803,76.81 C 19.874,76.81 25.606,71.081 25.606,64.016 C 25.606,56.951 19.874,51.223 12.803,51.223 z M 58.779,36.162 C 59.036,36.57 59.551,36.732 59.996,36.545 C 63.75,34.958 67.65,34.153 71.586,34.153 C 86.064,34.153 98.693,44.887 100.963,59.122 C 101.039,59.6 101.451,59.951 101.934,59.951 L 121.014,59.98 C 121.292,59.98 121.557,59.863 121.744,59.657 C 121.931,59.451 122.021,59.178 121.995,58.9 C 120.967,48.338 116.471,38.15 109.336,30.215 C 109.014,29.855 108.477,29.783 108.07,30.046 C 105.193,31.904 101.925,32.888 98.623,32.888 C 88.99,32.888 81.154,25.098 81.153,15.524 C 81.154,15.519 81.172,15.158 81.172,15.142 C 81.172,14.665 80.829,14.254 80.356,14.172 C 77.344,13.65 74.394,13.284 71.586,13.284 C 63.875,13.284 56.084,15.221 49.054,18.695 C 48.804,18.819 48.618,19.043 48.543,19.311 C 48.467,19.579 48.509,19.866 48.657,20.102 L 58.779,36.162 z M 98,28.5 C 104.908,28.5 110.51,22.902 110.51,16 C 110.51,9.096 104.908,3.5 98,3.5 C 91.092,3.5 85.49,9.096 85.49,16 C 85.49,22.902 91.092,28.5 98,28.5 z M 120.994,67.733 L 101.916,67.795 C 101.435,67.796 101.024,68.147 100.947,68.621 C 98.646,82.75 86.024,93.405 71.586,93.405 C 67.604,93.405 63.66,92.581 59.864,90.955 C 59.42,90.766 58.906,90.925 58.645,91.33 L 48.442,107.345 C 48.293,107.58 48.25,107.867 48.324,108.136 C 48.398,108.404 48.583,108.629 48.832,108.753 C 55.917,112.3 63.786,114.174 71.586,114.174 C 74.479,114.174 77.492,113.901 80.541,113.36 C 80.969,113.285 81.297,112.936 81.348,112.505 C 82.364,103.73 89.791,97.112 98.623,97.112 C 101.361,97.112 104.147,97.81 106.679,99.13 C 107.064,99.331 107.533,99.257 107.838,98.946 C 115.823,90.803 120.846,80.104 121.978,68.817 C 122.006,68.54 121.915,68.264 121.727,68.057 C 121.539,67.85 121.272,67.732 120.994,67.733 z M 98.486,101.545 C 91.415,101.545 85.682,107.242 85.682,114.273 C 85.682,121.302 91.414,127.001 98.486,127.001 C 105.556,127.001 111.289,121.303 111.289,114.273 C 111.289,107.242 105.557,101.545 98.486,101.545 z"
         style="opacity:0.2;fill:#141414;fill-rule:evenodd" />
      <path
         id="path2452"
         d="M 51.868,86.936 C 45.459,81.297 41.784,73.221 41.784,64.78 C 41.784,56.276 45.498,48.164 51.974,42.523 C 52.339,42.204 52.419,41.667 52.16,41.256 L 42.036,25.192 C 41.888,24.958 41.648,24.796 41.375,24.748 C 41.102,24.7 40.819,24.769 40.602,24.937 C 32.334,31.305 26.119,40.265 23.1,50.167 C 22.982,50.554 23.112,50.974 23.431,51.226 C 27.586,54.517 30.066,59.583 30.066,64.779 C 30.066,69.975 27.585,75.043 23.429,78.334 C 23.112,78.585 22.98,79.004 23.098,79.392 C 26.093,89.211 32.238,98.12 40.404,104.474 C 40.623,104.645 40.903,104.715 41.177,104.667 C 41.45,104.62 41.691,104.459 41.84,104.226 L 52.049,88.204 C 52.309,87.794 52.232,87.256 51.868,86.936 z M 12.803,52.223 C 5.732,52.223 0,57.951 0,65.016 C 0,72.081 5.732,77.81 12.803,77.81 C 19.874,77.81 25.606,72.081 25.606,65.016 C 25.606,57.951 19.874,52.223 12.803,52.223 z M 58.779,37.162 C 59.036,37.57 59.551,37.732 59.996,37.545 C 63.75,35.958 67.65,35.153 71.586,35.153 C 86.064,35.153 98.693,45.887 100.963,60.122 C 101.039,60.6 101.451,60.951 101.934,60.951 L 121.014,60.98 C 121.292,60.98 121.557,60.863 121.744,60.657 C 121.931,60.451 122.021,60.178 121.995,59.9 C 120.967,49.338 116.471,39.15 109.336,31.215 C 109.014,30.855 108.477,30.783 108.07,31.046 C 105.193,32.904 101.925,33.888 98.623,33.888 C 88.99,33.888 81.154,26.098 81.153,16.524 C 81.154,16.519 81.172,16.158 81.172,16.142 C 81.172,15.665 80.829,15.254 80.356,15.172 C 77.344,14.65 74.394,14.284 71.586,14.284 C 63.875,14.284 56.084,16.221 49.054,19.695 C 48.804,19.819 48.618,20.043 48.543,20.311 C 48.467,20.579 48.509,20.866 48.657,21.102 L 58.779,37.162 z M 98,29.5 C 104.908,29.5 110.51,23.902 110.51,17 C 110.51,10.096 104.908,4.5 98,4.5 C 91.092,4.5 85.49,10.096 85.49,17 C 85.49,23.902 91.092,29.5 98,29.5 z M 120.994,68.733 L 101.916,68.795 C 101.435,68.796 101.024,69.147 100.947,69.621 C 98.646,83.75 86.024,94.405 71.586,94.405 C 67.604,94.405 63.66,93.581 59.864,91.955 C 59.42,91.766 58.906,91.925 58.645,92.33 L 48.442,108.345 C 48.293,108.58 48.25,108.867 48.324,109.136 C 48.398,109.404 48.583,109.629 48.832,109.753 C 55.917,113.3 63.786,115.174 71.586,115.174 C 74.479,115.174 77.492,114.901 80.541,114.36 C 80.969,114.285 81.297,113.936 81.348,113.505 C 82.364,104.73 89.791,98.112 98.623,98.112 C 101.361,98.112 104.147,98.81 106.679,100.13 C 107.064,100.331 107.533,100.257 107.838,99.946 C 115.823,91.803 120.846,81.104 121.978,69.817 C 122.006,69.54 121.915,69.264 121.727,69.057 C 121.539,68.85 121.272,68.732 120.994,68.733 z M 98.486,102.545 C 91.415,102.545 85.682,108.242 85.682,115.273 C 85.682,122.302 91.414,128.001 98.486,128.001 C 105.556,128.001 111.289,122.303 111.289,115.273 C 111.289,108.242 105.557,102.545 98.486,102.545 z"
         style="opacity:0.2;fill:#141414;fill-rule:evenodd" />
      <path
         id="path2454"
         d="M 40.602,21.938 C 32.334,28.306 26.119,37.266 23.1,47.168 C 22.982,47.555 23.112,47.975 23.431,48.227 C 27.586,51.518 30.066,56.584 30.066,61.78 C 30.066,66.976 27.585,72.044 23.429,75.335 C 23.112,75.586 22.98,76.005 23.098,76.393 C 26.093,86.212 32.238,95.121 40.404,101.475 C 40.623,101.646 40.903,101.716 41.177,101.668 C 41.45,101.621 41.691,101.46 41.84,101.227 L 52.049,85.205 C 52.31,84.796 52.234,84.258 51.869,83.937 C 45.46,78.298 41.785,70.222 41.785,61.781 C 41.785,53.277 45.499,45.165 51.975,39.524 C 52.34,39.205 52.42,38.668 52.161,38.257 L 42.036,22.192 C 41.888,21.958 41.648,21.796 41.375,21.748 C 41.102,21.7 40.819,21.769 40.602,21.938 z"
         style="fill:#f97a00" />
      <path
         id="path2456"
         d="M 24.042,47.455 C 28.431,50.932 31.051,56.219 31.051,61.779 C 31.051,67.339 28.43,72.628 24.04,76.104 C 26.991,85.785 32.981,94.45 41.008,100.697 C 42.028,99.097 50.449,85.879 51.217,84.674 C 44.602,78.854 40.799,70.574 40.799,61.779 C 40.799,52.92 44.642,44.603 51.327,38.78 C 50.565,37.572 42.215,24.322 41.203,22.717 C 33.076,28.978 27.018,37.694 24.042,47.455 z"
         style="fill:#fb8b00" />
      <ellipse
         id="ellipse2458"
         ry="12.794"
         rx="12.803"
         cy="62.015999"
         cx="12.803"
         style="fill:#f83011;fill-rule:evenodd"
         sodipodi:cx="12.803"
         sodipodi:cy="62.015999"
         sodipodi:rx="12.803"
         sodipodi:ry="12.794" />
      <path
         id="path2460"
         d="M 0.984,62.016 C 0.984,68.528 6.286,73.827 12.802,73.827 C 19.318,73.827 24.62,68.528 24.62,62.016 C 24.62,55.504 19.318,50.206 12.802,50.206 C 6.286,50.206 0.984,55.504 0.984,62.016 z"
         style="fill:#f83011;fill-rule:evenodd" />
      <path
         id="path2462"
         d="M 49.054,16.696 C 48.804,16.82 48.618,17.044 48.543,17.312 C 48.467,17.58 48.509,17.867 48.657,18.103 L 58.779,34.162 C 59.036,34.57 59.551,34.732 59.996,34.545 C 63.75,32.958 67.65,32.153 71.586,32.153 C 86.064,32.153 98.693,42.887 100.963,57.122 C 101.039,57.6 101.451,57.951 101.934,57.951 L 121.014,57.98 C 121.292,57.98 121.557,57.863 121.744,57.657 C 121.931,57.451 122.021,57.178 121.995,56.9 C 120.967,46.338 116.471,36.15 109.336,28.215 C 109.014,27.855 108.477,27.783 108.07,28.046 C 105.193,29.904 101.925,30.888 98.623,30.888 C 88.99,30.888 81.154,23.098 81.153,13.524 C 81.154,13.519 81.172,13.158 81.172,13.142 C 81.172,12.665 80.829,12.254 80.356,12.172 C 77.344,11.65 74.394,11.284 71.586,11.284 C 63.875,11.285 56.084,13.222 49.054,16.696 z"
         style="fill:#f13b00" />
      <path
         id="path2464"
         d="M 49.491,17.578 C 50.527,19.223 58.856,32.437 59.613,33.639 C 63.439,32.022 67.458,31.17 71.587,31.17 C 86.704,31.17 99.583,42.205 101.937,56.968 C 103.373,56.97 119.109,56.993 121.017,56.996 C 120.004,46.605 115.636,36.693 108.606,28.873 C 105.609,30.81 102.191,31.872 98.625,31.872 C 88.449,31.872 80.17,23.641 80.17,13.523 C 80.17,13.523 80.18,13.313 80.189,13.142 C 77.356,12.65 74.471,12.268 71.588,12.268 C 63.928,12.269 56.327,14.199 49.491,17.578 z"
         style="fill:#f13b00" />
      <ellipse
         id="ellipse2466"
         ry="12.5"
         rx="12.51"
         cy="14"
         cx="98"
         style="fill:#e00916;fill-rule:evenodd"
         sodipodi:cx="98"
         sodipodi:cy="14"
         sodipodi:rx="12.51"
         sodipodi:ry="12.5" />
      <path
         id="path2468"
         d="M 86.992,14 C 86.992,20.065 91.93,25 98,25 C 104.07,25 109.008,20.065 109.008,14 C 109.008,7.935 104.07,3 98,3 C 91.93,3 86.992,7.935 86.992,14 z"
         style="fill:#e56363;fill-rule:evenodd" />
      <path
         id="path2470"
         d="M 120.994,65.733 L 101.916,65.795 C 101.435,65.796 101.024,66.147 100.947,66.621 C 98.646,80.75 86.024,91.405 71.586,91.405 C 67.604,91.405 63.66,90.581 59.864,88.955 C 59.42,88.766 58.906,88.925 58.645,89.33 L 48.442,105.345 C 48.293,105.58 48.25,105.867 48.324,106.136 C 48.398,106.404 48.583,106.629 48.832,106.753 C 55.917,110.3 63.786,112.174 71.586,112.174 C 74.479,112.174 77.492,111.901 80.541,111.36 C 80.969,111.285 81.297,110.936 81.348,110.505 C 82.364,101.73 89.791,95.112 98.623,95.112 C 101.361,95.112 104.147,95.81 106.679,97.13 C 107.064,97.331 107.533,97.257 107.838,96.946 C 115.823,88.803 120.846,78.104 121.978,66.817 C 122.006,66.54 121.915,66.264 121.727,66.057 C 121.539,65.85 121.272,65.732 120.994,65.733 z"
         style="fill:#d40000" />
      <ellipse
         id="ellipse2472"
         ry="12.728"
         rx="12.803"
         cy="112.272"
         cx="98.486"
         style="fill:#ff7516;fill-rule:evenodd"
         sodipodi:cx="98.486"
         sodipodi:cy="112.272"
         sodipodi:rx="12.803"
         sodipodi:ry="12.728" />
      <path
         id="path2474"
         d="M 86.844,112.272 C 86.844,118.651 92.067,123.841 98.487,123.841 C 104.907,123.841 110.13,118.651 110.13,112.272 C 110.13,105.893 104.907,100.703 98.487,100.703 C 92.067,100.703 86.844,105.894 86.844,112.272 z"
         style="fill:#fb9200;fill-rule:evenodd" />
      <path
         id="path2481"
         d="M 49.785,17.67 C 50.008,18.024 59.527,33.127 59.695,33.395 C 63.548,31.791 67.547,30.969 71.586,30.969 C 78.265,30.969 84.635,33.086 90.02,37.08 C 90.155,37.07 103.667,36.099 103.667,36.099 C 103.667,36.099 112.654,35.447 113.294,35.4 C 111.865,33.167 110.392,31.264 108.67,29.337 C 105.639,31.256 102.097,32.173 98.623,32.173 C 88.337,32.173 79.969,23.752 79.969,13.525 C 79.969,13.519 79.973,13.418 79.979,13.318 C 77.094,12.827 74.27,12.47 71.586,12.47 C 64.13,12.469 56.6,14.34 49.785,17.67 z"
         style="fill:url(#XMLID_3_);fill-rule:evenodd" />
      <path
         id="path2488"
         d="M 24.274,47.396 C 26.599,49.268 28.451,51.682 29.658,54.398 C 34.14,51.488 38.459,49.95 43.889,47.772 C 45.598,44.761 48.481,41.04 51.074,38.755 C 50.915,38.503 41.39,23.39 41.155,23.017 C 33.202,29.201 27.214,37.844 24.274,47.396 z"
         style="fill:url(#XMLID_4_);fill-rule:evenodd" />
      <path
         id="path2490"
         d="M 23.732,58.691 C 22.313,53.996 17.948,50.566 12.794,50.566 C 6.493,50.566 1.367,55.689 1.367,61.985 C 1.367,66.015 3.469,69.565 6.633,71.597 C 11.926,67.035 17.919,62.755 23.732,58.691 z"
         style="fill:#f88657;fill-rule:evenodd" />
    </g>
  </g>
  <g
     inkscape:groupmode="layer"
     id="layer6"
     inkscape:label="Content"
     style="display:inline">
    <g
       inkscape:groupmode="layer"
       id="layer8"
       inkscape:label="Paper"
       style="display:inline"
       sodipodi:insensitive="true">
      <rect
         style="fill:url(#linearGradient2526);fill-opacity:1;fill-rule:nonzero;stroke:none;display:inline"
         id="rect3521"
         width="700"
         height="350"
         x="0"
         y="70" />
      <rect
         style="fill:#ffffff;fill-opacity:1;fill-rule:nonzero;stroke:none"
         id="rect3487"
         width="700"
         height="295"
         x="0"
         y="100" />
    </g>
    <g
       inkscape:groupmode="layer"
       id="layer1"
       inkscape:label="Text">
      <flowRoot
         xml:space="preserve"
         id="flowRoot2506"
         style="font-size:12px;font-style:normal;font-variant:normal;font-weight:normal;font-stretch:normal;fill:#000000;fill-opacity:1;stroke:none;stroke-width:1px;stroke-linecap:butt;stroke-linejoin:miter;stroke-opacity:1;font-family:Sans;-inkscape-font-specification:Sans"
         transform="translate(-1.7969189,48.985571)"><flowRegion
           id="flowRegion2508"><rect
             id="rect2510"
             width="700.09515"
             height="177.66058"
             x="7.1510534"
             y="114.59948" /></flowRegion><flowPara
           id="flowPara2512">Thank you for choosing Ubuntu Linux.</flowPara><flowPara
           id="flowPara2514" /><flowPara
           id="flowPara2516">As Ubuntu installs, we invite you to explore the many possibilities that will be available with your new system. It is our sincere hope that Ubuntu will open new worlds through your computer by making this empowering technology easy and fun.</flowPara><flowPara
           id="flowPara2518" /><flowPara
           id="flowPara2520">Let us know how it goes!</flowPara><flowPara
           id="flowPara2522">[Note: Turns out this last line is blatantly swiped from Wacom. I love the line, but can anyone say it differently?]</flowPara></flowRoot>    </g>
  </g>
</svg>
