<?xml version="1.0" encoding="UTF-8" standalone="no"?>
<svg
   width="128"
   height="128"
   version="1.1"
   id="svg145"
   xmlns="http://www.w3.org/2000/svg"
   xmlns:svg="http://www.w3.org/2000/svg"
   xmlns:rdf="http://www.w3.org/1999/02/22-rdf-syntax-ns#"
   xmlns:cc="http://creativecommons.org/ns#"
   xmlns:dc="http://purl.org/dc/elements/1.1/">
  <defs
     id="defs85">
    <linearGradient
       id="linearGradient3885"
       x1="373"
       x2="318"
       y1="593"
       y2="726"
       gradientTransform="translate(1.9,-534)"
       gradientUnits="userSpaceOnUse">
      <stop
         style="stop-color:#ff7004"
         offset="0"
         id="stop8" />
      <stop
         style="stop-color:#ba4704"
         offset="1"
         id="stop10" />
    </linearGradient>
    <linearGradient
       id="linearGradient3907"
       x1="278"
       x2="454"
       y1="637"
       y2="683"
       gradientTransform="matrix(0.5,0.87,-0.87,0.5,813,-359)"
       gradientUnits="userSpaceOnUse">
      <stop
         style="stop-color:#f7f10e"
         offset="0"
         id="stop13" />
      <stop
         style="stop-color:#c58907"
         offset="1"
         id="stop15" />
    </linearGradient>
    <linearGradient
       id="linearGradient3911"
       x1="254"
       x2="401"
       y1="725"
       y2="612"
       gradientTransform="matrix(-0.5,0.87,-0.87,-0.5,1067,431)"
       gradientUnits="userSpaceOnUse">
      <stop
         style="stop-color:#17b414"
         offset="0"
         id="stop18" />
      <stop
         style="stop-color:#176314"
         offset="1"
         id="stop20" />
    </linearGradient>
    <linearGradient
       id="linearGradient3915"
       x1="326"
       x2="342"
       y1="702"
       y2="582"
       gradientTransform="rotate(180,255,500)"
       gradientUnits="userSpaceOnUse">
      <stop
         style="stop-color:#1476e6"
         offset="0"
         id="stop23" />
      <stop
         style="stop-color:#143e9a"
         offset="1"
         id="stop25" />
    </linearGradient>
    <linearGradient
       id="linearGradient3919"
       x1="457"
       x2="274"
       y1="694"
       y2="644"
       gradientTransform="matrix(-0.5,-0.87,0.87,-0.5,-301,871)"
       gradientUnits="userSpaceOnUse">
      <stop
         style="stop-color:#d000d0"
         offset="0"
         id="stop28" />
      <stop
         style="stop-color:#760076"
         offset="1"
         id="stop30" />
    </linearGradient>
    <linearGradient
       id="linearGradient3923"
       x1="432"
       x2="264"
       y1="650"
       y2="710"
       gradientTransform="matrix(0.5,-0.87,0.87,0.5,-555,81)"
       gradientUnits="userSpaceOnUse">
      <stop
         style="stop-color:#d70016"
         offset="0"
         id="stop33" />
      <stop
         style="stop-color:#8d0016"
         offset="1"
         id="stop35" />
    </linearGradient>
    <linearGradient
       id="linearGradient4212"
       x1="256"
       x2="256"
       y1="224"
       y2="288"
       gradientUnits="userSpaceOnUse">
      <stop
         style="stop-color:#ffffff"
         offset="0"
         id="stop53" />
      <stop
         style="stop-color:#b0b0b0"
         offset="1"
         id="stop55" />
    </linearGradient>
    <filter
       id="filter4348"
       x="0"
       y="0"
       width="1"
       height="1" />
  </defs>
  <metadata
     id="metadata87">
    <rdf:RDF>
      <cc:Work
         rdf:about="">
        <dc:format>image/svg+xml</dc:format>
        <dc:type
           rdf:resource="http://purl.org/dc/dcmitype/StillImage" />
      </cc:Work>
    </rdf:RDF>
  </metadata>
  <g
     id="g5730"
     transform="matrix(0.27791058,0,0,0.27325722,-6.1811253,-6.0776278)">
    <g
       id="g95"
       transform="translate(-3.4686811,0.45297791)">
      <path
         transform="matrix(0.96,0,0,0.96,-17,-17)"
         d="m 510,287 a 225,225 0 1 1 -0.43,-14"
         style="opacity:0.95;fill:#1a1a1a"
         id="path89" />
      <path
         transform="matrix(0.96,0,0,0.96,-17,-17)"
         d="m 510,287 a 225,225 0 1 1 -0.43,-14"
         style="opacity:0.95;fill:#1a1a1a"
         id="path91" />
      <path
         transform="matrix(0.96,0,0,0.96,-17,-17)"
         d="m 510,287 a 225,225 0 1 1 -0.43,-14"
         style="opacity:0.95;fill:#1a1a1a"
         id="path93" />
    </g>
    <g
       id="g111"
       transform="translate(-3.4686811,0.45297791)">
      <path
         d="M 303,33 248,191 466,154 C 434,92 374,46 303,33 Z"
         style="fill:#000000"
         id="path97" />
      <path
         d="m 473,185 -164,31 141,171 c 38,-59 47,-134 23,-202 z"
         style="fill:#000000"
         id="path99" />
      <path
         d="M 426,409 317,282 240,490 c 70,3 139,-26 186,-81 z"
         style="fill:#000000"
         id="path101" />
      <path
         d="M 209,479 264,321 46,358 c 32,62 92,108 163,121 z"
         style="fill:#000000"
         id="path103" />
      <path
         d="M 39,327 203,296 62,125 C 24,184 15,259 39,327 Z"
         style="fill:#000000"
         id="path105" />
      <path
         d="M 86,103 195,230 272,22 C 202,19 133,48 86,103 Z"
         style="fill:#000000"
         id="path107" />
      <path
         d="m 288,256 a 32,32 0 1 1 -64,0 32,32 0 1 1 64,0 z"
         style="fill:#000000"
         id="path109" />
    </g>
    <g
       id="g127"
       transform="translate(-3.4686811,0.45297791)">
      <path
         d="M 303,33 248,191 466,154 C 434,92 374,46 303,33 Z"
         style="fill:url(#linearGradient3885)"
         id="path113" />
      <path
         d="m 473,185 -164,31 141,171 c 38,-59 47,-134 23,-202 z"
         style="fill:url(#linearGradient3907)"
         id="path115" />
      <path
         d="M 426,409 317,282 240,490 c 70,3 139,-26 186,-81 z"
         style="fill:url(#linearGradient3911)"
         id="path117" />
      <path
         d="M 209,479 264,321 46,358 c 32,62 92,108 163,121 z"
         style="fill:url(#linearGradient3915)"
         id="path119" />
      <path
         d="M 39,327 203,296 62,125 C 24,184 15,259 39,327 Z"
         style="fill:url(#linearGradient3919)"
         id="path121" />
      <path
         d="M 86,103 195,230 272,22 C 202,19 133,48 86,103 Z"
         style="fill:url(#linearGradient3923)"
         id="path123" />
      <path
         d="m 288,256 a 32,32 0 1 1 -64,0 32,32 0 1 1 64,0 z"
         style="fill:url(#linearGradient4212)"
         id="path125" />
    </g>
    <g
       style="opacity:0.5;filter:url(#filter4348)"
       id="g143"
       transform="translate(-3.4686811,0.45297791)">
      <path
         d="M 263,178 C 326,167 388,157 451,146 420,95 368,57 310,44 294,89 279,133 263,178 Z"
         style="opacity:0.15;fill:#ffffff"
         id="path129" />
      <path
         d="m 327,223 c 41,49 80,98 121,146 29,-52 36,-116 18,-173 -46,8.7 -93,17 -139,26 z"
         style="opacity:0.25;fill:#ffffff"
         id="path131" />
      <path
         d="m 254,479 c 60,-1.1 118,-27 159,-71 -31,-36 -61,-72 -92,-108 -22,59 -44,119 -67,178 z"
         style="opacity:0.15;fill:#ffffff"
         id="path133" />
      <path
         d="m 61,366 c 31,51 83,89 141,102 16,-45 31,-89 47,-134 -63,11 -125,21 -188,32 z"
         style="opacity:0.15;fill:#ffffff"
         id="path135" />
      <path
         d="M 63,143 C 34,195 28,259 46,315 92,306.3 139,298 185,289 145,240 104,191 64,142 l -0.47,0.88 z"
         style="opacity:0.25;fill:#ffffff"
         id="path137" />
      <path
         d="m 258,33 c -59,1.1 -118,27 -158,71 l 92,108 C 214,153 236,93 259,34 l -0.59,0.031 z"
         style="opacity:0.15;fill:#ffffff"
         id="path139" />
      <path
         d="m 255,234 c -18,-0.19 -28,26 -15,38 10,11 31,7.5 36,-7.2 5.2,-13 -3.3,-29 -17,-30 -1.5,-0.2 -2.9,-0.28 -4.4,-0.19 z"
         style="opacity:0.15;fill:#ffffff;filter:url(#filter4348)"
         id="path141" />
    </g>
  </g>
</svg>
