<svg version="1.1" viewBox="0 0 128 128" xmlns="http://www.w3.org/2000/svg" xmlns:xlink="http://www.w3.org/1999/xlink">
  <defs>
    <linearGradient id="a" x1="428.57001" x2="408.57001" gradientUnits="userSpaceOnUse" spreadMethod="reflect">
      <stop stop-color="#2f3943" offset="0"/>
      <stop stop-color="#808c9b" offset="1"/>
    </linearGradient>
    <linearGradient id="b" x1="-395.07001" x2="-419.67001" y1="-511.20001" y2="-535.79999" gradientUnits="userSpaceOnUse">
      <stop stop-color="#18222a" offset="0"/>
      <stop stop-color="#566069" offset="1"/>
    </linearGradient>
    <linearGradient id="c" x1="-398.07001" x2="-417.20001" y1="-514" y2="-533.13" gradientUnits="userSpaceOnUse">
      <stop stop-color="#2e5d89" offset="0"/>
      <stop stop-color="#1b92f4" offset="1"/>
    </linearGradient>
    <linearGradient id="d" x1="421.64001" x2="396.59" y1="536.87" y2="511.82001" gradientTransform="rotate(180,408.57,523.8)" gradientUnits="userSpaceOnUse">
      <stop stop-color="#197cf1" offset="0"/>
      <stop stop-color="#20bcfa" offset="1"/>
    </linearGradient>
    <linearGradient id="e" x1="417" x2="393.5" y1="532.22998" y2="508.73001" gradientTransform="rotate(180,408.57,523.8)" gradientUnits="userSpaceOnUse" xlink:href="#d"/>
    <linearGradient id="f" x1="414.39999" x2="391.69" y1="529.62" y2="506.91" gradientTransform="rotate(180,408.57,523.8)" gradientUnits="userSpaceOnUse" xlink:href="#d"/>
    <linearGradient id="g" x1="-401.07001" x2="-425.57001" y1="-516.79999" y2="-541.29999" gradientUnits="userSpaceOnUse" xlink:href="#c"/>
    <linearGradient id="linearGradient876" x1="-398.07001" x2="-417.20001" y1="-514" y2="-533.13" gradientUnits="userSpaceOnUse" xlink:href="#c"/>
    <linearGradient id="linearGradient878" x1="421.64001" x2="396.59" y1="536.87" y2="511.82001" gradientTransform="rotate(180,408.57,523.8)" gradientUnits="userSpaceOnUse" xlink:href="#d"/>
  </defs>
  <g transform="matrix(3.2,0,0,3.2,-1243.424,-1612.16)">
    <g stroke-opacity=".55" stroke-width="2.8">
      <rect x="388.57001" y="503.79999" width="40" height="40" rx="20" fill="url(#a)"/>
      <rect transform="scale(-1)" x="-426.57001" y="-541.79999" width="36" height="36" rx="18" fill="url(#b)"/>
      <rect transform="matrix(0,-1,-1,0,0,0)" x="-538.79999" y="-423.57001" width="30" height="30" rx="15" fill="#26333a"/>
      <rect transform="scale(-1)" x="-422.57001" y="-537.79999" width="28" height="28" rx="14" fill="url(#linearGradient876)"/>
      <rect transform="scale(-1)" x="-418.57001" y="-533.79999" width="20" height="20" rx="10" fill="url(#g)"/>
      <path d="m408.57 509.8c-7.756 0-14 6.244-14 14s6.244 14 14 14 14-6.244 14-14-6.244-14-14-14m0 1c7.202 0 13 5.798 13 13s-5.798 13-13 13-13-5.798-13-13 5.798-13 13-13" fill="url(#linearGradient878)"/>
      <path d="m408.57 511.8c-6.648 0-12 5.352-12 12s5.352 12 12 12 12-5.352 12-12-5.352-12-12-12m0 3c4.986 0 9 4.01 9 9 0 4.986-4.01 9-9 9-4.986 0-9-4.01-9-9 0-4.986 4.01-9 9-9" fill="url(#e)"/>
      <path d="m408.57 515.8c-1.154 0-2.247 0.247-3.236 0.684l1.863 4.66 1.252-0.332 2.045-4.771c-0.617-0.152-1.259-0.24-1.924-0.24m2.883 0.541-1.977 4.611 1.125 0.648 4.818-1.928c-0.909-1.511-2.299-2.69-3.967-3.332m-7.01 0.609c-1.511 0.909-2.69 2.299-3.332 3.967l4.611 1.977 0.648-1.125zm11.443 3.613-4.66 1.863 0.332 1.252 4.771 2.045c0.152-0.617 0.24-1.259 0.24-1.924 0-1.154-0.247-2.247-0.684-3.236m-15.08 1.312c-0.152 0.617-0.24 1.259-0.24 1.924 0 1.154 0.247 2.247 0.684 3.236l4.66-1.863-0.332-1.252zm10.607 2.83-0.648 1.125 1.928 4.818c1.511-0.909 2.69-2.299 3.332-3.967zm-4.879 1.293-4.818 1.928c0.909 1.511 2.299 2.69 3.967 3.332l1.977-4.611zm3.404 0.457-1.252 0.332-2.045 4.771c0.617 0.152 1.259 0.24 1.924 0.24 1.154 0 2.247-0.247 3.236-0.684z" fill="url(#f)"/>
    </g>
    <g stroke-linejoin="round">
      <circle transform="rotate(37.5)" cx="643.01001" cy="166.83" r="2" color="#000000" fill="#2c3e50" stroke-linecap="round" stroke-width="3"/>
      <g fill="#84cbfe" stroke-width="2">
        <path d="m401.57143 513.798a2.999961 2.999961 0 0 0-3 3 2.999961 2.999961 0 0 0 3 3 2.999961 2.999961 0 0 0 3-3 2.999961 2.999961 0 0 0-3-3"/>
        <path d="m405.57143 519.298a1.499994 1.499987 0 0 0-1.5 1.5 1.499994 1.499987 0 0 0 1.5 1.5 1.499994 1.499987 0 0 0 1.5-1.5 1.499994 1.499987 0 0 0-1.5-1.5"/>
      </g>
    </g>
  </g>
</svg>
