<?xml version="1.0" encoding="UTF-8" standalone="no"?>
<!-- This Source Code Form is subject to the terms of the Mozilla Public
   - License, v. 2.0. If a copy of the MPL was not distributed with this
   - file, You can obtain one at http://mozilla.org/MPL/2.0/. -->

<svg
   width="128"
   height="128"
   version="1.1"
   viewBox="0 0 128 128"
   id="svg1616"
   xmlns="http://www.w3.org/2000/svg"
   xmlns:svg="http://www.w3.org/2000/svg"
   xmlns:rdf="http://www.w3.org/1999/02/22-rdf-syntax-ns#"
   xmlns:cc="http://creativecommons.org/ns#"
   xmlns:dc="http://purl.org/dc/elements/1.1/">
  <title
     id="title1444">Firefox Browser logo</title>
  <defs
     id="defs1590">
    <linearGradient
       id="a"
       x1="70.790001"
       x2="6.447"
       y1="12.39"
       y2="74.470001"
       gradientTransform="translate(-1.3,-0.004086)"
       gradientUnits="userSpaceOnUse">
      <stop
         stop-color="#fff44f"
         offset=".048"
         id="stop1446" />
      <stop
         stop-color="#ffe847"
         offset=".111"
         id="stop1448" />
      <stop
         stop-color="#ffc830"
         offset=".225"
         id="stop1450" />
      <stop
         stop-color="#ff980e"
         offset=".368"
         id="stop1452" />
      <stop
         stop-color="#ff8b16"
         offset=".401"
         id="stop1454" />
      <stop
         stop-color="#ff672a"
         offset=".462"
         id="stop1456" />
      <stop
         stop-color="#ff3647"
         offset=".534"
         id="stop1458" />
      <stop
         stop-color="#e31587"
         offset=".705"
         id="stop1460" />
    </linearGradient>
    <radialGradient
       id="b"
       cx="-7907"
       cy="-8515"
       r="80.800003"
       gradientTransform="translate(7974,8524)"
       gradientUnits="userSpaceOnUse">
      <stop
         stop-color="#ffbd4f"
         offset=".129"
         id="stop1463" />
      <stop
         stop-color="#ffac31"
         offset=".186"
         id="stop1465" />
      <stop
         stop-color="#ff9d17"
         offset=".247"
         id="stop1467" />
      <stop
         stop-color="#ff980e"
         offset=".283"
         id="stop1469" />
      <stop
         stop-color="#ff563b"
         offset=".403"
         id="stop1471" />
      <stop
         stop-color="#ff3750"
         offset=".467"
         id="stop1473" />
      <stop
         stop-color="#f5156c"
         offset=".71"
         id="stop1475" />
      <stop
         stop-color="#eb0878"
         offset=".782"
         id="stop1477" />
      <stop
         stop-color="#e50080"
         offset=".86"
         id="stop1479" />
    </radialGradient>
    <radialGradient
       id="c"
       cx="-7937"
       cy="-8482"
       r="80.800003"
       gradientTransform="translate(7974,8524)"
       gradientUnits="userSpaceOnUse">
      <stop
         stop-color="#960e18"
         offset=".3"
         id="stop1482" />
      <stop
         stop-color="#b11927"
         stop-opacity=".74"
         offset=".351"
         id="stop1484" />
      <stop
         stop-color="#db293d"
         stop-opacity=".343"
         offset=".435"
         id="stop1486" />
      <stop
         stop-color="#f5334b"
         stop-opacity=".094"
         offset=".497"
         id="stop1488" />
      <stop
         stop-color="#ff3750"
         stop-opacity="0"
         offset=".53"
         id="stop1490" />
    </radialGradient>
    <radialGradient
       id="d"
       cx="-7927"
       cy="-8533"
       r="58.529999"
       gradientTransform="translate(7974,8524)"
       gradientUnits="userSpaceOnUse">
      <stop
         stop-color="#fff44f"
         offset=".132"
         id="stop1493" />
      <stop
         stop-color="#ffdc3e"
         offset=".252"
         id="stop1495" />
      <stop
         stop-color="#ff9d12"
         offset=".506"
         id="stop1497" />
      <stop
         stop-color="#ff980e"
         offset=".526"
         id="stop1499" />
    </radialGradient>
    <radialGradient
       id="e"
       cx="-7946"
       cy="-8461"
       r="38.470001"
       gradientTransform="translate(7974,8524)"
       gradientUnits="userSpaceOnUse">
      <stop
         stop-color="#3a8ee6"
         offset=".353"
         id="stop1502" />
      <stop
         stop-color="#5c79f0"
         offset=".472"
         id="stop1504" />
      <stop
         stop-color="#9059ff"
         offset=".669"
         id="stop1506" />
      <stop
         stop-color="#c139e6"
         offset="1"
         id="stop1508" />
    </radialGradient>
    <radialGradient
       id="f"
       cx="-7936"
       cy="-8492"
       r="20.4"
       gradientTransform="matrix(0.972,-0.235,0.275,1.138,10090,7834)"
       gradientUnits="userSpaceOnUse">
      <stop
         stop-color="#9059ff"
         stop-opacity="0"
         offset=".206"
         id="stop1511" />
      <stop
         stop-color="#8c4ff3"
         stop-opacity=".064"
         offset=".278"
         id="stop1513" />
      <stop
         stop-color="#7716a8"
         stop-opacity=".45"
         offset=".747"
         id="stop1515" />
      <stop
         stop-color="#6e008b"
         stop-opacity=".6"
         offset=".975"
         id="stop1517" />
    </radialGradient>
    <radialGradient
       id="g"
       cx="-7938"
       cy="-8518"
       r="27.68"
       gradientTransform="translate(7974,8524)"
       gradientUnits="userSpaceOnUse">
      <stop
         stop-color="#ffe226"
         offset="0"
         id="stop1520" />
      <stop
         stop-color="#ffdb27"
         offset=".121"
         id="stop1522" />
      <stop
         stop-color="#ffc82a"
         offset=".295"
         id="stop1524" />
      <stop
         stop-color="#ffa930"
         offset=".502"
         id="stop1526" />
      <stop
         stop-color="#ff7e37"
         offset=".732"
         id="stop1528" />
      <stop
         stop-color="#ff7139"
         offset=".792"
         id="stop1530" />
    </radialGradient>
    <radialGradient
       id="h"
       cx="-7916"
       cy="-8536"
       r="118.1"
       gradientTransform="translate(7974,8524)"
       gradientUnits="userSpaceOnUse">
      <stop
         stop-color="#fff44f"
         offset=".113"
         id="stop1533" />
      <stop
         stop-color="#ff980e"
         offset=".456"
         id="stop1535" />
      <stop
         stop-color="#ff5634"
         offset=".622"
         id="stop1537" />
      <stop
         stop-color="#ff3647"
         offset=".716"
         id="stop1539" />
      <stop
         stop-color="#e31587"
         offset=".904"
         id="stop1541" />
    </radialGradient>
    <radialGradient
       id="i"
       cx="-7927"
       cy="-8523"
       r="86.5"
       gradientTransform="matrix(0.105,0.995,-0.653,0.069,-4685,8470)"
       gradientUnits="userSpaceOnUse">
      <stop
         stop-color="#fff44f"
         offset="0"
         id="stop1544" />
      <stop
         stop-color="#ffe847"
         offset=".06"
         id="stop1546" />
      <stop
         stop-color="#ffc830"
         offset=".168"
         id="stop1548" />
      <stop
         stop-color="#ff980e"
         offset=".304"
         id="stop1550" />
      <stop
         stop-color="#ff8b16"
         offset=".356"
         id="stop1552" />
      <stop
         stop-color="#ff672a"
         offset=".455"
         id="stop1554" />
      <stop
         stop-color="#ff3647"
         offset=".57"
         id="stop1556" />
      <stop
         stop-color="#e31587"
         offset=".737"
         id="stop1558" />
    </radialGradient>
    <radialGradient
       id="j"
       cx="-7938"
       cy="-8508"
       r="73.720001"
       gradientTransform="translate(7974,8524)"
       gradientUnits="userSpaceOnUse">
      <stop
         stop-color="#fff44f"
         offset=".137"
         id="stop1561" />
      <stop
         stop-color="#ff980e"
         offset=".48"
         id="stop1563" />
      <stop
         stop-color="#ff5634"
         offset=".592"
         id="stop1565" />
      <stop
         stop-color="#ff3647"
         offset=".655"
         id="stop1567" />
      <stop
         stop-color="#e31587"
         offset=".904"
         id="stop1569" />
    </radialGradient>
    <radialGradient
       id="k"
       cx="-7919"
       cy="-8504"
       r="80.690002"
       gradientTransform="translate(7974,8524)"
       gradientUnits="userSpaceOnUse">
      <stop
         stop-color="#fff44f"
         offset=".094"
         id="stop1572" />
      <stop
         stop-color="#ffe141"
         offset=".231"
         id="stop1574" />
      <stop
         stop-color="#ffaf1e"
         offset=".509"
         id="stop1576" />
      <stop
         stop-color="#ff980e"
         offset=".626"
         id="stop1578" />
    </radialGradient>
    <linearGradient
       id="l"
       x1="70.010002"
       x2="15.27"
       y1="12.06"
       y2="66.809998"
       gradientTransform="translate(-1.3,-0.004086)"
       gradientUnits="userSpaceOnUse">
      <stop
         stop-color="#fff44f"
         stop-opacity=".8"
         offset=".167"
         id="stop1581" />
      <stop
         stop-color="#fff44f"
         stop-opacity=".634"
         offset=".266"
         id="stop1583" />
      <stop
         stop-color="#fff44f"
         stop-opacity=".217"
         offset=".489"
         id="stop1585" />
      <stop
         stop-color="#fff44f"
         stop-opacity="0"
         offset=".6"
         id="stop1587" />
    </linearGradient>
  </defs>
  <g
     id="g1705"
     transform="matrix(1.6008512,0,0,1.6008512,2.0225766,0.02867932)">
    <path
       d="m 74.62,26.83 c -1.684,-4.052 -5.1,-8.427 -7.775,-9.81 a 40.27,40.27 0 0 1 3.925,11.76 l 0.007,0.065 C 66.395,17.925 58.967,13.515 52.897,3.925 52.59,3.44 52.283,2.954 51.984,2.441 51.813,2.148 51.676,1.884 51.557,1.641 a 7.053,7.053 0 0 1 -0.578,-1.535 0.1,0.1 0 0 0 -0.088,-0.1 0.138,0.138 0 0 0 -0.073,0 c -0.005,0 -0.013,0.009 -0.019,0.011 -0.006,0.002 -0.019,0.011 -0.028,0.015 l 0.015,-0.026 c -9.735,5.7 -13.04,16.25 -13.34,21.53 a 19.39,19.39 0 0 0 -10.67,4.111 11.59,11.59 0 0 0 -1,-0.758 17.97,17.97 0 0 1 -0.109,-9.473 28.7,28.7 0 0 0 -9.329,7.21 H 16.32 c -1.536,-1.947 -1.428,-8.367 -1.34,-9.708 a 6.928,6.928 0 0 0 -1.294,0.687 28.22,28.22 0 0 0 -3.788,3.245 33.84,33.84 0 0 0 -3.623,4.347 v 0.006 -0.007 a 32.73,32.73 0 0 0 -5.2,11.74 l -0.052,0.256 c -0.073,0.341 -0.336,2.049 -0.381,2.42 0,0.029 -0.006,0.056 -0.009,0.085 A 36.94,36.94 0 0 0 0.004,41.04 v 0.2 a 38.76,38.76 0 0 0 76.95,6.554 c 0.065,-0.5 0.118,-0.995 0.176,-1.5 A 39.86,39.86 0 0 0 74.616,26.824 Z M 29.95,57.17 c 0.181,0.087 0.351,0.181 0.537,0.264 l 0.027,0.017 Q 30.232,57.316 29.95,57.17 Z m 8.878,-23.38 m 31.95,-4.934 v -0.037 l 0.007,0.041 z"
       style="fill:url(#a)"
       id="path1592" />
    <path
       d="m 74.62,26.83 c -1.684,-4.052 -5.1,-8.427 -7.775,-9.81 a 40.27,40.27 0 0 1 3.925,11.76 v 0.037 l 0.007,0.041 a 35.1,35.1 0 0 1 -1.206,26.16 c -4.442,9.531 -15.19,19.3 -32.02,18.82 -18.18,-0.515 -34.2,-14.01 -37.19,-31.68 -0.545,-2.787 0,-4.2 0.274,-6.465 a 28.88,28.88 0 0 0 -0.623,5.348 v 0.2 a 38.76,38.76 0 0 0 76.95,6.554 c 0.065,-0.5 0.118,-0.995 0.176,-1.5 a 39.86,39.86 0 0 0 -2.514,-19.47 z"
       style="fill:url(#b)"
       id="path1594" />
    <path
       d="m 74.62,26.83 c -1.684,-4.052 -5.1,-8.427 -7.775,-9.81 a 40.27,40.27 0 0 1 3.925,11.76 v 0.037 l 0.007,0.041 a 35.1,35.1 0 0 1 -1.206,26.16 c -4.442,9.531 -15.19,19.3 -32.02,18.82 -18.18,-0.515 -34.2,-14.01 -37.19,-31.68 -0.545,-2.787 0,-4.2 0.274,-6.465 a 28.88,28.88 0 0 0 -0.623,5.348 v 0.2 a 38.76,38.76 0 0 0 76.95,6.554 c 0.065,-0.5 0.118,-0.995 0.176,-1.5 a 39.86,39.86 0 0 0 -2.514,-19.47 z"
       style="fill:url(#c)"
       id="path1596" />
    <path
       d="m 55.78,31.38 c 0.084,0.059 0.162,0.118 0.241,0.177 a 21.1,21.1 0 0 0 -3.6,-4.695 C 40.371,14.812 49.264,0.742 50.763,0.022 L 50.778,0 c -9.735,5.7 -13.04,16.25 -13.34,21.53 0.452,-0.031 0.9,-0.069 1.362,-0.069 a 19.56,19.56 0 0 1 16.98,9.917 z"
       style="fill:url(#d)"
       id="path1598" />
    <path
       d="m 38.82,33.79 c -0.064,0.964 -3.47,4.289 -4.661,4.289 -11.02,0 -12.81,6.667 -12.81,6.667 0.488,5.614 4.4,10.24 9.129,12.68 0.216,0.112 0.435,0.213 0.654,0.312 q 0.569,0.252 1.138,0.466 a 17.24,17.24 0 0 0 5.043,0.973 c 19.32,0.906 23.06,-23.1 9.119,-30.07 a 13.38,13.38 0 0 1 9.345,2.269 19.56,19.56 0 0 0 -16.98,-9.917 c -0.46,0 -0.91,0.038 -1.362,0.069 a 19.39,19.39 0 0 0 -10.67,4.111 c 0.591,0.5 1.258,1.168 2.663,2.553 2.63,2.591 9.375,5.275 9.39,5.59 z"
       style="fill:url(#e)"
       id="path1600" />
    <path
       d="m 38.82,33.79 c -0.064,0.964 -3.47,4.289 -4.661,4.289 -11.02,0 -12.81,6.667 -12.81,6.667 0.488,5.614 4.4,10.24 9.129,12.68 0.216,0.112 0.435,0.213 0.654,0.312 q 0.569,0.252 1.138,0.466 a 17.24,17.24 0 0 0 5.043,0.973 c 19.32,0.906 23.06,-23.1 9.119,-30.07 a 13.38,13.38 0 0 1 9.345,2.269 19.56,19.56 0 0 0 -16.98,-9.917 c -0.46,0 -0.91,0.038 -1.362,0.069 a 19.39,19.39 0 0 0 -10.67,4.111 c 0.591,0.5 1.258,1.168 2.663,2.553 2.63,2.591 9.375,5.275 9.39,5.59 z"
       style="fill:url(#f)"
       id="path1602" />
    <path
       d="m 24.96,24.36 c 0.314,0.2 0.573,0.374 0.8,0.531 a 17.97,17.97 0 0 1 -0.109,-9.473 28.7,28.7 0 0 0 -9.329,7.21 c 0.189,-0.005 5.811,-0.106 8.638,1.732 z"
       style="fill:url(#g)"
       id="path1604" />
    <path
       d="m 0.354,42.16 c 2.991,17.67 19.01,31.17 37.19,31.68 16.83,0.476 27.58,-9.294 32.02,-18.82 A 35.1,35.1 0 0 0 70.77,28.86 v -0.037 c 0,-0.029 -0.006,-0.046 0,-0.037 l 0.007,0.065 c 1.375,8.977 -3.191,17.67 -10.33,23.56 l -0.022,0.05 c -13.91,11.33 -27.22,6.834 -29.91,5 Q 30.233,57.326 29.951,57.18 C 21.842,53.304 18.491,45.92 19.211,39.58 a 9.953,9.953 0 0 1 -9.181,-5.775 14.62,14.62 0 0 1 14.25,-0.572 19.3,19.3 0 0 0 14.55,0.572 c -0.015,-0.315 -6.76,-3 -9.39,-5.59 -1.405,-1.385 -2.072,-2.052 -2.663,-2.553 a 11.59,11.59 0 0 0 -1,-0.758 c -0.23,-0.157 -0.489,-0.327 -0.8,-0.531 -2.827,-1.838 -8.449,-1.737 -8.635,-1.732 h -0.018 c -1.536,-1.947 -1.428,-8.367 -1.34,-9.708 A 6.928,6.928 0 0 0 13.69,13.62 28.22,28.22 0 0 0 9.902,16.865 33.84,33.84 0 0 0 6.264,21.202 v 0.006 -0.007 a 32.73,32.73 0 0 0 -5.2,11.74 C 1.045,33.02 -0.332,39.04 0.347,42.162 Z"
       style="fill:url(#h)"
       id="path1606" />
    <path
       d="m 52.42,26.86 a 21.1,21.1 0 0 1 3.6,4.7 c 0.213,0.161 0.412,0.321 0.581,0.476 8.787,8.1 4.183,19.55 3.84,20.36 7.138,-5.881 11.7,-14.58 10.33,-23.56 C 66.387,17.906 58.951,13.496 52.891,3.906 52.584,3.421 52.277,2.935 51.978,2.422 51.807,2.129 51.67,1.865 51.551,1.622 a 7.053,7.053 0 0 1 -0.578,-1.535 0.1,0.1 0 0 0 -0.088,-0.1 0.138,0.138 0 0 0 -0.073,0 c -0.005,0 -0.013,0.009 -0.019,0.011 -0.006,0.002 -0.019,0.011 -0.028,0.015 -1.499,0.711 -10.39,14.79 1.66,26.83 z"
       style="fill:url(#i)"
       id="path1608" />
    <path
       d="M 56.6,32.04 C 56.431,31.885 56.232,31.725 56.019,31.564 55.94,31.505 55.862,31.446 55.778,31.387 a 13.38,13.38 0 0 0 -9.345,-2.269 c 13.94,6.97 10.2,30.97 -9.119,30.07 a 17.24,17.24 0 0 1 -5.043,-0.973 q -0.569,-0.213 -1.138,-0.466 c -0.219,-0.1 -0.438,-0.2 -0.654,-0.312 l 0.027,0.017 c 2.694,1.839 16,6.332 29.91,-5 l 0.022,-0.05 c 0.347,-0.81 4.951,-12.26 -3.84,-20.36 z"
       style="fill:url(#j)"
       id="path1610" />
    <path
       d="m 21.35,44.74 c 0,0 1.789,-6.667 12.81,-6.667 1.191,0 4.6,-3.325 4.661,-4.289 a 19.3,19.3 0 0 1 -14.55,-0.572 14.62,14.62 0 0 0 -14.25,0.572 9.953,9.953 0 0 0 9.181,5.775 c -0.718,6.337 2.632,13.72 10.74,17.6 0.181,0.087 0.351,0.181 0.537,0.264 -4.733,-2.445 -8.641,-7.069 -9.129,-12.68 z"
       style="fill:url(#k)"
       id="path1612" />
    <path
       d="m 74.62,26.83 c -1.684,-4.052 -5.1,-8.427 -7.775,-9.81 a 40.27,40.27 0 0 1 3.925,11.76 l 0.007,0.065 C 66.395,17.925 58.967,13.515 52.897,3.925 52.59,3.44 52.283,2.954 51.984,2.441 51.813,2.148 51.676,1.884 51.557,1.641 a 7.053,7.053 0 0 1 -0.578,-1.535 0.1,0.1 0 0 0 -0.088,-0.1 0.138,0.138 0 0 0 -0.073,0 c -0.005,0 -0.013,0.009 -0.019,0.011 -0.006,0.002 -0.019,0.011 -0.028,0.015 l 0.015,-0.026 c -9.735,5.7 -13.04,16.25 -13.34,21.53 0.452,-0.031 0.9,-0.069 1.362,-0.069 a 19.56,19.56 0 0 1 16.98,9.917 13.38,13.38 0 0 0 -9.345,-2.269 c 13.94,6.97 10.2,30.97 -9.119,30.07 a 17.24,17.24 0 0 1 -5.043,-0.973 q -0.569,-0.213 -1.138,-0.466 c -0.219,-0.1 -0.438,-0.2 -0.654,-0.312 l 0.027,0.017 Q 30.234,57.316 29.952,57.17 c 0.181,0.087 0.351,0.181 0.537,0.264 -4.733,-2.446 -8.641,-7.07 -9.129,-12.68 0,0 1.789,-6.667 12.81,-6.667 1.191,0 4.6,-3.325 4.661,-4.289 -0.015,-0.315 -6.76,-3 -9.39,-5.59 -1.405,-1.385 -2.072,-2.052 -2.663,-2.553 a 11.59,11.59 0 0 0 -1,-0.758 17.97,17.97 0 0 1 -0.109,-9.473 28.7,28.7 0 0 0 -9.329,7.21 h -0.018 c -1.536,-1.947 -1.428,-8.367 -1.34,-9.708 A 6.928,6.928 0 0 0 13.688,13.613 28.22,28.22 0 0 0 9.9,16.858 33.84,33.84 0 0 0 6.277,21.205 v 0.006 -0.007 a 32.73,32.73 0 0 0 -5.2,11.74 L 1.025,33.2 c -0.073,0.341 -0.4,2.073 -0.447,2.445 v 0 a 45.09,45.09 0 0 0 -0.572,5.403 v 0.2 a 38.76,38.76 0 0 0 76.95,6.554 c 0.065,-0.5 0.118,-0.995 0.176,-1.5 a 39.86,39.86 0 0 0 -2.514,-19.47 z m -3.845,1.991 0.007,0.041 z"
       style="fill:url(#l)"
       id="path1614" />
  </g>
  <metadata
     id="metadata1677">
    <rdf:RDF>
      <cc:Work
         rdf:about="">
        <dc:title>Firefox Browser logo</dc:title>
      </cc:Work>
    </rdf:RDF>
  </metadata>
</svg>
