<svg version="1.1" viewBox="0 0 128 128" xmlns="http://www.w3.org/2000/svg" xmlns:xlink="http://www.w3.org/1999/xlink">
  <defs>
    <linearGradient id="linearGradient9138">
      <stop stop-opacity=".25120774" offset="0"/>
      <stop stop-color="#fff" stop-opacity="0" offset="1"/>
    </linearGradient>
    <linearGradient id="linearGradient4249" x1="448.15787" x2="448.15787" y1="615.15955" y2="563.45239" gradientTransform="translate(.06902845 .29773101)" gradientUnits="userSpaceOnUse">
      <stop stop-color="#cf5e19" offset="0"/>
      <stop stop-color="#e77936" stop-opacity="0" offset="1"/>
    </linearGradient>
    <linearGradient id="linearGradient8994" x1="45.289051" x2="45.289051" y1="95.745857" y2="48.76894" gradientTransform="matrix(.36986246 0 0 .36986246 452.1339 577.361)" gradientUnits="userSpaceOnUse">
      <stop stop-color="#132a43" stop-opacity=".50196081" offset="0"/>
      <stop stop-color="#133e6b" stop-opacity="0" offset="1"/>
    </linearGradient>
    <linearGradient id="linearGradient9144" x1="33.010448" x2="33.010448" y1="63.643616" y2="1.4182189" gradientTransform="translate(419.74371,553.0317)" gradientUnits="userSpaceOnUse" xlink:href="#linearGradient9138"/>
    <linearGradient id="linearGradient9167" x1="451.07458" x2="451.07458" y1="614.4151" y2="555.28333" gradientTransform="translate(-.95875879 -.00039229838)" gradientUnits="userSpaceOnUse" xlink:href="#linearGradient9138"/>
  </defs>
  <g transform="translate(-420.70247,-553.03209)">
    <g transform="matrix(.45592428 0 0 .45592433 235.24139 380.98274)"></g>
    <g transform="matrix(2.0086901,0,0,2.0086901,-424.6365,-558.11608)">
      <path d="m474.35894 586.77779c-0.55681-0.0185-3.09826 0.0122-3.61523 0.0332l-0.5 26.24804c1.56808-0.27894 5.62981-0.82877 7.17773-1.12304 2.64904-1.07886 2.86833-4.39963 4.40625-6.45703 1.13923-2.37277 2.58977-4.88416 2.73633-7.49414-1.91502-3.93903-4.96196-7.21143-7.80469-10.47657-0.69101-0.52565-1.54611-0.69537-2.40039-0.73047z" fill="#fff" fill-rule="evenodd"/>
      <g shape-rendering="auto">
        <path d="m428.68231 557.33875c-12.0647 13.02038-9.89428 35.67318 4.35547 46.21289 12.18537 9.99991 31.40223 8.67693 42.4082-2.4961-3.32801-3.27297-6.33589-2.53733-10.25 2.68946-12.25066 8.65279-35.17971-4.83729-38.5957-19.10547-2.34073-7.89805 0.13556-16.73774 5.78711-22.64258-2.32506-0.44683-1.24035-5.64719-3.70508-4.6582z" color="#000000" color-rendering="auto" fill="#fff" image-rendering="auto" solid-color="#000000" style="isolation:auto;mix-blend-mode:normal"/>
        <path d="m450.95459 607.53667c-6.35748 0.62981-14.89637 0.0987-19.02194 5.62298-2.68879 5.09868 4.1297 3.34027 7.56527 3.54914h34.67681c0.71791-7.15811-8.64682-8.20781-14.14219-8.84448-3.01409-0.29926-6.0487-0.39144-9.07795-0.32764z" color="#000000" color-rendering="auto" fill="#fff" image-rendering="auto" solid-color="#000000" style="isolation:auto;mix-blend-mode:normal"/>
        <rect x="450.8447" y="607.39374" width="3.8721652" height="4.8402066" rx="1.6473932e-7" color="#000000" color-rendering="auto" fill="#e77936" fill-opacity=".972549" image-rendering="auto" solid-color="#000000" style="isolation:auto;mix-blend-mode:normal"/>
        <ellipse cx="452.65173" cy="578.35254" rx="23.111917" ry="23.111921" color="#000000" color-rendering="auto" fill="#fff" image-rendering="auto" solid-color="#000000" style="isolation:auto;mix-blend-mode:normal"/>
        <rect transform="rotate(-45)" x="-92.968575" y="697.04822" width="7.6389685" height="64.494598" rx="3.2499699e-7" ry="0" color="#000000" color-rendering="auto" fill="#fff" image-rendering="auto" solid-color="#000000" style="isolation:auto;mix-blend-mode:normal"/>
      </g>
      <path d="m432.55035 553.22506-5.40234 5.40039 0.23438 0.23438c-10.57581 13.19902-8.05474 34.55018 5.65625 44.6914 2.56164 2.10222 5.43502 3.69936 8.47656 4.81445-3.79135 0.58348-7.33951 1.79211-9.58203 4.79493-2.68879 5.09867 4.12888 3.33996 7.56445 3.54882h34.67773c0.16871-1.68215-0.22443-3.02407-0.98828-4.10546 1.63659-0.24367 3.31998-0.49414 4.23438-0.66797 2.64904-1.07886 2.86833-4.39962 4.40625-6.45703 1.13923-2.37276 2.58977-4.88415 2.73633-7.49414-1.91502-3.93903-4.96196-7.21143-7.80469-10.47657-0.69101-0.52565-1.54611-0.69536-2.40039-0.73047-0.0325-1e-3 -0.16573 3e-3 -0.21094 2e-3 1.05978-2.68379 1.60763-5.5423 1.61523-8.42774-3.3e-4 -12.7639-10.34742-23.111-23.11132-23.11133-4.89746 0.01-9.66513 1.57556-13.61524 4.47071l-6.48633-6.48633zm-1.04687 9.75586 2.17969 2.17969c-2.6946 3.87139-4.14017 8.47456-4.14258 13.1914-7.5e-4 12.76466 10.34667 23.11296 23.11133 23.11328 4.71384-0.01 9.31198-1.46072 13.17773-4.1582l2.82617 2.82617c-1.08902 0.77047-2.22904 1.96891-3.45898 3.61133-12.25066 8.6528-35.17971-4.83729-38.5957-19.10547-2.21438-7.47172-0.11532-15.78306 4.90234-21.6582zm38.89062 42.16601-0.0976 5.10352c-1.90504-0.97216-4.24406-1.51347-6.48438-1.875 2.30685-0.81954 4.52034-1.89737 6.58203-3.22852z" fill="url(#linearGradient9144)" fill-rule="evenodd"/>
      <g shape-rendering="auto">
        <path d="m430.20198 558.64c-4.77759 5.457-7.41717 12.45963-7.43048 19.7125 0 16.57366 13.43561 30.00927 30.00928 30.00927 7.25529-8e-3 14.26224-2.64309 19.72384-7.41913l-3.52237-3.52237c-4.5208 3.851-10.2628 5.9705-16.20147 5.98029-13.83366 0-25.04808-11.21439-25.04808-25.04806 1e-3 -5.94196 2.11626-11.68971 5.96519-16.21659z" color="#000000" color-rendering="auto" fill="#e77936" image-rendering="auto" solid-color="#000000" style="isolation:auto;mix-blend-mode:normal"/>
        <rect transform="rotate(-45)" x="-91.247795" y="698.65808" width="4.7278013" height="60.744595" rx="2.011425e-7" ry="0" color="#000000" color-rendering="auto" fill="#e77936" image-rendering="auto" solid-color="#000000" style="isolation:auto;mix-blend-mode:normal"/>
        <ellipse cx="452.65173" cy="578.35254" rx="21.236917" ry="21.236921" color="#000000" color-rendering="auto" fill="#e77935" image-rendering="auto" solid-color="#000000" style="isolation:auto;mix-blend-mode:normal"/>
        <path d="m472.14161 615.07415h-19.36082-19.36082c0-3.87217 9.68041-5.80825 19.36082-5.80825s19.36082 1.93608 19.36082 5.80825z" color="#000000" color-rendering="auto" fill="#e77936" image-rendering="auto" solid-color="#000000" style="isolation:auto;mix-blend-mode:normal"/>
        <path d="m432.84723 555.20553-3.34375 3.34179 0.42187 0.42188c-4.59936 5.40832-7.14125 12.27392-7.1543 19.38281 0 15.92294 12.40327 28.94305 28.07422 29.94141v1.02148c-8.99132 0.24204-17.42578 2.14702-17.42578 5.75977h19.36133 19.36133c0-3.61275-8.43446-5.51773-17.42578-5.75977v-1.02539c6.41499-0.42157 12.53912-2.89117 17.45898-7.07031l0.28125 0.28125 3.34375-3.34375-6.56836-6.56836a21.236917 21.236921 0 0 0 4.65625-13.23633 21.236917 21.236921 0 0 0-21.23633-21.23633 21.236917 21.236921 0 0 0-13.25 4.64454zm0.58593 7.27148 2.63868 2.63867a21.236917 21.236921 0 0 0-4.65625 13.23633 21.236917 21.236921 0 0 0 21.23632 21.23828 21.236917 21.236921 0 0 0 13.25-4.64453l2.74024 2.74024c-4.46822 3.67496-10.06708 5.70529-15.86133 5.71484-13.83366 0-25.04883-11.21516-25.04883-25.04883 9.8e-4 -5.79715 2.02871-11.40098 5.70117-15.875z" color="#000000" color-rendering="auto" fill="url(#linearGradient4249)" image-rendering="auto" solid-color="#000000" style="isolation:auto;mix-blend-mode:normal"/>
      </g>
      <path d="m460.96035 569.23567s-3.24925-3.15097-8.81079-3.15755c-5.56153-7e-3 -11.13101 6.70068-11.13774 12.36549-7e-3 5.6648 3.23857 12.17269 11.8432 12.18287 8.60465 9e-3 12.5975-4.49595 11.14085-14.98806l-10.6024 3.34438 1.99129 2.10041 1.25961-0.3132s2.09558 2.62508-1.05296 3.04097c-3.14853 0.41587-5.9808-0.4267-6.39579-4.41355-0.41503-3.98685 2.73638-6.81552 6.40723-5.23763z" fill="#fff" fill-rule="evenodd"/>
      <g transform="translate(-.95875879 -.00039229838)">
        <g fill-rule="evenodd">
          <path d="m457.13665 602.06436c0.10664 0.89458 6.39338 9.71429 7.31096 10.14147 0.91757 0.42718 13.26601-1.27392 14.00407-1.9078s5.83702-10.90789 5.66342-11.94886-6.74224-9.48681-7.72284-9.94064c-0.9806-0.45384-13.29544 0.34712-14.21002 0.80328-1.03499 0.51622-5.15223 11.95797-5.04559 12.85255z" fill="#1a5694"/>
          <path d="m458.78419 602.08957c0.11275 0.93259 5.74923 8.33886 6.59054 8.76072 0.84132 0.42186 11.29498-1.11587 11.95085-1.69851s5.54036-10.26076 5.12719-11.37332c-0.41317-1.11257-5.87168-7.74904-6.88467-8.1148-1.01298-0.36576-11.09095 0.0164-12.12659 0.71516-1.03565 0.6987-4.77007 10.77816-4.65732 11.71075z" fill="#3f8cdf"/>
          <path d="m465.19679 611.24287c-0.914-0.0458 4.94201-11.9549 5.49852-12.5058 0.55651-0.55089 11.7149-1.26484 12.35138-0.62854s-5.00787 11.15616-5.58679 11.59733c-0.57891 0.44117-11.34911 1.58278-12.26311 1.53701z" fill="#2e66a4"/>
          <path d="m462.80007 590.81838c2.12232 2.99499 6.6667 7.46619 6.89906 8.5349 0.23237 1.06871-3.43202 7.76541-5.40954 11.71393l1.80555 0.53974c1.29568-4.3166 3.94151-11.25358 4.83965-11.95244s11.8635-1.41184 12.64822-0.86596-1.08615-1.61743-1.08615-1.61743c-3.8502 0.79988-11.17038 1.24255-12.07693 0.97723s-4.58215-5.86985-6.59015-8.33408z" fill="#1a5694"/>
        </g>
        <g fill="#c0d5eb">
          <path d="m473.89203 594.84891c-1.9332-0.15828-3.06051-2.50922-1.1271-2.35363 1.93341 0.15558 3.0603 2.51191 1.1271 2.35363z" color="#000000"/>
          <path d="m464.44137 595.62752c0.16007 1.93305-1.97482 3.42972-2.13757 1.4969-0.16276-1.93281 1.97751-3.42995 2.13757-1.4969z" color="#000000"/>
          <path d="m462.25786 600.35905c0.16006 1.93305-1.97482 3.42972-2.13758 1.4969s1.97751-3.42996 2.13758-1.4969z" color="#000000"/>
          <path d="m467.4573 599.73511c0.16007 1.93305-1.97481 3.42972-2.13757 1.4969-0.16276-1.93281 1.97751-3.42995 2.13757-1.4969z" color="#000000"/>
          <path d="m465.22154 604.51861c0.16006 1.93305-1.97482 3.42972-2.13758 1.4969s1.97752-3.42996 2.13758-1.4969z" color="#000000"/>
        </g>
        <path d="m477.29179 606.68666c-0.17034 1.93218-2.52827 3.04479-2.36062 1.11239 0.16764-1.9324 2.53096-3.04456 2.36062-1.11239z" color="#000000" fill="#97bbdf"/>
        <path d="m473.86769 602.04836c-0.28209 1.91904-2.70057 2.89305-2.42115 0.97363 0.27942-1.91943 2.70325-2.89267 2.42115-0.97363z" color="#000000" fill="#97bbdf"/>
        <path d="m457.13666 602.06436c0.10663 0.89458 6.39337 9.71429 7.31095 10.14147s13.26601-1.27392 14.00407-1.9078 5.83702-10.90789 5.66342-11.94886-6.74224-9.48681-7.72284-9.94064c-0.9806-0.45384-13.29544 0.34712-14.21002 0.80328-1.03499 0.51622-5.15223 11.95798-5.04558 12.85255z" fill="url(#linearGradient8994)" fill-rule="evenodd"/>
      </g>
      <path d="m460.96035 569.23567s-3.24925-3.15097-8.81079-3.15755c-5.56153-7e-3 -11.13101 6.70068-11.13774 12.36549-7e-3 5.6648 3.23857 12.17269 11.8432 12.18287 8.60465 9e-3 12.5975-4.49595 11.14085-14.98806l-10.6024 3.34437 1.99129 2.10042 1.25961-0.3132s2.09558 2.62507-1.05296 3.04096c-3.14853 0.41588-5.9808-0.4267-6.39579-4.41355-0.41503-3.98684 2.73638-6.81551 6.40723-5.23762z" fill="url(#linearGradient9167)" fill-rule="evenodd"/>
    </g>
  </g>
</svg>
