<?xml version="1.0" encoding="UTF-8" standalone="no"?>
<svg
   version="1"
   width="128"
   height="128"
   id="svg74"
   xmlns:xlink="http://www.w3.org/1999/xlink"
   xmlns="http://www.w3.org/2000/svg"
   xmlns:svg="http://www.w3.org/2000/svg">
  <defs
     id="defs48">
    <linearGradient
       id="linearGradient4176">
      <stop
         style="stop-color:#6f8181;stop-opacity:1"
         offset="0"
         id="stop2" />
      <stop
         style="stop-color:#b0b8b8;stop-opacity:1"
         offset="1"
         id="stop4" />
    </linearGradient>
    <linearGradient
       id="linearGradient4215">
      <stop
         offset="0"
         style="stop-color:#334545;stop-opacity:1"
         id="stop7" />
      <stop
         offset="1"
         style="stop-color:#172525;stop-opacity:1"
         id="stop9" />
    </linearGradient>
    <linearGradient
       id="linearGradient4209">
      <stop
         offset="0"
         style="stop-color:#cfd5d5;stop-opacity:1"
         id="stop12" />
      <stop
         offset="1"
         style="stop-color:#fcfcfc;stop-opacity:1"
         id="stop14" />
    </linearGradient>
    <linearGradient
       id="linearGradient4349">
      <stop
         style="stop-color:#000000;stop-opacity:1;"
         offset="0"
         id="stop17" />
      <stop
         style="stop-color:#000000;stop-opacity:0;"
         offset="1"
         id="stop19" />
    </linearGradient>
    <linearGradient
       id="linearGradient4267">
      <stop
         style="stop-color:#6c5548;stop-opacity:1"
         offset="0"
         id="stop22" />
      <stop
         style="stop-color:#bb9d71;stop-opacity:1"
         offset="1"
         id="stop24" />
    </linearGradient>
    <radialGradient
       cx="15.415"
       cy="35.356998"
       r="7.579"
       fx="15.415"
       fy="35.356998"
       id="radialGradient6969"
       xlink:href="#linearGradient4215"
       gradientUnits="userSpaceOnUse"
       gradientTransform="matrix(-0.1877762,-0.61010386,0.62117041,-0.17515593,21.206274,46.193495)" />
    <linearGradient
       id="linearGradient6951">
      <stop
         style="stop-color:#ffa92d;stop-opacity:1"
         offset="0"
         id="stop28" />
      <stop
         style="stop-color:#cd7223;stop-opacity:1"
         offset="1"
         id="stop30" />
    </linearGradient>
    <linearGradient
       x1="37.018002"
       y1="19.24"
       x2="30.865"
       y2="14.64"
       id="linearGradient6957"
       xlink:href="#linearGradient6951"
       gradientUnits="userSpaceOnUse"
       gradientTransform="matrix(-0.114852,-0.389864,0.389864,-0.114852,30.490732,40.579977)" />
    <linearGradient
       id="linearGradient6482">
      <stop
         style="stop-color:black;stop-opacity:1"
         offset="0"
         id="stop34" />
      <stop
         style="stop-color:black;stop-opacity:0"
         offset="1"
         id="stop36" />
    </linearGradient>
    <linearGradient
       x1="32.349998"
       y1="28.083"
       x2="21.212999"
       y2="30.292999"
       id="linearGradient4351"
       xlink:href="#linearGradient6482"
       gradientUnits="userSpaceOnUse"
       gradientTransform="matrix(0.97383439,0,0,1.0390813,-4.0621635,-8.9041805)" />
    <linearGradient
       xlink:href="#linearGradient4267"
       id="linearGradient4273"
       x1="34.712002"
       y1="34.584999"
       x2="5"
       y2="9"
       gradientUnits="userSpaceOnUse"
       gradientTransform="translate(-0.99999999,-8.0245994)" />
    <radialGradient
       xlink:href="#linearGradient4209"
       id="radialGradient4281"
       cx="22"
       cy="22"
       fx="22"
       fy="22"
       r="5"
       gradientUnits="userSpaceOnUse"
       gradientTransform="translate(-0.99999999,-8.0245994)" />
    <radialGradient
       xlink:href="#linearGradient4209"
       id="radialGradient4289"
       cx="13.5"
       cy="21.5"
       fx="13.5"
       fy="21.5"
       r="4.5"
       gradientUnits="userSpaceOnUse"
       gradientTransform="translate(-0.99999999,-8.0245994)" />
    <radialGradient
       xlink:href="#linearGradient4215"
       id="radialGradient4335"
       cx="3.4960001"
       cy="22.823"
       fx="3.4960001"
       fy="22.823"
       r="5.5"
       gradientTransform="matrix(1,0,0,1.0909092,-0.99999999,-10.388238)"
       gradientUnits="userSpaceOnUse" />
    <linearGradient
       xlink:href="#linearGradient4349"
       id="linearGradient4240"
       x1="15.263"
       y1="18.832001"
       x2="31"
       y2="35"
       gradientUnits="userSpaceOnUse"
       gradientTransform="translate(-0.99999999,-8.0245994)" />
    <radialGradient
       xlink:href="#linearGradient4215"
       id="radialGradient4282"
       cx="23.5"
       cy="22.5"
       fx="23.5"
       fy="22.5"
       r="2.5"
       gradientUnits="userSpaceOnUse"
       gradientTransform="translate(-1.0000005,-8.0245994)" />
    <radialGradient
       xlink:href="#linearGradient4215"
       id="radialGradient4290"
       cx="14.5"
       cy="21.5"
       fx="14.5"
       fy="21.5"
       r="2.5"
       gradientUnits="userSpaceOnUse"
       gradientTransform="matrix(0.8,0,0,0.8,2.3999995,-3.2245994)" />
    <linearGradient
       xlink:href="#linearGradient4176"
       id="linearGradient4182"
       x1="37.34"
       y1="35.924"
       x2="38.347"
       y2="33.508999"
       gradientUnits="userSpaceOnUse"
       gradientTransform="translate(-1.0000005,-7.0245994)" />
  </defs>
  <g
     id="g1252">
    <rect
       style="fill:none;stroke-width:4.02519;stroke:none"
       id="rect1120"
       width="128"
       height="128"
       x="0"
       y="0" />
    <g
       id="g4816"
       transform="matrix(2.7826087,0,0,2.7826087,-9.3375775e-8,15.338572)">
      <path
         style="color:#000000;font-style:normal;font-variant:normal;font-weight:normal;font-stretch:normal;font-size:medium;line-height:normal;font-family:sans-serif;text-indent:0;text-align:start;text-decoration:none;text-decoration-line:none;text-decoration-style:solid;text-decoration-color:#000000;letter-spacing:normal;word-spacing:normal;text-transform:none;writing-mode:lr-tb;direction:ltr;baseline-shift:baseline;text-anchor:start;white-space:normal;clip-rule:nonzero;display:inline;overflow:visible;visibility:visible;opacity:1;isolation:auto;mix-blend-mode:normal;color-interpolation:sRGB;color-interpolation-filters:linearRGB;solid-color:#000000;solid-opacity:1;fill:url(#linearGradient4273);fill-opacity:1;fill-rule:evenodd;stroke:none;stroke-width:1;stroke-linecap:butt;stroke-linejoin:miter;stroke-miterlimit:10;stroke-dasharray:none;stroke-dashoffset:0;stroke-opacity:1;marker:none;color-rendering:auto;image-rendering:auto;shape-rendering:auto;text-rendering:auto;enable-background:accumulate"
         d="m 36.738383,0.00818967 c -0.314559,-0.048102 -0.59716,0.1231509 -0.767051,0.3183594 -0.169889,0.1952085 -0.287769,0.4371399 -0.390425,0.74218753 -0.177537,0.5275486 -0.829533,2.486072 -3.180598,4.421875 -2.351065,1.935806 -6.40539,4.327003 -13.432253,4.501619 -5.339143,0.061045 -8.607805,-3.374375 -9.9680555,-8.01683 v 2.745345 l -0.021691,7.7109384 0.043382,0.101562 c 0,0 0.382783,0.821224 -0.02169,1.927735 -0.4044748,1.10651 -1.9996148,2.546687 -5.5642212,3.580078 L 3,18.166059 3.082817,18.609418 c 0.1977185,1.073719 0.9858362,2.174143 2.1493184,3.300781 1.1634821,1.126639 2.7212818,2.266392 4.5352591,3.296875 3.6279555,2.060967 8.2746905,3.689479 12.7894315,3.765625 4.51474,0.07615 8.932001,-1.448563 11.854772,-5.671875 2.922773,-4.223311 4.348195,-11.550949 3.180597,-22.0484937 l -0.002,-0.00391 v -0.00391 C 37.55309,0.95626377 37.48727,0.71016307 37.369376,0.49451797 37.251481,0.27887257 37.052943,0.05629147 36.738383,0.00818967 Z"
         id="path50" />
      <path
         style="opacity:0.2;fill:url(#linearGradient4240);fill-opacity:1;stroke:none;stroke-width:2;stroke-linecap:round;stroke-linejoin:round;stroke-miterlimit:4;stroke-dasharray:none;stroke-opacity:1"
         d="M 15.435548,9.9734476 8.9902344,16.41876 21.482423,28.910948 c 0.358251,0.0249 0.71705,0.05648 1.074219,0.0625 4.51474,0.07615 8.932697,-1.448563 11.855468,-5.671875 0.403481,-0.583016 0.775613,-1.232087 1.119141,-1.933594 L 24.335939,10.172667 19.984376,14.522276 Z"
         id="path52" />
      <path
         style="color:#000000;display:inline;overflow:visible;visibility:visible;fill:url(#linearGradient4351);fill-opacity:1;fill-rule:evenodd;stroke:none;stroke-width:1;stroke-linecap:butt;stroke-linejoin:miter;stroke-miterlimit:10;stroke-dasharray:none;stroke-dashoffset:0;stroke-opacity:1;marker:none;marker-start:none;marker-mid:none;marker-end:none"
         d="m 15.000002,21.977397 c 6.562573,1.400513 9.904569,0.101924 11.860499,-1.509552 -0.516453,-0.711781 -0.8605,-1.492444 -0.8605,-1.492444 0,0 1.753513,0.679499 2.560494,1.790932 0.80467,1.108251 0.29878,1.791072 0.08819,3.209068 -0.468814,-1.245442 -1.343873,-1.712502 -1.462342,-2.207354 -1.759006,2.59451 -6.141431,2.48673 -12.186341,0.20935 z"
         id="path54" />
      <path
         style="color:#000000;font-style:normal;font-variant:normal;font-weight:normal;font-stretch:normal;font-size:medium;line-height:normal;font-family:sans-serif;text-indent:0;text-align:start;text-decoration:none;text-decoration-line:none;text-decoration-style:solid;text-decoration-color:#000000;letter-spacing:normal;word-spacing:normal;text-transform:none;writing-mode:lr-tb;direction:ltr;baseline-shift:baseline;text-anchor:start;white-space:normal;clip-rule:nonzero;display:inline;overflow:visible;visibility:visible;opacity:0.2;isolation:auto;mix-blend-mode:normal;color-interpolation:sRGB;color-interpolation-filters:linearRGB;solid-color:#000000;solid-opacity:1;fill:#000000;fill-opacity:1;fill-rule:evenodd;stroke:none;stroke-width:1;stroke-linecap:butt;stroke-linejoin:miter;stroke-miterlimit:10;stroke-dasharray:none;stroke-dashoffset:0;stroke-opacity:1;marker:none;color-rendering:auto;image-rendering:auto;shape-rendering:auto;text-rendering:auto;enable-background:accumulate"
         d="M 37.992189,7.8191506 C 37.909999,14.357643 36.572109,19.180445 34.41211,22.301573 31.489339,26.524885 27.071382,28.049598 22.556642,27.973448 18.041901,27.897302 13.395534,26.26879 9.7675785,24.207823 7.9536013,23.17734 6.395904,22.037587 5.2324219,20.910948 4.2472723,19.956995 3.5351317,19.020374 3.21875,18.104307 L 3,18.166807 l 0.082031,0.44336 c 0.1977185,1.073719 0.9869085,2.174143 2.1503907,3.300781 1.1634821,1.126639 2.7211794,2.266392 4.5351568,3.296875 3.6279555,2.060967 8.2743225,3.689479 12.7890635,3.765625 4.51474,0.07615 8.932697,-1.448563 11.855468,-5.671875 2.26828,-3.27759 3.627602,-8.43479 3.580079,-15.4824224 z m -29.0117202,3.6191414 -0.00195,0.99414 0.042968,0.101563 c 0,0 0.06494,0.168797 0.113282,0.417968 0.150839,-0.837885 -0.113282,-1.417968 -0.113282,-1.417968 l -0.041015,-0.0957 z"
         id="path56" />
      <path
         d="m 35.967774,28.375838 0.926394,-1.844875 C 33.447838,24.009628 27.013984,21.45112 27.013984,21.45112 l -1.013758,0.557286 c 0,0 5.841507,5.181035 9.967548,6.367432 z"
         style="color:#000000;display:inline;overflow:visible;visibility:visible;opacity:1;fill:url(#linearGradient6957);fill-opacity:1;fill-rule:nonzero;stroke:none;stroke-width:2.46045;stroke-linecap:round;stroke-linejoin:miter;stroke-miterlimit:4;stroke-dasharray:none;stroke-dashoffset:0;stroke-opacity:1;marker:none;marker-start:none;marker-mid:none;marker-end:none"
         id="path58" />
      <path
         d="m 36.000001,24.975435 -0.483074,0.317687 c -0.447434,0.244909 -0.810437,0.661172 -1.104875,1.142591 -0.336916,0.791414 -0.469962,1.286319 -0.412051,2.059551 l 0.7,-0.119863 c 0,0 3.654923,1.048538 5.385122,1.6 l 0.202389,-0.389889 0.712489,-1.379051 -5,-2.561438 z"
         style="color:#000000;font-style:normal;font-variant:normal;font-weight:normal;font-stretch:normal;font-size:medium;line-height:normal;font-family:sans-serif;text-indent:0;text-align:start;text-decoration:none;text-decoration-line:none;text-decoration-style:solid;text-decoration-color:#000000;letter-spacing:normal;word-spacing:normal;text-transform:none;writing-mode:lr-tb;direction:ltr;baseline-shift:baseline;text-anchor:start;white-space:normal;clip-rule:nonzero;display:inline;overflow:visible;visibility:visible;opacity:1;isolation:auto;mix-blend-mode:normal;color-interpolation:sRGB;color-interpolation-filters:linearRGB;solid-color:#000000;solid-opacity:1;fill:url(#linearGradient4182);fill-opacity:1;fill-rule:nonzero;stroke:none;stroke-width:2.46045;stroke-linecap:round;stroke-linejoin:miter;stroke-miterlimit:4;stroke-dasharray:none;stroke-dashoffset:0;stroke-opacity:1;marker:none;color-rendering:auto;image-rendering:auto;shape-rendering:auto;text-rendering:auto;enable-background:accumulate"
         id="path60" />
      <path
         d="m 46,34.975401 c -1.246985,-4.051583 -1.689265,-7.268529 -4.948048,-6.98227 -2.626127,0.230686 -2.80998,3.832334 -0.09627,4.826197 2.614164,0.957405 5.044315,2.156073 5.044315,2.156073 z"
         style="color:#000000;display:inline;overflow:visible;visibility:visible;opacity:1;fill:url(#radialGradient6969);fill-opacity:1;fill-rule:nonzero;stroke:none;stroke-width:0.2;stroke-linecap:round;stroke-linejoin:miter;stroke-miterlimit:4;stroke-dasharray:none;stroke-dashoffset:0;stroke-opacity:1;marker:none;marker-start:none;marker-mid:none;marker-end:none"
         id="path62" />
      <path
         style="color:#000000;font-style:normal;font-variant:normal;font-weight:normal;font-stretch:normal;font-size:medium;line-height:normal;font-family:sans-serif;text-indent:0;text-align:start;text-decoration:none;text-decoration-line:none;text-decoration-style:solid;text-decoration-color:#000000;letter-spacing:normal;word-spacing:normal;text-transform:none;writing-mode:lr-tb;direction:ltr;baseline-shift:baseline;text-anchor:start;white-space:normal;clip-rule:nonzero;display:inline;overflow:visible;visibility:visible;opacity:1;isolation:auto;mix-blend-mode:normal;color-interpolation:sRGB;color-interpolation-filters:linearRGB;solid-color:#000000;solid-opacity:1;fill:url(#radialGradient4289);fill-opacity:1;fill-rule:evenodd;stroke:none;stroke-width:1;stroke-linecap:butt;stroke-linejoin:miter;stroke-miterlimit:10;stroke-dasharray:none;stroke-dashoffset:0;stroke-opacity:1;marker:none;color-rendering:auto;image-rendering:auto;shape-rendering:auto;text-rendering:auto;enable-background:accumulate"
         d="m 12.5,8.9754006 c -1.111289,0 -2.22859,0.367747 -3.0814795,1.1259624 -0.8528888,0.758215 -1.4187492,1.915061 -1.4185204,3.374038 -2.288e-4,1.458976 0.5656316,2.615822 1.4185204,3.374037 C 10.27141,17.607654 11.388711,17.9754 12.5,17.975401 c 1.111291,0 2.230516,-0.367747 3.083406,-1.125963 0.852887,-0.758215 1.416823,-1.915061 1.416595,-3.374037 2.28e-4,-1.458977 -0.563708,-2.615823 -1.416595,-3.374038 C 14.730517,9.3431476 13.611291,8.9754006 12.5,8.9754006 Z"
         id="path64" />
      <path
         style="color:#000000;display:inline;overflow:visible;visibility:visible;fill:url(#radialGradient4335);fill-opacity:1;fill-rule:evenodd;stroke:none;stroke-width:1;stroke-linecap:butt;stroke-linejoin:miter;stroke-miterlimit:10;stroke-dasharray:none;stroke-dashoffset:0;stroke-opacity:1;marker:none;marker-start:none;marker-mid:none;marker-end:none"
         d="m 4.1011374,11.975588 c -0.2440479,-0.0022 -0.4833734,0.01494 -0.716009,0.05181 -0.6203616,0.09837 -1.1947404,0.332781 -1.6899353,0.689006 -1.98077905,1.424897 -2.50243678,4.654223 -0.055818,8.03584 2.4466194,3.381618 5.6835966,3.90647 7.6643764,2.481573 1.9807795,-1.424898 2.5043625,-4.654224 0.05774,-8.035841 C 7.7558999,12.978792 5.8094728,11.990469 4.1011374,11.975583 Z"
         id="path66" />
      <path
         style="color:#000000;font-style:normal;font-variant:normal;font-weight:normal;font-stretch:normal;font-size:medium;line-height:normal;font-family:sans-serif;text-indent:0;text-align:start;text-decoration:none;text-decoration-line:none;text-decoration-style:solid;text-decoration-color:#000000;letter-spacing:normal;word-spacing:normal;text-transform:none;writing-mode:lr-tb;direction:ltr;baseline-shift:baseline;text-anchor:start;white-space:normal;clip-rule:nonzero;display:inline;overflow:visible;visibility:visible;opacity:1;isolation:auto;mix-blend-mode:normal;color-interpolation:sRGB;color-interpolation-filters:linearRGB;solid-color:#000000;solid-opacity:1;fill:url(#radialGradient4281);fill-opacity:1;fill-rule:evenodd;stroke:none;stroke-width:1;stroke-linecap:butt;stroke-linejoin:miter;stroke-miterlimit:10;stroke-dasharray:none;stroke-dashoffset:0;stroke-opacity:1;marker:none;color-rendering:auto;image-rendering:auto;shape-rendering:auto;text-rendering:auto;enable-background:accumulate"
         d="m 20.999075,8.9754006 c -1.236949,0 -2.480112,0.408944 -3.426561,1.2502314 -0.946449,0.841289 -1.572513,2.123381 -1.572513,3.750696 0,1.627313 0.626064,2.907553 1.572513,3.748842 0.946449,0.841287 2.189612,1.250231 3.426561,1.250231 1.236949,0 2.480112,-0.408944 3.426561,-1.250231 0.946449,-0.841289 1.574365,-2.121529 1.574365,-3.748842 0,-1.627315 -0.627916,-2.909407 -1.574365,-3.750696 C 23.479187,9.3843446 22.236024,8.9754006 20.999075,8.9754006 Z"
         id="path68" />
      <path
         style="color:#000000;font-style:normal;font-variant:normal;font-weight:normal;font-stretch:normal;font-size:medium;line-height:normal;font-family:sans-serif;text-indent:0;text-align:start;text-decoration:none;text-decoration-line:none;text-decoration-style:solid;text-decoration-color:#000000;letter-spacing:normal;word-spacing:normal;text-transform:none;writing-mode:lr-tb;direction:ltr;baseline-shift:baseline;text-anchor:start;white-space:normal;clip-rule:nonzero;display:inline;overflow:visible;visibility:visible;opacity:1;isolation:auto;mix-blend-mode:normal;color-interpolation:sRGB;color-interpolation-filters:linearRGB;solid-color:#000000;solid-opacity:1;fill:url(#radialGradient4282);fill-opacity:1;fill-rule:evenodd;stroke:none;stroke-width:1.07216;stroke-linecap:butt;stroke-linejoin:miter;stroke-miterlimit:10;stroke-dasharray:none;stroke-dashoffset:0;stroke-opacity:1;marker:none;color-rendering:auto;image-rendering:auto;shape-rendering:auto;text-rendering:auto;enable-background:accumulate"
         d="m 22.5,11.975401 c -0.612591,0 -1.231888,0.202543 -1.708984,0.626628 C 20.31392,13.026114 20,13.679295 20,14.475401 c 0,0.796105 0.31392,1.449288 0.791016,1.873373 0.477096,0.424085 1.096393,0.626627 1.708984,0.626627 0.612591,0 1.231888,-0.202542 1.708984,-0.626627 C 24.68608,15.924689 25,15.271506 25,14.475401 25,13.679295 24.68608,13.026114 24.208984,12.602029 23.731888,12.177944 23.112591,11.975401 22.5,11.975401 Z"
         id="path70" />
      <path
         d="m 14,11.975401 c -0.490073,0 -0.98551,0.162034 -1.367187,0.501302 C 12.251136,12.815971 12,13.338516 12,13.975401 c 0,0.636884 0.251136,1.15943 0.632813,1.498698 0.381677,0.339268 0.877114,0.501302 1.367187,0.501302 0.490073,0 0.98551,-0.162034 1.367187,-0.501302 C 15.748864,15.134831 16,14.612285 16,13.975401 16,13.338516 15.748864,12.815971 15.367187,12.476703 14.98551,12.137435 14.490073,11.975401 14,11.975401 Z"
         style="color:#000000;font-style:normal;font-variant:normal;font-weight:normal;font-stretch:normal;font-size:medium;line-height:normal;font-family:sans-serif;text-indent:0;text-align:start;text-decoration:none;text-decoration-line:none;text-decoration-style:solid;text-decoration-color:#000000;letter-spacing:normal;word-spacing:normal;text-transform:none;writing-mode:lr-tb;direction:ltr;baseline-shift:baseline;text-anchor:start;white-space:normal;clip-rule:nonzero;display:inline;overflow:visible;visibility:visible;opacity:1;isolation:auto;mix-blend-mode:normal;color-interpolation:sRGB;color-interpolation-filters:linearRGB;solid-color:#000000;solid-opacity:1;fill:url(#radialGradient4290);fill-opacity:1;fill-rule:evenodd;stroke:none;stroke-width:1.07216;stroke-linecap:butt;stroke-linejoin:miter;stroke-miterlimit:10;stroke-dasharray:none;stroke-dashoffset:0;stroke-opacity:1;marker:none;color-rendering:auto;image-rendering:auto;shape-rendering:auto;text-rendering:auto;enable-background:accumulate"
         id="path72" />
    </g>
  </g>
</svg>
