<svg version="1.1" viewBox="0 0 128 128" xmlns="http://www.w3.org/2000/svg" xmlns:xlink="http://www.w3.org/1999/xlink">
  <defs>
    <linearGradient id="a" x1="17.030001" x2="34.764" y1="13.444" y2="29.398001" gradientTransform="translate(-53.39,-40.971)" gradientUnits="userSpaceOnUse">
      <stop stop-color="#375a7d" offset="0"/>
      <stop stop-color="#377d50" offset="1"/>
    </linearGradient>
    <linearGradient id="b" x1="-44.389999" x2="-14.394" gradientTransform="translate(58.788,33.941)" gradientUnits="userSpaceOnUse">
      <stop stop-color="#b0b8b8" offset="0"/>
      <stop stop-color="#eff1f1" offset="1"/>
    </linearGradient>
    <linearGradient id="c" x1="-42.778999" x2="-18.1" y1="-25.452999" y2="-11.201" gradientUnits="userSpaceOnUse">
      <stop stop-color="#338173" offset="0"/>
      <stop stop-color="#54d883" offset="1"/>
    </linearGradient>
    <linearGradient id="d" x1="13.864" x2="27.049999" gradientUnits="userSpaceOnUse">
      <stop stop-color="#7ceca4" offset="0"/>
      <stop stop-color="#e5fbf7" offset="1"/>
    </linearGradient>
    <linearGradient id="e" x1="24" x2="40" y1="23" y2="39" gradientUnits="userSpaceOnUse">
      <stop stop-color="#292c2f" offset="0"/>
      <stop stop-opacity="0" offset="1"/>
    </linearGradient>
    <linearGradient id="f" x1="3.2420001" x2="40" y1="15.778" y2="37" gradientTransform="matrix(-.96593 -.25882 .25882 -.96593 40.971 53.39)" gradientUnits="userSpaceOnUse" xlink:href="#b"/>
    <linearGradient id="linearGradient889" x1="-44.389999" x2="-14.394" gradientTransform="translate(58.788,33.941)" gradientUnits="userSpaceOnUse" xlink:href="#b"/>
  </defs>
  <g transform="matrix(3.2012424,0,0,3.2012424,-12.829933,-12.829425)">
    <g color="#000000">
      <g stroke-linejoin="round" stroke-width="3">
        <circle transform="rotate(15)" cx="29.393999" cy="16.971001" r="15" fill="url(#linearGradient889)" stroke-linecap="round"/>
        <path d="m21.951885 43.88376a20 20 0 0 0 4.097059 0.0059l0.475-3.1a17 17 0 0 0 3.687344-0.985474l1.956 2.441a20 20 0 0 0 3.54897-2.053782l-1.135-2.911a17 17 0 0 0 2.709819-2.695171l2.893 1.127a20 20 0 0 0 2.050081-3.553369l-2.422-1.941a17 17 0 0 0 0.608591-1.818511 17 17 0 0 0 0.369366-1.876546l3.094-0.475a20 20 0 0 0 0.0059-4.097059l-3.1-0.475a17 17 0 0 0-0.985474-3.687344l2.441-1.956a20 20 0 0 0-2.053782-3.54897l-2.911 1.135a17 17 0 0 0-2.694886-2.70962l1.127127-2.892814a20 20 0 0 0-3.55353-2.050095l-1.93947 2.422095a17 17 0 0 0-1.820076-0.608739 17 17 0 0 0-1.876546-0.369366l-0.473378-3.093895a20 20 0 0 0-4.097058-0.00591l-0.476942 3.09991a17 17 0 0 0-3.687038 0.985745l-1.955962-2.440745a20 20 0 0 0-3.54897 2.053784l1.135 2.911a17 17 0 0 0-2.709819 2.695171l-2.893211-1.127955a20 20 0 0 0-2.050081 3.553369l2.422 1.941a17 17 0 0 0-0.608591 1.818511 17 17 0 0 0-0.369366 1.876546l-3.094 0.475a20 20 0 0 0-0.00591 4.097058l3.1 0.475a17 17 0 0 0 0.985475 3.687344l-2.441 1.956a20 20 0 0 0 2.053784 3.54897l2.911-1.135a17 17 0 0 0 2.695171 2.709819l-1.127 2.893a20 20 0 0 0 3.553369 2.050081l1.941-2.422a17 17 0 0 0 1.818511 0.608591 17 17 0 0 0 1.876546 0.369366zm-1.575352-6.360798a14 14 0 0 1-9.899495-17.14643 14 14 0 0 1 17.14643-9.899495 14 14 0 0 1 9.899495 17.14643 14 14 0 0 1-17.14643 9.899495" fill="url(#f)"/>
      </g>
      <path d="m33.19 14.807-18.387 18.387 10.736 10.734c0.169-0.013 0.338-0.02 0.506-0.037l0.475-3.102c1.262-0.189 2.499-0.519 3.688-0.984l1.957 2.441c1.25-0.561 2.439-1.25 3.549-2.055l-1.135-2.91c1-0.794 1.91-1.698 2.709-2.695l2.893 1.127c0.803-1.111 1.491-2.301 2.051-3.553l-2.422-1.941c0.237-0.594 0.439-1.201 0.607-1.818 0.158-0.618 0.283-1.245 0.371-1.877l3.092-0.475c0.018-0.17 0.028-0.34 0.041-0.51z" color-rendering="auto" fill="url(#e)" fill-rule="evenodd" image-rendering="auto" opacity=".2" shape-rendering="auto" text-rendering="auto"/>
      <g stroke-linejoin="round" stroke-width="3">
        <path d="m41.883 15.12-2.078 1.666c0.096 0.259 0.186 0.52 0.27 0.783l2.172-1.74c-0.116-0.239-0.237-0.475-0.363-0.709m-35.758 6e-3c-0.124 0.235-0.244 0.472-0.359 0.711l2.154 1.727c0.083-0.264 0.172-0.526 0.268-0.785zm-2.092 8.361c-0.029 0.854-4e-3 1.708 0.076 2.559l3.102 0.475c0.152 0.987 0.392 1.959 0.715 2.904l0.27-0.217c-0.466-1.188-0.796-2.425-0.984-3.688l-3.102-0.475c-0.046-0.518-0.071-1.038-0.076-1.559m39.934 0.02c-8e-3 0.514-0.036 1.027-0.084 1.539l-3.092 0.475c-0.088 0.632-0.212 1.259-0.371 1.877-0.168 0.617-0.371 1.224-0.607 1.818l0.268 0.215c0.124-0.341 0.238-0.685 0.34-1.033 0.159-0.618 0.283-1.245 0.371-1.877l3.092-0.475c0.082-0.844 0.11-1.692 0.084-2.539m-2.092 8.361c-0.484 0.992-1.05 1.943-1.691 2.842l-2.893-1.127c-0.799 0.997-1.708 1.902-2.709 2.695l0.291 0.744c0.886-0.729 1.696-1.547 2.418-2.439l2.893 1.127c0.804-1.111 1.491-2.301 2.051-3.553zm-35.758 6e-3 -0.363 0.291c0.561 1.25 1.25 2.439 2.055 3.549l2.91-1.135c0.715 0.901 1.519 1.728 2.4 2.467l0.295-0.758c-0.997-0.799-1.902-1.708-2.695-2.709l-2.91 1.135c-0.641-0.898-1.207-1.848-1.691-2.84m24.09 6.928c-1.188 0.465-2.425 0.796-3.688 0.984l-0.475 3.102c-1.363 0.138-2.736 0.135-4.098-8e-3l-0.475-3.092c-0.632-0.088-1.259-0.212-1.877-0.371-0.617-0.168-1.224-0.371-1.818-0.607l-1.941 2.422c-1.136-0.513-2.221-1.132-3.242-1.848l-0.311 0.797c1.111 0.804 2.301 1.491 3.553 2.051l1.941-2.422c0.594 0.237 1.201 0.439 1.818 0.607 0.618 0.159 1.245 0.283 1.877 0.371l0.475 3.092c1.362 0.143 2.735 0.145 4.098 8e-3l0.475-3.102c1.262-0.189 2.499-0.519 3.688-0.984l1.957 2.441c1.25-0.561 2.439-1.25 3.549-2.055l-0.311-0.795c-1.019 0.716-2.104 1.335-3.238 1.85z" fill="#172525" opacity=".2"/>
        <g stroke-linecap="round">
          <circle transform="matrix(-.96593 -.25882 .25882 -.96593 0 0)" cx="-29.393999" cy="-16.971001" r="13" fill="url(#a)"/>
          <circle transform="matrix(-.96593 -.25882 .25882 -.96593 0 0)" cx="-29.393999" cy="-16.971001" r="12" fill="url(#c)"/>
        </g>
        <path d="m24.17 24.21c2.858 3.724 3.309 8.175 1.01 9.942-2.302 1.766-6.965 0.288-9.823-3.437-2.858-3.724-2.828-8.284-0.526-10.05s6.484-0.179 9.342 3.546" fill="url(#d)"/>
      </g>
    </g>
    <path d="m15 28 4 4 2-6z" fill="#334545" fill-rule="evenodd"/>
  </g>
</svg>
