<svg version="1.1" viewBox="0 0 128 128" xmlns="http://www.w3.org/2000/svg">
  <defs>
    <linearGradient id="a" x1="404.98001" x2="420.98001" y1="517.79999" y2="533.79999" gradientTransform="translate(-388.98,-501.8)" gradientUnits="userSpaceOnUse">
      <stop stop-color="#383e51" offset="0"/>
      <stop stop-color="#655c6f" stop-opacity="0" offset="1"/>
    </linearGradient>
    <linearGradient id="b" x2="0" y1="785.71002" y2="727.71002" gradientTransform="matrix(.72727 0 0 .68966 .727 1.931)" gradientUnits="userSpaceOnUse">
      <stop stop-color="#26c281" offset="0"/>
      <stop stop-color="#3fc380" offset="1"/>
    </linearGradient>
    <linearGradient id="c" x2="0" y1="531.79999" y2="515.79999" gradientUnits="userSpaceOnUse">
      <stop stop-color="#70e4b3" offset="0"/>
      <stop stop-color="#c8f0dc" offset="1"/>
    </linearGradient>
  </defs>
  <g transform="matrix(3.2,0,0,3.2,-12.800012,-12.8)">
    <g transform="translate(-384.57,-499.8)">
      <path d="m392.58 503.8c-6e-3 0-0.01 3.568-0.01 8v24c0 4.432 4e-3 8 0.01 8h31.98c6e-3 0 0.01-3.568 0.01-8v-20l-12-12z" fill="url(#b)"/>
      <rect x="392.57001" y="542.79999" width="32" height="1" fill="#2e3132" fill-opacity=".294"/>
      <path transform="translate(384.57,499.8)" d="m16 16v16l11 12h13v-20l-8-8z" fill="url(#a)" fill-rule="evenodd" opacity=".2"/>
      <path d="m400.57 515.8v16h16v-16zm1 1h14v2h-14zm0 3h3v2h-3zm4 0h6v2h-6zm7 0h3v2h-3zm-11 3h3v2h-3zm4 0h6v2h-6zm7 0h3v2h-3zm-11 3h3v2h-3zm4 0h6v2h-6zm7 0h3v2h-3zm-11 3h3v2h-3zm4 0h6v2h-6zm7 0h3v2h-3z" color="#000000" fill="url(#c)"/>
      <path d="m424.56 513.79c6e-3 -9e-3 0.01-2.226 0.01-4.99 0-2.77-4e-3 -5-0.01-5h-9.98v0.01z" fill="#289769"/>
    </g>
  </g>
</svg>
