<?xml version="1.0" encoding="UTF-8" standalone="no"?>
<svg
   width="128"
   height="128"
   version="1.1"
   id="svg3952"
   xmlns:xlink="http://www.w3.org/1999/xlink"
   xmlns="http://www.w3.org/2000/svg"
   xmlns:svg="http://www.w3.org/2000/svg">
  <defs
     id="defs3930">
    <linearGradient
       id="linearGradient5022">
      <stop
         style="stop-color:#ffffff;stop-opacity:1;"
         offset="0"
         id="stop3900" />
      <stop
         style="stop-color:#ffffff;stop-opacity:0;"
         offset="1"
         id="stop3902" />
    </linearGradient>
    <linearGradient
       xlink:href="#linearGradient4159"
       id="linearGradient4158"
       x1="409.57101"
       y1="543.79797"
       x2="409.57101"
       y2="503.798"
       gradientUnits="userSpaceOnUse"
       gradientTransform="matrix(1.1250015,0,0,1,-51.071966,0)" />
    <linearGradient
       id="linearGradient4143">
      <stop
         style="stop-color:#197cf1;stop-opacity:1"
         offset="0"
         id="stop3906" />
      <stop
         style="stop-color:#20bcfa;stop-opacity:1"
         offset="1"
         id="stop3908" />
    </linearGradient>
    <linearGradient
       xlink:href="#linearGradient4143"
       id="linearGradient4555"
       x1="35"
       y1="44"
       x2="35"
       y2="7"
       gradientUnits="userSpaceOnUse" />
    <linearGradient
       id="linearGradient4159">
      <stop
         style="stop-color:#1d1e1e;stop-opacity:1"
         offset="0"
         id="stop3912" />
      <stop
         style="stop-color:#44484c;stop-opacity:1"
         offset="1"
         id="stop3914" />
    </linearGradient>
    <linearGradient
       id="linearGradient4435">
      <stop
         style="stop-color:#c61423;stop-opacity:1"
         offset="0"
         id="stop3917" />
      <stop
         style="stop-color:#dc2b41;stop-opacity:1"
         offset="1"
         id="stop3919" />
    </linearGradient>
    <linearGradient
       xlink:href="#linearGradient4435"
       id="linearGradient4866"
       x1="396.57101"
       y1="520.79797"
       x2="396.57101"
       y2="503.798"
       gradientUnits="userSpaceOnUse" />
    <linearGradient
       xlink:href="#linearGradient4227"
       id="linearGradient4884"
       x1="8"
       y1="4"
       x2="22"
       y2="18"
       gradientUnits="userSpaceOnUse" />
    <linearGradient
       id="linearGradient4227">
      <stop
         offset="0"
         style="stop-color:#292c2f;stop-opacity:1"
         id="stop3924" />
      <stop
         offset="1"
         style="stop-color:#000000;stop-opacity:0;"
         id="stop3926" />
    </linearGradient>
    <linearGradient
       xlink:href="#linearGradient5022"
       id="linearGradient5028"
       x1="396.57101"
       y1="527.79797"
       x2="396.57101"
       y2="504.798"
       gradientUnits="userSpaceOnUse" />
  </defs>
  <g
     transform="matrix(3.199841,0,0,3.199841,-1243.3613,-1612.0735)"
     id="g3950">
    <rect
       style="opacity:1;fill:url(#linearGradient4158);fill-opacity:1;stroke:none"
       width="36"
       height="40"
       x="390.57001"
       y="503.79999"
       ry="0"
       id="rect3932" />
    <path
       style="font-style:normal;font-variant:normal;font-weight:normal;font-stretch:normal;font-size:medium;line-height:125%;font-family:'Impregnable Personal Use Only';-inkscape-font-specification:'Impregnable Personal Use Only';letter-spacing:0px;word-spacing:0px;fill:url(#linearGradient4555);fill-opacity:1;stroke:none;stroke-width:1px;stroke-linecap:butt;stroke-linejoin:miter;stroke-opacity:1"
       d="m 42,6.7070312 c -1.096939,0.453249 -2.194079,1.0487232 -3.291016,1.828125 -1.844633,1.31066 -3.59172,2.9609048 -5.242187,4.9511718 -1.60192,1.94172 -3.058481,4.15126 -4.369141,6.626953 -1.26212,2.427154 -2.208783,4.950939 -2.839844,7.572266 -0.679599,2.62132 -0.970133,5.024544 -0.873046,7.208984 0.145626,2.135894 0.606125,3.932379 1.382812,5.388672 0.776693,1.456287 1.843925,2.499799 3.203125,3.130859 1.359207,0.63106 2.962001,0.751622 4.806641,0.363282 1.796086,-0.388347 3.616297,-1.236215 5.460937,-2.546875 C 40.842095,40.796962 41.425815,40.322841 42,39.830078 v -4.570312 c -0.362065,0.282134 -0.730533,0.550824 -1.105469,0.800781 -1.456293,0.92232 -2.865402,1.455936 -4.224609,1.601562 -1.407747,0.145634 -2.595546,-0.09746 -3.566406,-0.728515 -0.97086,-0.63106 -1.72384,-1.577724 -2.257813,-2.839844 -0.485433,-1.26212 -0.728515,-2.766125 -0.728515,-4.513672 -10e-7,-1.796093 0.290526,-3.738818 0.873046,-5.826172 0.582514,-2.087346 1.408616,-4.077523 2.476563,-5.970703 1.067947,-1.94172 2.232021,-3.641363 3.494141,-5.097656 1.310666,-1.504833 2.670378,-2.7183051 4.078124,-3.6406251 C 41.360608,8.8305578 41.680821,8.6448356 42,8.4707031 Z"
       transform="translate(384.57143,499.798)"
       id="path3934" />
    <rect
       style="opacity:1;fill:#080809;fill-opacity:1;stroke:none"
       width="36"
       height="1"
       x="390.57001"
       y="542.79999"
       id="rect3936" />
    <rect
       style="opacity:0.6;fill:#080809;fill-opacity:1;stroke:none;stroke-opacity:1"
       width="2"
       height="40"
       x="390.57001"
       y="503.79999"
       id="rect3938" />
    <path
       style="opacity:0.2;fill:url(#linearGradient4884);fill-opacity:1;fill-rule:evenodd;stroke:none;stroke-width:1px;stroke-linecap:butt;stroke-linejoin:miter;stroke-opacity:1"
       d="m 16,4 v 14 3 L 12,18.691406 8,21 31,44 H 42 V 30 Z"
       transform="translate(384.57143,499.798)"
       id="path3940" />
    <rect
       style="opacity:1;fill:#8b8f8f;fill-opacity:1;stroke:none;stroke-opacity:1"
       width="34"
       height="1"
       x="392.57001"
       y="541.79999"
       id="rect3942" />
    <rect
       style="opacity:1;fill:#212323;fill-opacity:0.451977;stroke:none;stroke-opacity:1"
       width="34"
       height="1"
       x="392.57001"
       y="540.79999"
       id="rect3944" />
    <path
       style="opacity:1;fill:url(#linearGradient4866);fill-opacity:1;stroke:none;stroke-opacity:1"
       d="m 392.57143,503.798 v 17 l 4,-2.30859 4,2.30859 v -17 z"
       id="path3946" />
    <path
       style="opacity:0.15;fill:url(#linearGradient5028);fill-opacity:1;stroke:none;stroke-opacity:1"
       d="m 393.57144,503.798 h 6 v 15 l -3,-2 -3,2 z"
       id="path3948" />
  </g>
</svg>
