<svg version="1.1" viewBox="0 0 128 128" xmlns="http://www.w3.org/2000/svg" xmlns:xlink="http://www.w3.org/1999/xlink">
  <defs>
    <linearGradient id="linearGradient4227-4">
      <stop stop-color="#292c2f" offset="0"/>
      <stop stop-opacity="0" offset="1"/>
    </linearGradient>
    <linearGradient id="linearGradient4421" x1="394.57144" x2="394.57144" y1="533.79797" y2="503.798" gradientUnits="userSpaceOnUse">
      <stop stop-color="#375a7d" offset="0"/>
      <stop stop-color="#3b85b5" offset="1"/>
    </linearGradient>
    <linearGradient id="linearGradient4560" x1="409.52841" x2="409.52841" y1="544.69434" y2="503.798" gradientUnits="userSpaceOnUse">
      <stop stop-color="#377d50" offset="0"/>
      <stop stop-color="#3bb566" offset="1"/>
    </linearGradient>
    <linearGradient id="linearGradient4568" x1="409.52841" x2="409.52841" y1="527.93024" y2="503.798" gradientUnits="userSpaceOnUse">
      <stop stop-color="#b7bf31" offset="0"/>
      <stop stop-color="#d7e04c" offset="1"/>
    </linearGradient>
    <linearGradient id="linearGradient4576" x1="388.57144" x2="408.19449" y1="517.06995" y2="517.06995" gradientUnits="userSpaceOnUse">
      <stop stop-color="#813c33" offset="0"/>
      <stop stop-color="#bf4231" offset="1"/>
    </linearGradient>
    <linearGradient id="linearGradient4586" x1="417.01505" x2="427.46817" y1="509.40427" y2="519.85736" gradientTransform="translate(-384.57143,-499.798)" gradientUnits="userSpaceOnUse">
      <stop stop-color="#172525" offset="0"/>
      <stop stop-color="#172525" stop-opacity="0" offset="1"/>
    </linearGradient>
    <linearGradient id="linearGradient4560-9" x1="419.23175" x2="424.57144" y1="533.79797" y2="539.1377" gradientTransform="translate(-384.57143,-499.798)" gradientUnits="userSpaceOnUse" xlink:href="#linearGradient4227-4"/>
    <linearGradient id="linearGradient4676" x1="399.57144" x2="407.57144" y1="507.798" y2="515.79797" gradientTransform="translate(-384.57143,-499.798)" gradientUnits="userSpaceOnUse" xlink:href="#linearGradient4227-4"/>
    <linearGradient id="linearGradient4817" x1="402.57144" x2="402.57144" y1="503.798" y2="533.79797" gradientUnits="userSpaceOnUse">
      <stop stop-color="#eff1f1" offset="0"/>
      <stop stop-color="#cfd5d5" offset="1"/>
    </linearGradient>
    <linearGradient id="linearGradient4216" x1="422.67142" x2="422.67142" y1="515.80634" y2="509.94629" gradientUnits="userSpaceOnUse">
      <stop stop-color="#68377d" offset="0"/>
      <stop stop-color="#432b4d" offset="1"/>
    </linearGradient>
  </defs>
  <g transform="translate(-384.57143,-499.798)">
    <g transform="matrix(3.1999936,0,0,3.1999936,-858.85453,-1112.3522)">
      <rect x="388.57144" y="503.798" width="40" height="30" fill="url(#linearGradient4817)"/>
      <path d="m388.57143 503.798v30h11.95703l8.99996-30h-20.95703z" fill="url(#linearGradient4421)" fill-rule="evenodd"/>
      <path transform="translate(384.57143,499.798)" d="M 17.646484,4 10.828125,9.90625 20.333984,19.412109 24.957031,4 Z" fill="url(#linearGradient4676)" opacity=".2"/>
      <path d="m411.6144 503.798-4.26949 14.23437 21.22656 7.86719v-22.10156h-16.95703z" fill="url(#linearGradient4568)" fill-rule="evenodd"/>
      <path transform="translate(384.57143,499.798)" d="M 44,7 30,8 27.230469,12.212891 39.421875,24.404297 44,26.101562 Z" fill="url(#linearGradient4586)" opacity=".2"/>
      <path d="m406.76674 519.95816-4.15234 13.83984h5.95703l11 10v-10h9v-5.73828z" fill="url(#linearGradient4560)" fill-rule="evenodd"/>
      <path d="m408.19448 508.24722c-7.99435 9.51275-19.62305 8.55078-19.62305 8.55078v4s3.85465 5.73685 14.3457 5.03516z" fill="url(#linearGradient4576)"/>
      <path d="m402.54701 515.36909c-0.76125 4e-3 -1.89368 1.28023-1.04173 1.9014 0.93345 0.6806 0.68332 1.41694 0.21599 1.60896-0.46733 0.19204-1.17807 0.0203-1.23889-1.12648-0.0579-1.09086-1.23468-1.74457-2.34369-0.11337-0.0685 0.17274-0.11969 0.34733-0.14398 0.52197-0.21912 1.57554 1.32109 3.11764 2.89663 3.33676 1.57555 0.21913 3.43534-1.15518 3.65446-2.73073 0.19047-1.36951-0.7223-2.88179-1.99877-3.3985zm-4.04796 1.61636c-0.0415 0.0584-0.0689 0.1202-0.10621 0.17996z" fill="#4d2f2b"/>
      <path transform="translate(384.57143,499.798)" d="M 23.623047,8.4492188 C 18.475992,13.852205 12.851826,15.719243 8.5136719,16.736328 8.997515,17.307147 9.8202397,18 11,18 c 2,0 3,-1 3,-1 0,0 2.61351,0.63518 6,-2 1.166329,-0.907577 1.984246,-2.011678 2.580078,-3.074219 z" fill="#eff1f1"/>
      <path transform="translate(384.57143,499.798)" d="m19.960938 20.652344c-0.738743 0.296279-1.639387 0.68688-2.960938 1.347656-2.231327 1.115664-4.078037 2.495382-5.339844 3.539062 2.061365 0.79565 4.230633 0.981473 6.685547 0.496094z" fill="#e05e4c"/>
      <path transform="translate(384.57143,499.798)" d="M 34.568359,24.757812 27.478516,37.162109 35,44 V 34 h 9 v -5.738281 z" fill="url(#linearGradient4560-9)" fill-rule="evenodd" opacity=".2"/>
      <path transform="translate(384.57143,499.798)" d="m33.621094 24.404297c-0.444199 0.617294-0.914119 1.433643-1.390625 2.462891-1.35384 2.924309-2.166383 6.065331-3.195313 5.957031-1.02892-0.10833-1.379069-0.538727-1.949218-1.191407-0.570151-0.652669-1.08311-1.841623-1.78711-2.220703s-0.865061-0.270946-1.24414-0.216797c-0.37908 0.0542-0.570086-0.06835-0.759766 0.433594-0.18966 0.50192 0.596417 1.51688 0.867187 2.4375 0.211921 0.720533 0.71643 1.902065 0.902344 2.902344l8.492188 7.71875c0.394591-0.191474 0.893155-0.449334 1.443359-0.802734v-7.884766h3.412109c0.784557-1.151618 2.338878-2.954898 2.753907-3.558594 0.434783-0.632403 1.237086-1.923238 1.36914-2.724609l-1.308594-0.484375c-0.445747 0.29389-0.968106 0.837845-1.630859 1.638672-1.29969 1.57045-2.869514 3.899148-3.302734 3.574218-0.43324-0.32492 1.353715-2.761571 2.166015-4.332031 0.28856-0.557886 0.568321-1.099094 0.800782-1.613281l-2.138672-0.792969c-0.444938 0.606164-0.82847 1.268259-1.044922 1.701172-0.54154 1.08308-1.95012 4.22495-2.4375 4.0625-0.48739-0.16246 0.324419-2.870409 1.136719-4.386719 0.334999-0.625339 0.663554-1.292153 0.90625-1.914062zm9.234375 7.679687c-0.192078 0.02285-0.442668 0.131174-0.767578 0.361328-0.587974 0.41648-1.405732 1.030022-2.15625 1.554688h2.765625c0.244897-0.263418 0.56631-0.595331 0.74414-0.796875 0.04065-0.48738-0.0097-1.187677-0.585937-1.119141z" fill="#ffc169"/>
      <path transform="translate(384.57143,499.798)" d="m35.445312 9.5625c-3.081279 0-6.445312 4.23121-6.445312 7.3125 0 1.73333 3.954424 2.220469 6.933594 2.599609 3.05664 0.38899 6.066406-2.117938 6.066406-5.199218 0-0.225383-0.02294-0.440595-0.05859-0.650391v-2e-3c-0.0017-0.01-0.0041-0.01937-0.0059-0.0293-7e-5 -3.89e-4 -0.0019-0.0016-2e-3 -2e-3 -0.434327-2.420794-3.142405-3.7748111-5.785156-3.982422-0.0026-2.076e-4 -0.0052-0.00175-0.0078-0.00195-0.232322-0.0179092-0.465575-0.044828-0.695242-0.044828z" fill="#eff1f1"/>
      <path d="m425.96515 505.798c-2.60628 0-7.39372 0-11.55636 1.86876-1.77221 0.79561-3.47504 3.47504-2.60628 4.3438 0.86876 0.86877 2.62159-1.69288 5.21255-2.60628 4.55637-1.60628 9.64811-2.40779 11.55637-2.63402v-0.57521c-0.54742-0.20395-1.37851-0.39705-2.60628-0.39705z" fill="#6c5548"/>
      <path d="m422.57325 509.74305a3.0333104 3.0333104 0 0 0-2.93515 3.02995 3.0333104 3.0333104 0 0 0 3.03333 3.03333 3.0333104 3.0333104 0 0 0 3.03333-3.03333 3.0333104 3.0333104 0 0 0-0.45872-1.60131c-0.71183-0.65675-1.65537-1.12791-2.67279-1.42864z" fill="url(#linearGradient4216)"/>
      <path transform="translate(384.57143,499.798)" d="m8.9003906 4c0.193645 2.0001139 0.8240356 4.129133 1.4531254 5.21875 1.24263 2.15231 3.494174 2.02388 5.646484 0.78125 2.15212-1.24264 3.389124-3.12894 2.146484-5.28125-0.125697-0.2177141-0.308807-0.4668564-0.5-0.71875z" fill="#54d883"/>
      <path transform="translate(384.57143,499.798)" d="m4 33v1h20l11 10v-1l-11-10h-5.957031zm31 0v1h9v-1z" fill="#172525" opacity=".2"/>
    </g>
  </g>
</svg>
