<?xml version="1.0" encoding="UTF-8" standalone="no"?>
<svg
   width="128"
   height="128"
   version="1.1"
   id="svg57"
   xmlns:xlink="http://www.w3.org/1999/xlink"
   xmlns="http://www.w3.org/2000/svg"
   xmlns:svg="http://www.w3.org/2000/svg">
  <defs
     id="defs31">
    <linearGradient
       id="a"
       y1="543.79999"
       y2="513.79999"
       x2="0"
       gradientUnits="userSpaceOnUse"
       gradientTransform="matrix(1.125,0,0,1,-51.07,0)">
      <stop
         stop-color="#197cf1"
         id="stop2" />
      <stop
         offset="1"
         stop-color="#20bcfa"
         id="stop4" />
    </linearGradient>
    <linearGradient
       xlink:href="#a"
       id="b"
       y1="44"
       y2="11"
       x2="0"
       gradientUnits="userSpaceOnUse"
       gradientTransform="translate(-6,-4)" />
    <linearGradient
       id="c"
       y1="10"
       y2="14"
       x2="0"
       gradientUnits="userSpaceOnUse"
       gradientTransform="translate(-6,-4)">
      <stop
         stop-color="#1d1e1e"
         id="stop8" />
      <stop
         offset="1"
         stop-color="#44484c"
         id="stop10" />
    </linearGradient>
    <linearGradient
       xlink:href="#a"
       id="d"
       y1="14"
       y2="10"
       gradientUnits="userSpaceOnUse"
       x2="0"
       gradientTransform="translate(-6,-4)" />
    <linearGradient
       xlink:href="#a"
       id="e"
       y1="516.79999"
       y2="503.79999"
       x2="0"
       gradientUnits="userSpaceOnUse"
       gradientTransform="translate(-390.57,-503.8)" />
    <linearGradient
       id="f"
       y1="18"
       y2="15"
       x2="0"
       gradientUnits="userSpaceOnUse">
      <stop
         stop-color="#c6cdd1"
         id="stop15" />
      <stop
         offset="1"
         stop-color="#e0e5e7"
         id="stop17" />
    </linearGradient>
    <linearGradient
       xlink:href="#f"
       id="g"
       y1="517.79999"
       y2="514.79999"
       x2="0"
       gradientUnits="userSpaceOnUse"
       gradientTransform="translate(-390.57,-503.8)" />
    <linearGradient
       id="h"
       y1="19"
       y2="3"
       x2="0"
       gradientUnits="userSpaceOnUse"
       gradientTransform="translate(7,14)">
      <stop
         stop-color="#7cbaf8"
         id="stop21" />
      <stop
         offset="1"
         stop-color="#f4fcff"
         id="stop23" />
    </linearGradient>
    <linearGradient
       id="i"
       y1="23"
       x1="16"
       y2="39"
       x2="32"
       gradientUnits="userSpaceOnUse"
       gradientTransform="translate(-6,-4)">
      <stop
         stop-color="#292c2f"
         id="stop26" />
      <stop
         offset="1"
         stop-opacity="0"
         id="stop28" />
    </linearGradient>
    <linearGradient
       xlink:href="#a"
       id="linearGradient4234"
       gradientUnits="userSpaceOnUse"
       gradientTransform="matrix(1.125,0,0,1,-441.64,-503.8)"
       y1="543.79999"
       x2="0"
       y2="513.79999" />
    <linearGradient
       xlink:href="#f"
       id="linearGradient4236"
       gradientUnits="userSpaceOnUse"
       y1="18"
       x2="0"
       y2="15"
       gradientTransform="translate(-6,-4)" />
  </defs>
  <g
     id="g8656"
     transform="matrix(3.2,0,0,3.2,6.3999883,0)">
    <path
       fill="url(#b)"
       fill-rule="evenodd"
       d="M 3,7 V 9 L 4,8 Z m 30,0 -1,1 1,1 z"
       id="path33"
       style="fill:url(#b)" />
    <rect
       width="36"
       x="7.3242186e-06"
       y="9.9999876"
       fill="url(#a)"
       rx="0"
       height="30"
       id="rect35"
       style="fill:url(#linearGradient4234)" />
    <path
       opacity="0.2"
       fill="url(#i)"
       d="m 14.707,19.293 -1.414,1.414 8,8 L 21,29 32,40 h 4 V 34 L 26,24 22.707,27.293 Z m -2.146,6.146 -2.121,2.121 5.5,5.5 -1.354,1.354 5.586,5.586 h 6.951 z"
       id="path37"
       style="fill:url(#i)" />
    <rect
       width="36"
       x="7.3242186e-06"
       y="38.999989"
       fill="#1c5593"
       height="1"
       id="rect39" />
    <path
       fill-rule="evenodd"
       fill="url(#d)"
       d="M 4,6 3,7 4,8 0,10 H 36 L 32,8 33,7 32,6 H 18 Z"
       id="path41"
       style="fill:url(#d)" />
    <path
       fill-rule="evenodd"
       d="M 4,6 3,7 4,8 0,10 H 36 L 32,8 33,7 32,6 H 18 Z"
       opacity="0.6"
       fill="url(#c)"
       id="path43"
       style="fill:url(#c)" />
    <path
       opacity="0.2"
       d="M 4,6 3,7 H 33 L 32,6 H 18 Z"
       id="path45" />
    <path
       fill="url(#e)"
       d="M 10,13 V 8 c 0,-4.432 3.568,-8 8,-8 4.432,0 8,3.568 8,8 v 5 H 25 V 8 C 25,4.122 21.878,1 18,1 14.122,1 11,4.122 11,8 v 5 z"
       id="path47"
       style="fill:url(#e)" />
    <path
       fill="url(#g)"
       d="m 10.50143,10.998 a 1.5,1.5 0 0 1 1.5,1.5 1.5,1.5 0 0 1 -1.5,1.5 1.5,1.5 0 0 1 -1.5,-1.5 1.5,1.5 0 0 1 1.5,-1.5 m 0,1 a 0.5,0.5 0 0 0 -0.5,0.5 0.5,0.5 0 0 0 0.5,0.5 0.5,0.5 0 0 0 0.5,-0.5 0.5,0.5 0 0 0 -0.5,-0.5"
       id="path49"
       style="fill:url(#g)" />
    <path
       fill="url(#f)"
       d="M 25.5,11 A 1.5,1.5 0 0 0 24,12.5 1.5,1.5 0 0 0 25.5,14 1.5,1.5 0 0 0 27,12.5 1.5,1.5 0 0 0 25.5,11 m 0,1 A 0.5,0.5 0 0 1 26,12.5 0.5,0.5 0 0 1 25.5,13 0.5,0.5 0 0 1 25,12.5 0.5,0.5 0 0 1 25.5,12"
       id="path51"
       style="fill:url(#linearGradient4236)" />
    <path
       fill="url(#h)"
       d="m 14,19 c -0.554,0 -1,0.446 -1,1 0,0.554 0.446,1 1,1 0.554,0 1,-0.446 1,-1 0,-0.554 -0.446,-1 -1,-1 m 7,0 -2,2 3,3 -3,3 2,2 5,-5 z m -9.5,6 C 10.669,25 10,25.669 10,26.5 10,27.331 10.669,28 11.5,28 12.331,28 13,27.331 13,26.5 13,25.669 12.331,25 11.5,25 m 4.5,6 c -1.108,0 -2,0.892 -2,2 0,1.108 0.892,2 2,2 1.108,0 2,-0.892 2,-2 0,-1.108 -0.892,-2 -2,-2"
       id="path53"
       style="fill:url(#h)" />
  </g>
</svg>
