<?xml version="1.0" encoding="UTF-8" standalone="no"?>
<!-- Created with Inkscape (http://www.inkscape.org/) -->

<svg
   width="128"
   version="1.1"
   height="128"
   id="svg6574"
   xmlns:xlink="http://www.w3.org/1999/xlink"
   xmlns="http://www.w3.org/2000/svg"
   xmlns:svg="http://www.w3.org/2000/svg">
  <defs
     id="defs5455">
    <linearGradient
       id="linearGradient4303">
      <stop
         style="stop-color:#c6cdd1"
         id="stop4305" />
      <stop
         offset="1"
         style="stop-color:#e0e5e7"
         id="stop4307" />
    </linearGradient>
    <linearGradient
       xlink:href="#linearGradient4159"
       id="linearGradient4298"
       y1="545.79797"
       y2="517.79797"
       x2="0"
       gradientUnits="userSpaceOnUse"
       gradientTransform="matrix(4.5714243,0,0,4.5714243,-1382.6106,-1851.2762)" />
    <linearGradient
       id="linearGradient4159">
      <stop
         style="stop-color:#2a2c2f"
         id="stop4161" />
      <stop
         offset="1"
         style="stop-color:#424649"
         id="stop4163" />
    </linearGradient>
    <linearGradient
       xlink:href="#linearGradient4303"
       id="linearGradient4381"
       y1="543.79797"
       y2="518.79797"
       x2="0"
       gradientUnits="userSpaceOnUse"
       gradientTransform="matrix(4.1739045,0,0,4.3726617,-1221.9843,-1743.3881)" />
    <linearGradient
       id="linearGradient4227">
      <stop
         style="stop-color:#292c2f"
         id="stop4229" />
      <stop
         offset="1"
         style="stop-opacity:0"
         id="stop4231" />
    </linearGradient>
    <linearGradient
       xlink:href="#linearGradient4227"
       id="linearGradient4173"
       y1="524.79797"
       x1="393.57144"
       y2="538.79797"
       x2="407.57147"
       gradientUnits="userSpaceOnUse"
       gradientTransform="matrix(4.5714243,0,0,4.5714243,-1382.6106,-1851.2762)" />
    <linearGradient
       xlink:href="#linearGradient4159"
       id="linearGradient4340"
       y1="20"
       y2="11"
       x2="0"
       gradientUnits="userSpaceOnUse"
       gradientTransform="matrix(4.5714243,0,0,4.5714243,375.42858,511.22674)" />
    <linearGradient
       xlink:href="#linearGradient4227"
       id="linearGradient4372"
       y1="14"
       x1="10"
       y2="25"
       x2="21"
       gradientUnits="userSpaceOnUse"
       gradientTransform="matrix(4.5714243,0,0,4.5714243,375.42858,506.65531)" />
    <linearGradient
       xlink:href="#linearGradient4159"
       id="linearGradient6671"
       gradientUnits="userSpaceOnUse"
       gradientTransform="matrix(4.5714243,0,0,4.5714243,375.42858,511.22674)"
       y1="20"
       x2="0"
       y2="11" />
    <linearGradient
       xlink:href="#linearGradient4159"
       id="linearGradient6673"
       gradientUnits="userSpaceOnUse"
       gradientTransform="matrix(4.5714243,0,0,4.5714243,375.42858,511.22674)"
       y1="20"
       x2="0"
       y2="11" />
    <linearGradient
       xlink:href="#linearGradient4159"
       id="linearGradient6675"
       gradientUnits="userSpaceOnUse"
       gradientTransform="matrix(4.5714243,0,0,4.5714243,375.42858,511.22674)"
       y1="20"
       x2="0"
       y2="11" />
  </defs>
  <metadata
     id="metadata5458" />
  <g
     id="layer1"
     transform="translate(-384.57143,-515.798)">
    <rect
       width="73.142738"
       x="412.00003"
       y="515.79803"
       height="127.99988"
       style="fill:url(#linearGradient4298);stroke-width:0.5;stroke:none;stroke-opacity:1;stroke-miterlimit:4;stroke-dasharray:none"
       id="rect4232" />
    <path
       style="opacity:0.2;fill:url(#linearGradient4173);fill-rule:evenodd;stroke-width:4.57142"
       id="path4164"
       d="m 480.57134,529.51243 -63.99994,100.57134 13.71427,13.71427 h 54.85709 V 534.08386 Z" />
    <rect
       width="73.142738"
       x="412.00003"
       y="639.2265"
       height="4.5714245"
       style="fill:#1c1e20;stroke-width:4.57142"
       id="rect4180" />
    <rect
       width="63.999939"
       x="416.57144"
       y="529.51233"
       height="100.57133"
       style="fill:url(#linearGradient4381);stroke-width:4.57142"
       id="rect4300" />
    <rect
       width="27.428545"
       x="434.85715"
       y="520.36945"
       height="4.5714245"
       style="fill:#212324;stroke-width:4.57142"
       id="rect4607" />
    <path
       style="opacity:0.2;fill:url(#linearGradient4372);stroke-width:4.57142"
       id="rect4345"
       d="m 443.3303,562.18204 -3.23214,3.23215 20.57141,20.5714 -2.95535,2.95536 22.85712,22.85712 4.57142,4.57142 v -27.42854 l -13.71427,-13.71428 -7.52678,7.52678 z m -5.24107,14.38392 -6.46427,6.46428 13.71427,13.71427 -3.91071,3.91071 42.02674,42.01782 1.6875,-1.6875 v -16.0357 l -2.46428,-2.46428 0.66964,-0.66964 z" />
    <path
       style="fill:url(#linearGradient6671);stroke-width:4.57142"
       id="path4353"
       d="m 441.71423,561.5124 c -1.26235,0 -2.28571,1.02336 -2.28571,2.28571 0,1.26236 1.02336,2.28572 2.28571,2.28572 1.26236,0 2.28571,-1.02336 2.28571,-2.28572 0,-1.26235 -1.02335,-2.28571 -2.28571,-2.28571 z" />
    <path
       style="fill:url(#linearGradient6673);stroke-width:4.57142"
       id="path4351"
       d="m 457.71422,561.5124 -4.57143,4.57143 9.14285,9.14285 -9.14285,9.14284 4.57143,4.57143 9.14285,-9.14285 4.57142,-4.57142 -4.57142,-4.57143 z" />
    <path
       style="fill:url(#linearGradient6675);stroke-width:4.57142"
       id="path4349"
       d="m 434.8571,575.22668 c -2.52471,0 -4.57143,2.04671 -4.57143,4.57142 0,2.52471 2.04672,4.57142 4.57143,4.57142 2.5247,0 4.57142,-2.04671 4.57142,-4.57142 0,-2.52471 -2.04672,-4.57142 -4.57142,-4.57142 z" />
    <path
       style="fill:url(#linearGradient4340);stroke-width:4.57142"
       id="path4327"
       d="m 446.28566,588.94095 c -3.78711,0 -6.85714,3.07003 -6.85714,6.85713 0,3.78711 3.07003,6.85714 6.85714,6.85714 3.7871,0 6.85713,-3.07003 6.85713,-6.85714 0,-3.7871 -3.07003,-6.85713 -6.85713,-6.85713 z" />
  </g>
</svg>
