<?xml version="1.0" encoding="UTF-8" standalone="no"?>
<svg
   width="128"
   height="128"
   version="1.1"
   id="svg68"
   xmlns:xlink="http://www.w3.org/1999/xlink"
   xmlns="http://www.w3.org/2000/svg"
   xmlns:svg="http://www.w3.org/2000/svg">
  <defs
     id="defs32">
    <linearGradient
       id="a"
       y1="536.79999"
       y2="503.79999"
       x2="0"
       gradientUnits="userSpaceOnUse">
      <stop
         stop-color="#2a2c2f"
         id="stop2" />
      <stop
         offset="1"
         stop-color="#424649"
         id="stop4" />
    </linearGradient>
    <linearGradient
       id="b"
       y1="547.79999"
       y2="536.79999"
       x2="0"
       gradientUnits="userSpaceOnUse"
       gradientTransform="matrix(1,0,0,0.54545,0,244)">
      <stop
         stop-color="#c6cdd1"
         id="stop7" />
      <stop
         offset="1"
         stop-color="#e0e5e7"
         id="stop9" />
    </linearGradient>
    <linearGradient
       id="c"
       y1="5.342"
       x1="42.799"
       y2="31.357"
       x2="11.999"
       gradientUnits="userSpaceOnUse">
      <stop
         stop-color="#4ce0c6"
         id="stop12" />
      <stop
         offset="1"
         stop-color="#3b85b5"
         id="stop14" />
    </linearGradient>
    <linearGradient
       id="d"
       y1="22.346001"
       x1="29.855"
       y2="28.506001"
       x2="54.32"
       gradientUnits="userSpaceOnUse">
      <stop
         stop-color="#ffc169"
         id="stop17" />
      <stop
         offset="1"
         stop-color="#ffa92d"
         id="stop19" />
    </linearGradient>
    <linearGradient
       id="e"
       y1="41.220001"
       x1="24.392"
       y2="25.343"
       x2="20.643"
       gradientUnits="userSpaceOnUse">
      <stop
         stop-color="#334545"
         id="stop22" />
      <stop
         offset="1"
         stop-color="#536161"
         id="stop24" />
    </linearGradient>
    <linearGradient
       xlink:href="#e"
       id="f"
       y1="568.79999"
       x1="431.57001"
       y2="562.79999"
       x2="439.57001"
       gradientUnits="userSpaceOnUse"
       gradientTransform="matrix(-1,0,0,1,839.14,-40)" />
    <linearGradient
       xlink:href="#e"
       id="g"
       y1="40.898998"
       x1="56.029999"
       y2="32.474998"
       x2="40.646999"
       gradientUnits="userSpaceOnUse" />
    <linearGradient
       xlink:href="#e"
       id="h"
       y1="32.150002"
       x1="60.895"
       y2="27.059999"
       x2="53.41"
       gradientUnits="userSpaceOnUse" />
    <linearGradient
       xlink:href="#e"
       id="i"
       y1="36.527"
       x1="33.32"
       y2="31.348"
       x2="24.780001"
       gradientUnits="userSpaceOnUse" />
    <linearGradient
       xlink:href="#e"
       id="j"
       y1="36.764999"
       x1="34"
       y2="49.570999"
       x2="40.25"
       gradientUnits="userSpaceOnUse" />
    <linearGradient
       xlink:href="#e"
       id="linearGradient887"
       gradientUnits="userSpaceOnUse"
       x1="24.392"
       y1="41.220001"
       x2="20.643"
       y2="25.343" />
  </defs>
  <g
     transform="matrix(2.6666667,0,0,2.6666667,-1025.52,-1332.8)"
     id="g66">
    <g
       stroke-opacity="0.55"
       stroke-width="2.8"
       id="g38">
      <path
         fill="url(#b)"
         d="m 402.57,536.8 v 6 h 12 v -6 z"
         id="path34"
         style="fill:url(#b)" />
      <rect
         width="48"
         x="384.57001"
         y="503.79999"
         fill="url(#a)"
         height="36"
         id="rect36"
         style="fill:url(#a)" />
    </g>
    <g
       transform="matrix(0.91667,0,0,0.91667,34.05,43.983)"
       id="g60">
      <path
         fill="url(#c)"
         d="M 12,6 V 36 H 56 V 6 Z"
         transform="matrix(1.09091,0,0,1.09091,371.48,497.25)"
         id="path40"
         style="fill:url(#c)" />
      <g
         stroke-width="2"
         id="g58">
        <path
           fill="url(#d)"
           d="M 56,6 25.72,23.482 47.402,36 h 8.6 z"
           transform="matrix(1.09091,0,0,1.09091,371.48,497.25)"
           id="path42"
           style="fill:url(#d)" />
        <path
           fill="url(#e)"
           d="M 25.75,23.416 12,31.355 V 36 h 35.605 z"
           transform="matrix(1.09091,0,0,1.09091,371.48,497.25)"
           id="path44"
           style="fill:url(#linearGradient887)" />
        <path
           fill="url(#f)"
           d="m 407.83,527.57 -8.259,-4.768 v 9.536 z"
           id="path46"
           style="fill:url(#f)" />
        <path
           fill="url(#g)"
           d="m 40.891,32.16 v 3.844 h 6.656 z"
           transform="matrix(1.09091,0,0,1.09091,371.48,497.25)"
           id="path48"
           style="fill:url(#g)" />
        <path
           fill="url(#h)"
           d="M 53.32,27.787 V 36 h 0.916 l 6.654,-3.842 z"
           transform="matrix(1.09091,0,0,1.09091,349.66,497.25)"
           id="path50"
           style="fill:url(#h)" />
        <path
           fill="url(#i)"
           d="m 25.75,32.16 v 3.842 h 6.654 z"
           transform="matrix(1.09091,0,0,1.09091,371.48,497.25)"
           id="path52"
           style="fill:url(#i)" />
        <path
           fill="url(#j)"
           d="m 40.891,32.16 -6.656,3.844 h 6.656 z"
           transform="matrix(1.09091,0,0,1.09091,371.48,497.25)"
           id="path54"
           style="fill:url(#j)" />
        <path
           fill="#ffa92d"
           d="m 399.54,522.87 33.03,-19.07 v 9.317 z"
           id="path56" />
      </g>
    </g>
    <rect
       width="22"
       x="397.57001"
       y="541.79999"
       stroke-opacity="0.55"
       fill="#99a1a7"
       height="2"
       stroke-width="2.8"
       id="rect62" />
    <path
       fill="#ffffff"
       stroke-width="0.1"
       d="m 387.57,506.8 v 5 h 1 v -4 h 4 v -1 z m 37,0 v 1 h 4 v 4 h 1 v -5 z m -18,7 v 3 h -2 v 11 h 13 v -11 h -2 v -3 z m 1,1 h 7 v 2 h -7 z m -8,2 v 11 h 4 v -11 z m 11.5,1 c 2.493,0 4.5,2.01 4.5,4.5 0,2.493 -2.01,4.5 -4.5,4.5 -2.493,0 -4.5,-2.01 -4.5,-4.5 0,-2.493 2.01,-4.5 4.5,-4.5 m 0,1 c -1.939,0 -3.5,1.561 -3.5,3.5 0,1.939 1.561,3.5 3.5,3.5 1.939,0 3.5,-1.561 3.5,-3.5 0,-1.939 -1.561,-3.5 -3.5,-3.5 m -23.5,11 v 5 h 5 v -1 h -4 v -4 z m 41,0 v 4 h -4 v 1 h 5 v -5 z"
       id="path64" />
  </g>
</svg>
