<svg version="1.1" viewBox="0 0 128 128" xmlns="http://www.w3.org/2000/svg" xmlns:xlink="http://www.w3.org/1999/xlink">
  <defs>
    <linearGradient id="shadow-3">
      <stop stop-color="#31363b" stop-opacity=".208" offset="0"/>
      <stop stop-color="#31363b" stop-opacity="0" offset="1"/>
    </linearGradient>
    <linearGradient id="linearGradient4199" x1="21.969" x2="35.969002" y1="1035.3621" y2="1049.3621" gradientTransform="translate(10,-14.000047)" gradientUnits="userSpaceOnUse" xlink:href="#shadow-3"/>
    <linearGradient id="linearGradient4203" x1="23" x2="36" y1="1035.3621" y2="1048.3621" gradientTransform="translate(13,-1021.3622)" gradientUnits="userSpaceOnUse" xlink:href="#shadow-3"/>
    <linearGradient id="linearGradient4227" x1="21.475" x2="34.474998" y1="1035.158" y2="1048.158" gradientTransform="translate(-15.75,-1005.8622)" gradientUnits="userSpaceOnUse" xlink:href="#shadow-3"/>
    <linearGradient id="linearGradient4351" x1="24" x2="24" y1="1008.362" y2="1048.3621" gradientUnits="userSpaceOnUse">
      <stop stop-color="#054e87" offset="0"/>
      <stop stop-color="#1d99f3" offset="1"/>
    </linearGradient>
    <linearGradient id="linearGradient4373" x1="21.084999" x2="35.969002" y1="1036.975" y2="1049.3621" gradientTransform="translate(5.9783302,-17.513484)" gradientUnits="userSpaceOnUse" xlink:href="#shadow-3"/>
    <linearGradient id="linearGradient4377" x1="21.084999" x2="35.969002" y1="1036.975" y2="1049.3621" gradientTransform="translate(-6.3297472,-4.8518532)" gradientUnits="userSpaceOnUse" xlink:href="#shadow-3"/>
    <linearGradient id="linearGradient4381" x1="21.969" x2="35.969002" y1="1035.3621" y2="1049.3621" gradientTransform="translate(-2.8703079,-1.1698725)" gradientUnits="userSpaceOnUse" xlink:href="#shadow-3"/>
  </defs>
  <g transform="matrix(3.2,0,0,3.1999888,-12.8,-3226.7473)">
    <circle cx="24" cy="1028.3621" r="20" fill="url(#linearGradient4351)"/>
    <g fill-rule="evenodd">
      <path d="m26.586 1028.0254 8.104641-0.4201 1.91027-6.7552-5.59099-4.4419-6.871493 5.8329z" fill="url(#linearGradient4373)"/>
      <path d="m31.027515 1028.3568 3.972485-0.9946 1.976562-2.9766-4-4-4.949047 4.9712z" fill="url(#linearGradient4199)"/>
      <path transform="translate(0,1004.3622)" d="m35.923828 13.330078c1.283166 1.345864 2.076172 3.163575 2.076172 5.169922-1e-6 4.142136-3.357865 7.5-7.5 7.5-0.203438-0.0015-0.406734-0.01127-0.609375-0.0293l-5.896484 5.111328c-0.0083 0.739616-0.153346 1.471317-0.427735 2.158203-1.23712 3.074359-4.732395 4.563589-7.80664 3.326172-0.24293-0.09775-0.470788-0.215212-0.69336-0.339844-0.04331-0.0244-0.08621-0.04875-0.128906-0.07422-0.211403-0.125374-0.414371-0.260582-0.605469-0.408203-0.0063-0.0049-0.01326-0.0088-0.01953-0.01367l-0.01172 2e-3 8.19336 8.193359c0.500843 0.043566 1.003152 0.068371 1.505859 0.074175a20 20 0 0 0 1.310547-0.04687c0.06663-0.0043 0.132772-0.01066 0.199219-0.01563a20 20 0 0 0 1.845703-0.222656c0.03199-0.0054 0.06377-0.01202 0.0957-0.01758a20 20 0 0 0 1.396484-0.3125c0.240477-0.05998 0.481808-0.116947 0.71875-0.185547a20 20 0 0 0 1.216797-0.404297c0.221103-0.07984 0.444706-0.154851 0.662109-0.242188a20 20 0 0 0 1.148441-0.51367c0.219324-0.104692 0.441427-0.204047 0.65625-0.316406a20 20 0 0 0 1.03125-0.591797c0.231705-0.139379 0.46789-0.271541 0.693359-0.419921a20 20 0 0 0 0.953125-0.685547c0.206289-0.153802 0.419094-0.299475 0.619141-0.460938a20 20 0 0 0 0.908203-0.796875c0.190109-0.173313 0.387023-0.339092 0.570313-0.519531a20 20 0 0 0 0.833984-0.892578c0.163426-0.181706 0.335418-0.355335 0.492187-0.542969a20 20 0 0 0 0.863282-1.136719c0.102363-0.141895 0.215754-0.275269 0.314453-0.419922a20 20 0 0 0 3.371094-9.257812c6.3e-5 -6.43e-4 -6.4e-5 -0.0013 0-2e-3a20 20 0 0 0 0-0.0059 20 20 0 0 0 0.099609-1.990147 20 20 0 0 0-0.220703-2.814453z" fill="url(#linearGradient4203)"/>
      <path d="m15.316486 1040.0683 6.358971-0.6411 1.357843-7.5507-6.629553-1.7681-3.799998 4.5733z" fill="url(#linearGradient4377)"/>
      <path d="m16.985332 1040.2339 3.972485-0.4165 2.210937-3.4453-3.0625-3.1563-6.933422 3.9868z" fill="url(#linearGradient4381)"/>
      <path transform="translate(0,1004.3622)" d="m5.7695312 29.3125 13.59375 14.119141a20 20 0 0 0 3.13086 0.49414l-8.19336-8.193359-2.001953-4.97461z" fill="url(#linearGradient4227)"/>
    </g>
    <g fill="#fff">
      <path transform="translate(0,1004.3622)" d="m30.5 11c-4.142135 0-7.499999 3.357864-7.5 7.5 0.0017 0.201484 0.01143 0.402819 0.0293 0.603516-1.289636 1.575722-4.80544 5.546997-5.113281 5.902343-2.416761 0.03284-4.577852 1.51258-5.482422 3.753907-1.237432 3.074241 0.2518 6.569519 3.326172 7.80664 3.074245 1.237417 6.56952-0.251813 7.80664-3.326172 0.274389-0.686886 0.419405-1.418587 0.427735-2.158203l5.896484-5.111328c0.202641 0.018027 0.405934 0.0278 0.609372 0.029297 4.142135 0 7.499999-3.357864 7.5-7.5-1e-6 -4.142136-3.357865-7.5-7.5-7.5zm0 3c2.48528 0 4.499999 2.014718 4.5 4.5-1e-6 2.485282-2.01472 4.5-4.5 4.5s-4.499999-2.014718-4.5-4.5c1e-6 -2.485282 2.01472-4.5 4.5-4.5zm-12.453125 13c0.496175 0.0058 0.986949 0.103774 1.447266 0.289062 2.049689 0.825003 3.042263 3.155585 2.216797 5.205079-0.825003 2.049668-3.155579 3.04224-5.205079 2.216797-2.049689-0.825003-3.042263-3.155585-2.216797-5.205079 0.616065-1.530232 2.108331-2.525334 3.757813-2.505859z"/>
      <circle cx="30.5" cy="1022.862" r="3.5"/>
      <path transform="translate(0,1004.3622)" d="M 5.0722656,22.564453 A 19,19 0 0 0 5,24 19,19 0 0 0 5.7695312,29.3125 l 11.1113278,4.470703 a 3,3 0 0 0 3.902344,-1.664062 3,3 0 0 0 -1.664062,-3.902344 z"/>
    </g>
  </g>
</svg>
