<?xml version="1.0" encoding="UTF-8" standalone="no"?>
<svg
   width="128"
   height="128"
   id="svg2"
   version="1.1"
   xmlns:xlink="http://www.w3.org/1999/xlink"
   xmlns="http://www.w3.org/2000/svg"
   xmlns:svg="http://www.w3.org/2000/svg"
   xmlns:rdf="http://www.w3.org/1999/02/22-rdf-syntax-ns#"
   xmlns:cc="http://creativecommons.org/ns#"
   xmlns:dc="http://purl.org/dc/elements/1.1/">
  <metadata
     id="metadata62">
    <rdf:RDF>
      <cc:Work
         rdf:about="">
        <dc:format>image/svg+xml</dc:format>
        <dc:type
           rdf:resource="http://purl.org/dc/dcmitype/StillImage" />
      </cc:Work>
    </rdf:RDF>
  </metadata>
  <defs
     id="defs4">
    <linearGradient
       gradientTransform="translate(-384.57,-499.8)"
       gradientUnits="userSpaceOnUse"
       x2="411.57001"
       y2="537.79999"
       x1="392.57001"
       y1="518.79999"
       id="linearGradient4199">
      <stop
         id="stop4201"
         stop-color="#292c2f"
         style="stop-color:#00267a;stop-opacity:1" />
      <stop
         id="stop4203"
         stop-opacity="0"
         offset="1" />
    </linearGradient>
    <linearGradient
       id="c"
       y1="518.79999"
       x1="392.57001"
       y2="537.79999"
       x2="411.57001"
       gradientUnits="userSpaceOnUse"
       gradientTransform="translate(-384.57,-499.8)">
      <stop
         stop-color="#292c2f"
         id="stop17" />
      <stop
         offset="1"
         stop-opacity="0"
         id="stop19" />
    </linearGradient>
    <linearGradient
       xlink:href="#linearGradient4219"
       id="linearGradient4243"
       x1="10"
       y1="24"
       x2="38"
       y2="24"
       gradientUnits="userSpaceOnUse"
       gradientTransform="matrix(1.1428571,0,0,1.1428565,-7.428571,-7.4285469)" />
    <linearGradient
       id="linearGradient4219">
      <stop
         style="stop-color:#eff0f1;stop-opacity:1"
         offset="0"
         id="stop4221" />
      <stop
         style="stop-color:#fcfcfc;stop-opacity:1"
         offset="1"
         id="stop4223" />
    </linearGradient>
    <linearGradient
       xlink:href="#c"
       id="linearGradient5926"
       x1="15.866084"
       y1="23.893206"
       x2="23.068089"
       y2="23.893206"
       gradientUnits="userSpaceOnUse"
       gradientTransform="matrix(1.1764708,0,0,1.1764702,-8.2353,-8.2352912)" />
    <linearGradient
       xlink:href="#linearGradient4199"
       id="linearGradient4471"
       x1="10"
       y1="10"
       x2="41.703552"
       y2="41.703552"
       gradientUnits="userSpaceOnUse"
       gradientTransform="matrix(1.1764708,0,0,1.1764702,-8.2353,-8.2352912)" />
    <linearGradient
       xlink:href="#linearGradient4199"
       id="linearGradient4461"
       x1="10"
       y1="10"
       x2="44"
       y2="44"
       gradientUnits="userSpaceOnUse"
       gradientTransform="matrix(1.1764708,0,0,1.1764702,-8.2353,-8.2352912)" />
    <linearGradient
       xlink:href="#c"
       id="linearGradient4451"
       x1="23.906326"
       y1="22.994661"
       x2="42"
       y2="42"
       gradientUnits="userSpaceOnUse"
       gradientTransform="matrix(1.1764708,0,0,1.1764702,-8.2353,-8.2352912)" />
    <linearGradient
       xlink:href="#linearGradient4211"
       id="linearGradient4217"
       x1="408.57001"
       y1="540.79999"
       x2="408.57001"
       y2="506.79999"
       gradientUnits="userSpaceOnUse"
       gradientTransform="matrix(1.1764708,0,0,1.1764702,-460.67066,-596.23508)" />
    <linearGradient
       id="linearGradient4211">
      <stop
         style="stop-color:#2980b9;stop-opacity:1"
         offset="0"
         id="stop4213" />
      <stop
         style="stop-color:#3498db;stop-opacity:1"
         offset="1"
         id="stop4215" />
    </linearGradient>
  </defs>
  <g
     id="g7845"
     transform="matrix(3.2,0,0,3.2,-7.6293945e-7,-2.2888184e-6)">
    <rect
       ry="0"
       y="0"
       x="0"
       height="40"
       width="40"
       id="rect4194-3"
       style="opacity:1;fill:url(#linearGradient4217);fill-opacity:1;stroke:none;stroke-width:2;stroke-miterlimit:4;stroke-dasharray:none;stroke-opacity:1" />
    <path
       style="opacity:0.2;fill:url(#linearGradient4451);fill-opacity:1;fill-rule:evenodd;stroke:none;stroke-width:1px;stroke-linecap:butt;stroke-linejoin:miter;stroke-opacity:1"
       d="M 36,4 34,6 35.293236,35.293221 6,34 4,36 6.002837,38.943178 H 39.999002 L 40,8 Z"
       id="path25" />
    <path
       style="opacity:0.2;fill:url(#linearGradient4461);fill-opacity:1;fill-rule:evenodd;stroke:none;stroke-width:1px;stroke-linecap:butt;stroke-linejoin:miter;stroke-opacity:1"
       d="M 4.8345552,11.773892 6,13 l 5.472885,5.591445 3.414522,7.681523 h 0.445772 l 0.11325,6.271676 L 17,34 17.693017,35.294104 H 35.294123 V 25.921405 H 28.226107 L 24.696695,12.881428 22.00368,22.302381 19.432447,12.941171 15.81342,25.56295 14.168201,24.607069 11.027115,11.773892 Z"
       id="path27" />
    <path
       style="opacity:0.2;fill:url(#linearGradient4471);fill-opacity:1;fill-rule:evenodd;stroke:none;stroke-width:1px;stroke-linecap:butt;stroke-linejoin:miter;stroke-opacity:1"
       d="m 19.508961,8.58487 5.214877,4.893559 -0.152409,-4.906985 10.722691,10.301133 v 7.049646 h -7.068796 l -3.14806,-11.748715 -2.885453,4.997749 -2.708651,-4.69152 z"
       id="path29" />
    <path
       style="opacity:0.2;fill:url(#linearGradient5926);fill-opacity:1;fill-rule:evenodd;stroke:none;stroke-width:1px;stroke-linecap:butt;stroke-linejoin:miter;stroke-opacity:1"
       d="m 12,11 6.247541,6.071064 -2.88692,10.774122 -4.298595,-16.042572 z"
       id="path31" />
    <rect
       style="opacity:0.504;fill:#1f3c64;fill-opacity:1;stroke:none;stroke-width:2;stroke-miterlimit:4;stroke-dasharray:none;stroke-opacity:0.7393"
       id="rect4175"
       width="40"
       height="1.0558066"
       x="4.7683716e-07"
       y="38.944195" />
    <path
       style="opacity:1;fill:url(#linearGradient4243);fill-opacity:1;stroke:none;stroke-width:2;stroke-miterlimit:4;stroke-dasharray:none;stroke-opacity:1"
       d="M 4,4.0000185 V 36 H 36 V 4.0000185 Z M 6,6 H 34 V 25 H 29 L 25.754463,12.986619 24.571429,8.571444 h -0.0022 l -1.183034,4.417407 -1.348216,5.035711 -1.149552,-4.290174 -0.200894,-0.745537 v -0.0022 L 19.508961,8.58487 15.45098,23.730003 12,11 H 6 Z m 0,7 h 4 l 4.263393,15.1317 1.183036,4.412944 1.183035,-4.41071 v -0.0022 l 2.875,-10.729905 1.350447,5.037945 1.183035,4.417461 1.183036,-4.417408 1.348215,-5.035711 L 27,27 h 3 3 1 v 7 H 6 Z"
       id="path34" />
  </g>
</svg>
