<?xml version="1.0" encoding="UTF-8" standalone="no"?>
<svg
   viewBox="0 0 128 128"
   version="1.1"
   id="svg40"
   width="128"
   height="128"
   xmlns:xlink="http://www.w3.org/1999/xlink"
   xmlns="http://www.w3.org/2000/svg"
   xmlns:svg="http://www.w3.org/2000/svg">
  <defs
     id="defs44" />
  <linearGradient
     id="a">
    <stop
       stop-color="#fff"
       offset="0"
       id="stop2" />
    <stop
       stop-color="#f5f5f5"
       offset="1"
       id="stop4" />
  </linearGradient>
  <linearGradient
     id="b"
     x1="13"
     x2="42"
     y1="14"
     y2="43"
     gradientUnits="userSpaceOnUse">
    <stop
       stop-color="#ffb24d"
       offset="0"
       id="stop7" />
    <stop
       stop-color="#ffa733"
       offset=".36206895"
       id="stop9" />
    <stop
       stop-color="#f28100"
       offset="1"
       id="stop11" />
  </linearGradient>
  <linearGradient
     id="c"
     x1="23"
     x2="42"
     y1="25"
     y2="44"
     gradientUnits="userSpaceOnUse">
    <stop
       stop-color="#e5840b"
       offset="0"
       id="stop14" />
    <stop
       stop-color="#f27a00"
       offset="1"
       id="stop16" />
  </linearGradient>
  <linearGradient
     id="d"
     x1="15"
     x2="25"
     y1="27"
     y2="37"
     gradientUnits="userSpaceOnUse"
     xlink:href="#a" />
  <linearGradient
     id="e"
     x1="19"
     x2="27"
     y1="13"
     y2="21"
     gradientUnits="userSpaceOnUse"
     xlink:href="#a" />
  <linearGradient
     id="f"
     x1="16"
     x2="34"
     y1="22"
     y2="28"
     gradientUnits="userSpaceOnUse">
    <stop
       stop-color="#ffb24d"
       offset="0"
       id="stop21" />
    <stop
       stop-color="#ffa733"
       offset=".15737528"
       id="stop23" />
    <stop
       stop-color="#f28100"
       offset="1"
       id="stop25" />
  </linearGradient>
  <g
     id="g1714"
     transform="matrix(3.1999998,0,0,3.1999998,-12.800762,-12.799991)">
    <path
       d="m 11,29 a 1.0001,1.0001 0 0 0 -0.955078,0.705078 l -4,13.000002 A 1.0001,1.0001 0 0 0 7,44 h 34 a 1.0001,1.0001 0 0 0 0.95508,-1.29492 L 37.955078,29.705078 A 1.0001,1.0001 0 0 0 37,29 Z"
       fill="url(#b)"
       id="path28"
       style="fill:url(#b)" />
    <path
       d="M 19,29 13.878906,34.121094 22.757812,43 H 42 a 1.0001,1.0001 0 0 0 -0.04492,-0.294922 l -4,-13 A 1.0001,1.0001 0 0 0 37,29 h -2 z"
       fill="url(#c)"
       id="path30"
       style="fill:url(#c)" />
    <path
       d="m 23.996094,4 a 3.0003,3.0003 0 0 0 -2.853516,2.085938 l -8,25 a 3.0003,3.0003 0 0 0 1.324219,3.492187 C 17.342918,36.288478 20.980447,37 24,37 c 3.019553,0 6.657082,-0.711522 9.533203,-2.421875 a 3.0003,3.0003 0 0 0 1.324219,-3.492187 l -8,-25 A 3.0003,3.0003 0 0 0 23.996094,4 Z"
       fill="url(#f)"
       id="path32"
       style="fill:url(#f)" />
    <path
       d="M 33.431641,26.632812 C 30.571372,28.301063 26.985024,29 24,29 21.014976,29 17.428628,28.301063 14.568359,26.632812 l -1.425781,4.453126 a 3.0003,3.0003 0 0 0 1.324219,3.492187 C 17.342918,36.288478 20.980447,37 24,37 c 3.019553,0 6.657082,-0.711522 9.533203,-2.421875 a 3.0003,3.0003 0 0 0 1.324219,-3.492187 z"
       fill="url(#d)"
       id="path34"
       style="fill:url(#d)" />
    <path
       d="m 19.117188,12.412109 -4.548829,14.220703 2.220703,-6.939453 C 19.155133,20.602883 21.749389,21 24,21 c 2.250611,0 4.844867,-0.397117 7.210938,-1.306641 l 2.220703,6.939453 -4.548829,-14.220703 C 27.215974,12.814304 25.529024,13 24,13 22.470976,13 20.784026,12.814304 19.117188,12.412109 Z"
       fill="url(#e)"
       id="path36"
       style="fill:url(#e)" />
    <path
       d="M 6.0019531,43 A 1.0001,1.0001 0 0 0 7,44 h 34 a 1.0001,1.0001 0 0 0 1,-1 z"
       fill="#d97716"
       id="path38" />
  </g>
</svg>
