<?xml version="1.0" encoding="UTF-8" standalone="no"?>
<!-- Created with Inkscape (http://www.inkscape.org/) -->

<svg
   xmlns:dc="http://purl.org/dc/elements/1.1/"
   xmlns:cc="http://creativecommons.org/ns#"
   xmlns:rdf="http://www.w3.org/1999/02/22-rdf-syntax-ns#"
   xmlns:svg="http://www.w3.org/2000/svg"
   xmlns="http://www.w3.org/2000/svg"
   xmlns:xlink="http://www.w3.org/1999/xlink"
   xmlns:sodipodi="http://sodipodi.sourceforge.net/DTD/sodipodi-0.dtd"
   xmlns:inkscape="http://www.inkscape.org/namespaces/inkscape"
   height="128"
   id="svg11300"
   inkscape:export-filename="/home/mma/BZR-WORK/breathe-icon-set/source_svg/rendered/computer.png"
   inkscape:export-xdpi="90.000000"
   inkscape:export-ydpi="90.000000"
   inkscape:output_extension="org.inkscape.output.svg.inkscape"
   inkscape:version="0.46+devel r21673"
   sodipodi:docname="evolution.svg"
   sodipodi:version="0.32"
   style="display:inline"
   version="1.0"
   width="128">
  <title
     id="title4119">Breathe Icon Theme computer</title>
  <defs
     id="defs3">
    <linearGradient
       id="linearGradient3675">
      <stop
         id="stop3677"
         offset="0"
         style="stop-color: rgb(53, 53, 53); stop-opacity: 1;" />
      <stop
         id="stop3679"
         offset="1"
         style="stop-color: rgb(0, 0, 0); stop-opacity: 1;" />
    </linearGradient>
    <linearGradient
       id="linearGradient4861"
       inkscape:collect="always">
      <stop
         id="stop4863"
         offset="0"
         style="stop-color: rgb(0, 0, 0); stop-opacity: 1;" />
      <stop
         id="stop4865"
         offset="1"
         style="stop-color: rgb(0, 0, 0); stop-opacity: 0;" />
    </linearGradient>
    <linearGradient
       gradientUnits="userSpaceOnUse"
       id="linearGradient5318"
       inkscape:collect="always"
       x1="8.6878576"
       x2="52.122673"
       xlink:href="#linearGradient5335"
       y1="25.265627"
       y2="25.265627" />
    <linearGradient
       id="linearGradient5335"
       inkscape:collect="always">
      <stop
         id="stop5337"
         offset="0"
         style="stop-color: rgb(255, 255, 255); stop-opacity: 1;" />
      <stop
         id="stop5339"
         offset="1"
         style="stop-color: rgb(255, 255, 255); stop-opacity: 0;" />
    </linearGradient>
    <linearGradient
       id="linearGradient3433-5">
      <stop
         id="stop3435-8"
         offset="0"
         style="stop-color: rgb(250, 250, 250); stop-opacity: 1;" />
      <stop
         id="stop3437-4"
         offset="1"
         style="stop-color: rgb(237, 237, 237); stop-opacity: 0;" />
    </linearGradient>
    <linearGradient
       id="linearGradient3648">
      <stop
         id="stop3650"
         offset="0"
         style="stop-color: rgb(238, 238, 215); stop-opacity: 1;" />
      <stop
         id="stop3976"
         offset="0.25"
         style="stop-color: rgb(224, 224, 205); stop-opacity: 1;" />
      <stop
         id="stop3972"
         offset="0.5"
         style="stop-color: rgb(223, 222, 198); stop-opacity: 1;" />
      <stop
         id="stop3974"
         offset="0.75"
         style="stop-color: rgb(221, 214, 192); stop-opacity: 1;" />
      <stop
         id="stop3652"
         offset="1"
         style="stop-color: rgb(217, 213, 186); stop-opacity: 1;" />
    </linearGradient>
    <linearGradient
       id="linearGradient3980">
      <stop
         id="stop3982"
         offset="0"
         style="stop-color: rgb(53, 53, 53); stop-opacity: 1;" />
      <stop
         id="stop3984"
         offset="1"
         style="stop-color: rgb(0, 0, 0); stop-opacity: 0;" />
    </linearGradient>
    <linearGradient
       id="linearGradient4041"
       inkscape:collect="always">
      <stop
         id="stop4043"
         offset="0"
         style="stop-color: rgb(0, 0, 0); stop-opacity: 1;" />
      <stop
         id="stop4045"
         offset="1"
         style="stop-color: rgb(0, 0, 0); stop-opacity: 0;" />
    </linearGradient>
    <linearGradient
       id="linearGradient4318">
      <stop
         id="stop4320"
         offset="0"
         style="stop-color: rgb(0, 0, 0); stop-opacity: 1;" />
      <stop
         id="stop4323"
         offset="1"
         style="stop-color: rgb(0, 0, 0); stop-opacity: 0;" />
    </linearGradient>
    <linearGradient
       id="linearGradient10207-41">
      <stop
         id="stop10209-18"
         offset="0"
         style="stop-color: rgb(162, 162, 162); stop-opacity: 1;" />
      <stop
         id="stop10211-6"
         offset="1"
         style="stop-color: rgb(255, 255, 255); stop-opacity: 1;" />
    </linearGradient>
    <filter
       color-interpolation-filters="sRGB"
       height="1.3839999"
       id="filter6697-7"
       inkscape:collect="always"
       width="1.3839999"
       x="-0.19200002"
       y="-0.19199999">
      <feGaussianBlur
         id="feGaussianBlur6699-9"
         inkscape:collect="always"
         stdDeviation="1.9447689" />
    </filter>
    <clipPath
       clipPathUnits="userSpaceOnUse"
       id="clipPath7084-9">
      <path
         d="m 72,88 -32,32 -8,0 0,-40 40,0 0,8 z"
         id="path7086-5"
         style="fill:#000000;fill-opacity:1;fill-rule:evenodd;stroke:none" />
    </clipPath>
    <filter
       color-interpolation-filters="sRGB"
       id="filter3685"
       inkscape:collect="always">
      <feGaussianBlur
         id="feGaussianBlur3687"
         inkscape:collect="always"
         stdDeviation="0.34359376" />
    </filter>
    <filter
       color-interpolation-filters="sRGB"
       id="filter3693"
       inkscape:collect="always">
      <feGaussianBlur
         id="feGaussianBlur3695"
         inkscape:collect="always"
         stdDeviation="0.40038581" />
    </filter>
    <linearGradient
       gradientUnits="userSpaceOnUse"
       id="linearGradient5154"
       inkscape:collect="always"
       x1="8.6878576"
       x2="52.122673"
       xlink:href="#linearGradient5335"
       y1="25.265627"
       y2="25.265627" />
    <filter
       color-interpolation-filters="sRGB"
       height="1.2809844"
       id="filter9120"
       inkscape:collect="always"
       width="1.2006924"
       x="-0.1003462"
       y="-0.14049219">
      <feGaussianBlur
         id="feGaussianBlur9122"
         inkscape:collect="always"
         stdDeviation="4.3600386" />
    </filter>
    <linearGradient
       id="linearGradient4709"
       inkscape:collect="always">
      <stop
         id="stop4711"
         offset="0"
         style="stop-color: rgb(255, 255, 255); stop-opacity: 1;" />
      <stop
         id="stop4713"
         offset="1"
         style="stop-color: rgb(255, 255, 255); stop-opacity: 0;" />
    </linearGradient>
    <linearGradient
       id="linearGradient4790">
      <stop
         id="stop4792"
         offset="0"
         style="stop-color: rgb(94, 96, 92); stop-opacity: 1;" />
      <stop
         id="stop4794"
         offset="1"
         style="stop-color: rgb(34, 35, 33); stop-opacity: 1;" />
    </linearGradient>
    <linearGradient
       id="linearGradient4585">
      <stop
         id="stop4587"
         offset="0"
         style="stop-color: rgb(255, 255, 255); stop-opacity: 1;" />
      <stop
         id="stop4589"
         offset="1"
         style="stop-color: rgb(255, 255, 255); stop-opacity: 0;" />
    </linearGradient>
    <linearGradient
       id="linearGradient6732">
      <stop
         id="stop6734"
         offset="0"
         style="stop-color: rgb(255, 255, 255); stop-opacity: 1;" />
      <stop
         id="stop6736"
         offset="1"
         style="stop-color: rgb(221, 221, 221); stop-opacity: 1;" />
    </linearGradient>
    <linearGradient
       id="linearGradient3688"
       inkscape:collect="always">
      <stop
         id="stop3690"
         offset="0"
         style="stop-color: black; stop-opacity: 1;" />
      <stop
         id="stop3692"
         offset="1"
         style="stop-color: black; stop-opacity: 0;" />
    </linearGradient>
    <linearGradient
       id="linearGradient3683"
       inkscape:collect="always">
      <stop
         id="stop3685"
         offset="0"
         style="stop-color: rgb(0, 0, 0); stop-opacity: 1;" />
      <stop
         id="stop3687"
         offset="1"
         style="stop-color: rgb(99, 99, 99); stop-opacity: 1;" />
    </linearGradient>
    <linearGradient
       gradientUnits="userSpaceOnUse"
       id="linearGradient4322"
       inkscape:collect="always"
       x1="8.6878576"
       x2="52.122673"
       xlink:href="#linearGradient5335"
       y1="25.265627"
       y2="25.265627" />
    <radialGradient
       cx="10.125"
       cy="5.710938"
       fx="10.125"
       fy="5.710938"
       gradientTransform="matrix(4.09273,0,0,3.67819,-11.1378,6.31852)"
       gradientUnits="userSpaceOnUse"
       id="radialGradient5591"
       inkscape:collect="always"
       r="21"
       xlink:href="#linearGradient4790" />
    <linearGradient
       gradientTransform="translate(1.11738,-0.839689)"
       gradientUnits="userSpaceOnUse"
       id="linearGradient5593"
       inkscape:collect="always"
       x1="121.65269"
       x2="121.23848"
       xlink:href="#linearGradient4709"
       y1="8.2953033"
       y2="17.57608" />
    <radialGradient
       cx="10.125"
       cy="5.710938"
       fx="10.125"
       fy="5.710938"
       gradientTransform="matrix(4.09273,0,0,3.67819,-11.1378,6.31852)"
       gradientUnits="userSpaceOnUse"
       id="radialGradient5595"
       inkscape:collect="always"
       r="21"
       xlink:href="#linearGradient4790" />
    <linearGradient
       gradientTransform="translate(1.11738,-0.839689)"
       gradientUnits="userSpaceOnUse"
       id="linearGradient5597"
       inkscape:collect="always"
       x1="121.65269"
       x2="121.23848"
       xlink:href="#linearGradient4709"
       y1="8.2953033"
       y2="17.57608" />
    <radialGradient
       cx="10.125"
       cy="5.710938"
       fx="10.125"
       fy="5.710938"
       gradientTransform="matrix(4.09273,0,0,3.67819,-11.1378,6.31852)"
       gradientUnits="userSpaceOnUse"
       id="radialGradient5599"
       inkscape:collect="always"
       r="21"
       xlink:href="#linearGradient4790" />
    <linearGradient
       gradientTransform="translate(1.11738,-0.839689)"
       gradientUnits="userSpaceOnUse"
       id="linearGradient5601"
       inkscape:collect="always"
       x1="121.65269"
       x2="121.23848"
       xlink:href="#linearGradient4709"
       y1="8.2953033"
       y2="17.57608" />
    <linearGradient
       gradientTransform="matrix(0.617259,0,0,0.531553,56.999,63.8214)"
       gradientUnits="userSpaceOnUse"
       id="linearGradient3918"
       inkscape:collect="always"
       x1="46.373646"
       x2="31.716814"
       xlink:href="#linearGradient3683"
       y1="91.695389"
       y2="53.271236" />
    <linearGradient
       gradientTransform="matrix(0,0.39867,0.274148,0,101.265,81.912)"
       gradientUnits="userSpaceOnUse"
       id="linearGradient3921"
       inkscape:collect="always"
       x1="65.227325"
       x2="65.020218"
       xlink:href="#linearGradient4585"
       y1="109.28265"
       y2="88.039612" />
    <linearGradient
       gradientTransform="matrix(0.620348,0,0,0.265188,55.8199,102.077)"
       gradientUnits="userSpaceOnUse"
       id="linearGradient3924"
       inkscape:collect="always"
       x1="64.851028"
       x2="64.643921"
       xlink:href="#linearGradient3688"
       y1="138.13362"
       y2="93.696671" />
    <linearGradient
       gradientTransform="matrix(0.620348,0,0,0.600073,55.6891,66.9923)"
       gradientUnits="userSpaceOnUse"
       id="linearGradient3927"
       inkscape:collect="always"
       x1="65.204582"
       x2="65.351028"
       xlink:href="#linearGradient6732"
       y1="39.569283"
       y2="105" />
    <radialGradient
       cx="68.942909"
       cy="120.32754"
       fx="68.942909"
       fy="120.32754"
       gradientTransform="matrix(1,0,0,0.0310345,0,116.593)"
       gradientUnits="userSpaceOnUse"
       id="radialGradient4289"
       inkscape:collect="always"
       r="51.26524"
       xlink:href="#linearGradient4318" />
    <radialGradient
       cx="66.75"
       cy="110.5"
       fx="66.75"
       fy="110.5"
       gradientTransform="matrix(1,0,0,0.0349345,0,106.64)"
       gradientUnits="userSpaceOnUse"
       id="radialGradient4291"
       inkscape:collect="always"
       r="57.250004"
       xlink:href="#linearGradient4041" />
    <linearGradient
       gradientTransform="matrix(0.970946,0,0,0.939077,2.6221,20.6139)"
       gradientUnits="userSpaceOnUse"
       id="linearGradient4293"
       inkscape:collect="always"
       x1="74.20089"
       x2="73.937981"
       xlink:href="#linearGradient3648"
       y1="159.92886"
       y2="98.410583" />
    <radialGradient
       cx="55.3125"
       cy="67.1875"
       fx="55.3125"
       fy="67.1875"
       gradientTransform="matrix(0.522667,-0.762337,0.397592,1.06788,-0.310665,37.6067)"
       gradientUnits="userSpaceOnUse"
       id="radialGradient4295"
       inkscape:collect="always"
       r="24.4375"
       xlink:href="#linearGradient3433-5" />
    <linearGradient
       gradientTransform="matrix(2.58114,0,0,2.25379,-339.021,-6.553)"
       gradientUnits="userSpaceOnUse"
       id="linearGradient4297"
       inkscape:collect="always"
       x1="155.53992"
       x2="158.73654"
       xlink:href="#linearGradient4861"
       y1="37.572769"
       y2="14.945352" />
    <linearGradient
       gradientTransform="translate(66.9973,277.011)"
       gradientUnits="userSpaceOnUse"
       id="linearGradient4299"
       inkscape:collect="always"
       x1="98.617439"
       x2="91.228737"
       xlink:href="#linearGradient10207-41"
       y1="106.41443"
       y2="99.254974" />
    <linearGradient
       gradientTransform="matrix(0,-0.623669,1.16654,0,-3.79574,119.795)"
       gradientUnits="userSpaceOnUse"
       id="linearGradient4301"
       inkscape:collect="always"
       x1="68.577644"
       x2="119.93021"
       xlink:href="#linearGradient3675"
       y1="61.197487"
       y2="61.197487" />
    <linearGradient
       gradientTransform="matrix(-0.978723,0,0,1,127.218,15.282)"
       gradientUnits="userSpaceOnUse"
       id="linearGradient4303"
       inkscape:collect="always"
       x1="90.686447"
       x2="92.719383"
       xlink:href="#linearGradient3980"
       y1="83.557983"
       y2="81.083107" />
    <linearGradient
       gradientTransform="matrix(0,-0.828613,1.63646,0,-42.6804,129.622)"
       gradientUnits="userSpaceOnUse"
       id="linearGradient4305"
       inkscape:collect="always"
       x1="41.365749"
       x2="11.314015"
       xlink:href="#linearGradient3648"
       y1="55.804043"
       y2="56.156013" />
    <linearGradient
       gradientTransform="matrix(-0.978723,0,0,1,127.218,15.282)"
       gradientUnits="userSpaceOnUse"
       id="linearGradient4307"
       inkscape:collect="always"
       x1="90.686447"
       x2="92.719383"
       xlink:href="#linearGradient3980"
       y1="83.557983"
       y2="81.083107" />
    <linearGradient
       gradientTransform="matrix(0,-0.828613,1.63646,0,-42.6804,129.622)"
       gradientUnits="userSpaceOnUse"
       id="linearGradient4309"
       inkscape:collect="always"
       x1="41.365749"
       x2="11.314015"
       xlink:href="#linearGradient3648"
       y1="55.804043"
       y2="56.156013" />
    <linearGradient
       gradientTransform="matrix(0,-0.828613,1.63646,0,-42.6804,129.622)"
       gradientUnits="userSpaceOnUse"
       id="linearGradient4311"
       inkscape:collect="always"
       x1="41.365749"
       x2="11.314015"
       xlink:href="#linearGradient3648"
       y1="55.804043"
       y2="56.156013" />
    <filter
       color-interpolation-filters="sRGB"
       id="filter5284"
       inkscape:collect="always">
      <feGaussianBlur
         id="feGaussianBlur5286"
         inkscape:collect="always"
         stdDeviation="0.64537768" />
    </filter>
    <linearGradient
       gradientUnits="userSpaceOnUse"
       id="linearGradient5300"
       inkscape:collect="always"
       x1="69.25"
       x2="67.875"
       xlink:href="#linearGradient4585"
       y1="-16.749994"
       y2="42.750004" />
    <linearGradient
       gradientTransform="matrix(0.6133276,0,0,0.6133276,116.15678,-1.0921903)"
       gradientUnits="userSpaceOnUse"
       id="linearGradient5304"
       inkscape:collect="always"
       x1="69.25"
       x2="67.875"
       xlink:href="#linearGradient4585"
       y1="-16.749994"
       y2="42.750004" />
    <linearGradient
       gradientTransform="matrix(0.4163746,0,0,0.4248904,121.8701,51.504644)"
       gradientUnits="userSpaceOnUse"
       id="linearGradient5355"
       inkscape:collect="always"
       x1="69.25"
       x2="67.875"
       xlink:href="#linearGradient4585"
       y1="-16.749994"
       y2="42.750004" />
  </defs>
  <sodipodi:namedview
     bordercolor="#666666"
     borderopacity="0.25490196"
     fill="#f57900"
     gridtolerance="12"
     guidetolerance="13"
     height="300px"
     id="base"
     inkscape:current-layer="layer6"
     inkscape:cx="203.36238"
     inkscape:cy="116.21454"
     inkscape:document-units="px"
     inkscape:grid-bbox="true"
     inkscape:guide-bbox="true"
     inkscape:pageopacity="0.0"
     inkscape:pageshadow="2"
     inkscape:showpageshadow="false"
     inkscape:snap-bbox="true"
     inkscape:snap-nodes="false"
     inkscape:window-height="926"
     inkscape:window-maximized="0"
     inkscape:window-width="1680"
     inkscape:window-x="0"
     inkscape:window-y="25"
     inkscape:zoom="2.0000001"
     objecttolerance="7"
     pagecolor="#ffffff"
     showgrid="false"
     showguides="true"
     stroke="#ef2929"
     width="400px">
    <inkscape:grid
       empspacing="5"
       enabled="true"
       id="grid5883"
       spacingx="1px"
       spacingy="1px"
       type="xygrid"
       visible="true" />
  </sodipodi:namedview>
  <metadata
     id="metadata4">
    <rdf:RDF>
      <cc:Work
         rdf:about="">
        <dc:format>image/svg+xml</dc:format>
        <dc:type
           rdf:resource="http://purl.org/dc/dcmitype/StillImage" />
        <dc:creator>
          <cc:Agent>
            <dc:title>Breathe Icon Team</dc:title>
          </cc:Agent>
        </dc:creator>
        <dc:source />
        <cc:license
           rdf:resource="http://creativecommons.org/licenses/by-sa/3.0/" />
        <dc:title>Breathe Icon Theme icon</dc:title>
        <dc:subject>
          <rdf:Bag />
        </dc:subject>
        <dc:date />
        <dc:rights>
          <cc:Agent>
            <dc:title />
          </cc:Agent>
        </dc:rights>
        <dc:publisher>
          <cc:Agent>
            <dc:title />
          </cc:Agent>
        </dc:publisher>
        <dc:identifier />
        <dc:relation />
        <dc:language />
        <dc:coverage />
        <dc:description />
        <dc:contributor>
          <cc:Agent>
            <dc:title>Jakub Steiner, Cory Kontros, Oxygen and Breathe icon teams</dc:title>
          </cc:Agent>
        </dc:contributor>
      </cc:Work>
      <cc:License
         rdf:about="http://creativecommons.org/licenses/by-sa/3.0/">
        <cc:permits
           rdf:resource="http://creativecommons.org/ns#Reproduction" />
        <cc:permits
           rdf:resource="http://creativecommons.org/ns#Distribution" />
        <cc:requires
           rdf:resource="http://creativecommons.org/ns#Notice" />
        <cc:requires
           rdf:resource="http://creativecommons.org/ns#Attribution" />
        <cc:prohibits
           rdf:resource="http://creativecommons.org/ns#CommercialUse" />
        <cc:permits
           rdf:resource="http://creativecommons.org/ns#DerivativeWorks" />
        <cc:requires
           rdf:resource="http://creativecommons.org/ns#ShareAlike" />
      </cc:License>
    </rdf:RDF>
  </metadata>
  <g
     id="layer1"
     inkscape:groupmode="layer"
     inkscape:label="apps/evolution"
     style="display:inline"
     transform="translate(-3,-4)">
    <rect
       height="256"
       id="256x256"
       inkscape:label="256x256"
       style="fill:#eeeeec;fill-opacity:1;fill-rule:nonzero;stroke:none;stroke-width:5;marker:none;visibility:visible;display:none;overflow:visible"
       width="256"
       x="26.5"
       y="32.823101" />
    <rect
       height="48"
       id="48x48"
       inkscape:label="48x48"
       style="fill:#eeeeec;fill-opacity:1;fill-rule:nonzero;stroke:none;stroke-width:5;marker:none;visibility:visible;display:none;overflow:visible"
       width="48"
       x="-35.5"
       y="32.823101" />
    <text
       id="text6091"
       sodipodi:linespacing="125%"
       style="font-size:56.11529922px;font-style:normal;font-variant:normal;font-weight:bold;font-stretch:normal;text-indent:0pt;text-align:start;text-decoration:none;line-height:125%;letter-spacing:normal;word-spacing:normal;text-transform:none;direction:ltr;text-anchor:start;fill:#2e3436;fill-opacity:1;fill-rule:nonzero;stroke:none;stroke-width:5;marker:none;visibility:visible;display:none;overflow:visible;font-family:Myriad"
       x="-418.41199"
       xml:space="preserve"
       y="34.084801"><tspan
         id="tspan6093"
         sodipodi:role="line"
         x="-418.41199"
         y="34.084801">audio-x-generic</tspan></text>
    <g
       id="layer6"
       inkscape:groupmode="layer"
       inkscape:label="plate"
       sodipodi:insensitive="true"
       style="display:none" />
    <g
       id="Livello_1"
       transform="translate(387.114,42.495)" />
    <g
       id="g3290"
       transform="translate(443.114,59.8843)" />
    <g
       id="g7148"
       transform="matrix(0.195657,0,0,0.195657,345.265,19.4029)" />
    <g
       id="g7555"
       transform="matrix(0.133333,0,0,0.133333,319.904,105.991)" />
    <g
       id="g9283"
       transform="matrix(1.06667,0,0,1.06667,384.447,40.4706)" />
    <rect
       height="256"
       id="rect4840"
       inkscape:label="256x256"
       style="fill:#eeeeec;fill-opacity:1;fill-rule:nonzero;stroke:none;stroke-width:5;marker:none;visibility:visible;display:none;overflow:visible"
       width="256"
       x="26.79034"
       y="31.098969" />
    <rect
       height="48"
       id="rect4842"
       inkscape:label="48x48"
       style="fill:#eeeeec;fill-opacity:1;fill-rule:nonzero;stroke:none;stroke-width:5;marker:none;visibility:visible;display:none;overflow:visible"
       width="48"
       x="-35.20966"
       y="31.098969" />
    <text
       id="text4862"
       sodipodi:linespacing="125%"
       style="font-size:56.11529922px;font-style:normal;font-variant:normal;font-weight:bold;font-stretch:normal;text-indent:0pt;text-align:start;text-decoration:none;line-height:125%;letter-spacing:normal;word-spacing:normal;text-transform:none;direction:ltr;text-anchor:start;fill:#2e3436;fill-opacity:1;fill-rule:nonzero;stroke:none;stroke-width:5;marker:none;visibility:visible;display:none;overflow:visible;font-family:Myriad"
       x="-418.12201"
       xml:space="preserve"
       y="32.360699"><tspan
         id="tspan4864"
         sodipodi:role="line"
         x="-418.12201"
         y="32.360699">audio-x-generic</tspan></text>
    <g
       id="g4868"
       transform="translate(387.404,40.7709)" />
    <g
       id="g4870"
       transform="translate(443.404,58.1602)" />
    <g
       id="g4872"
       transform="matrix(0.195657,0,0,0.195657,345.555,17.6788)" />
    <g
       id="g4874"
       transform="matrix(0.133333,0,0,0.133333,320.194,104.267)" />
    <g
       id="g4876"
       transform="matrix(1.06667,0,0,1.06667,384.737,38.7465)" />
    <rect
       height="256"
       id="rect4123"
       inkscape:label="256x256"
       style="fill:#eeeeec;fill-opacity:1;fill-rule:nonzero;stroke:none;stroke-width:5;marker:none;visibility:visible;display:none;overflow:visible"
       width="256"
       x="-208.27814"
       y="-11.706532" />
    <g
       id="g4172"
       transform="translate(152.336,-2.03463)" />
    <g
       id="g4174"
       transform="translate(208.336,15.3547)" />
    <g
       id="g4176"
       transform="matrix(0.195657,0,0,0.195657,110.487,-25.1267)" />
    <g
       id="g4178"
       transform="matrix(0.133333,0,0,0.133333,85.1258,61.4614)" />
    <g
       id="g4180"
       transform="matrix(1.06667,0,0,1.06667,149.669,-4.05903)" />
    <text
       id="text3265-2"
       style="font-size:18px;font-style:normal;font-weight:normal;fill:#000000;fill-opacity:1;stroke:none;font-family:Bitstream Vera Sans"
       x="-1669.4399"
       xml:space="preserve"
       y="-1642.0601"><tspan
         id="tspan3267-1"
         sodipodi:role="line"
         x="-1669.4399"
         y="-1642.0601" /></text>
    <g
       id="g5020"
       transform="translate(-5.53305,77.6215)" />
    <g
       id="g5022"
       transform="translate(50.4669,95.0108)" />
    <g
       id="g5024"
       transform="matrix(0.195657,0,0,0.195657,-47.382,54.5294)" />
    <g
       id="g5026"
       transform="matrix(0.133333,0,0,0.133333,-72.743,141.117)" />
    <g
       id="g5028"
       transform="matrix(1.06667,0,0,1.06667,-8.20005,75.5971)" />
    <text
       id="text5086"
       style="font-size:18px;font-style:normal;font-weight:normal;fill:#000000;fill-opacity:1;stroke:none;font-family:Bitstream Vera Sans"
       x="-1827.3101"
       xml:space="preserve"
       y="-1562.4"><tspan
         id="tspan5088"
         sodipodi:role="line"
         x="-1827.3101"
         y="-1562.4" /></text>
    <g
       id="g3185"
       inkscape:r_cx="true"
       inkscape:r_cy="true"
       style="opacity:0.548193;fill:none;stroke:url(#linearGradient5318);stroke-width:1.24928999;stroke-miterlimit:4;stroke-opacity:1;stroke-dasharray:none"
       transform="matrix(-1.28142,-1.07781,-1.08264,1.2757,-374.296,74.5843)" />
    <g
       id="g2424"
       inkscape:r_cx="true"
       inkscape:r_cy="true"
       style="opacity:0.5;fill:none;stroke:#ffffff;stroke-opacity:1"
       transform="matrix(0.190868,0.16126,0.16126,-0.190868,-473.92,87.5398)" />
    <g
       id="g9812"
       transform="matrix(-3.5713,0,0,3.5713,-194.773,-208.713)" />
    <g
       id="g7967"
       transform="matrix(-1,0,0,1,-22.5,94.5)" />
    <g
       id="g10089"
       transform="matrix(-1.98995,0,0,1.98995,-105.535,-40.4086)" />
    <rect
       height="256"
       id="rect4031"
       inkscape:label="256x256"
       style="fill:#eeeeec;fill-opacity:1;fill-rule:nonzero;stroke:none;stroke-width:5;marker:none;visibility:visible;display:none;overflow:visible"
       width="256"
       x="-173.01274"
       y="22.042524" />
    <g
       id="g4059"
       transform="translate(187.602,31.7145)" />
    <g
       id="g4061"
       transform="translate(243.602,49.1038)" />
    <g
       id="g4063"
       transform="matrix(0.195657,0,0,0.195657,145.752,8.62231)" />
    <g
       id="g4065"
       transform="matrix(0.133333,0,0,0.133333,120.391,95.2099)" />
    <g
       id="g4067"
       transform="matrix(1.06667,0,0,1.06667,184.934,29.69)" />
    <text
       id="text4098"
       style="font-size:18px;font-style:normal;font-weight:normal;fill:#000000;fill-opacity:1;stroke:none;font-family:Bitstream Vera Sans"
       x="-1642.37"
       xml:space="preserve"
       y="-1586.1899"><tspan
         id="tspan4100"
         sodipodi:role="line"
         x="-1642.37"
         y="-1586.1899" /></text>
    <rect
       height="0"
       id="rect1327"
       style="opacity:0.57786901;fill:#ffffff;fill-opacity:1;fill-rule:nonzero;stroke:none"
       width="1"
       x="-83.191917"
       y="409.79343" />
    <g
       id="g4640"
       style="opacity:0.40163903"
       transform="matrix(-0.782995,0,0,0.650879,-2564.99,1023.09)" />
    <g
       id="g4646"
       style="opacity:0.40163903"
       transform="matrix(-0.782995,0,0,0.650879,-2564.99,1023.09)" />
    <g
       id="g4730"
       style="opacity:0.40163903"
       transform="matrix(1,0,0,0.650879,635.975,1030.42)" />
    <g
       id="g4748"
       style="opacity:0.40163903"
       transform="matrix(1,0,0,0.650879,635.975,1030.42)" />
    <rect
       height="256"
       id="rect4479"
       inkscape:label="256x256"
       style="fill:#eeeeec;fill-opacity:1;fill-rule:nonzero;stroke:none;stroke-width:5;marker:none;visibility:visible;display:none;overflow:visible"
       width="256"
       x="-99.194778"
       y="24.170496" />
    <g
       id="g4508"
       transform="translate(261.419,33.8424)" />
    <g
       id="g4510"
       transform="translate(317.419,51.2317)" />
    <g
       id="g4512"
       transform="matrix(0.195657,0,0,0.195657,219.57,10.7503)" />
    <g
       id="g4514"
       transform="matrix(0.133333,0,0,0.133333,194.209,97.3384)" />
    <g
       id="g4516"
       transform="matrix(1.06667,0,0,1.06667,258.752,31.818)" />
    <rect
       height="256"
       id="rect4518"
       inkscape:label="256x256"
       style="fill:#eeeeec;fill-opacity:1;fill-rule:nonzero;stroke:none;stroke-width:5;marker:none;visibility:visible;display:none;overflow:visible"
       width="256"
       x="-98.904442"
       y="22.446363" />
    <g
       id="g4546"
       transform="translate(261.709,32.1183)" />
    <g
       id="g4548"
       transform="translate(317.709,49.5076)" />
    <g
       id="g4550"
       transform="matrix(0.195657,0,0,0.195657,219.86,9.0262)" />
    <g
       id="g4552"
       transform="matrix(0.133333,0,0,0.133333,194.499,95.6144)" />
    <g
       id="g4554"
       transform="matrix(1.06667,0,0,1.06667,259.042,30.0939)" />
    <g
       id="g4584"
       transform="translate(26.6412,-10.6872)" />
    <g
       id="g4586"
       transform="translate(82.6412,6.7021)" />
    <g
       id="g4588"
       transform="matrix(0.195657,0,0,0.195657,-15.2078,-33.7793)" />
    <g
       id="g4590"
       transform="matrix(0.133333,0,0,0.133333,-40.569,52.8088)" />
    <g
       id="g4592"
       transform="matrix(1.06667,0,0,1.06667,23.9742,-12.7116)" />
    <text
       id="text4650"
       style="font-size:18px;font-style:normal;font-weight:normal;fill:#000000;fill-opacity:1;stroke:none;font-family:Bitstream Vera Sans"
       x="-1795.13"
       xml:space="preserve"
       y="-1650.71"><tspan
         id="tspan4652"
         sodipodi:role="line"
         x="-1795.13"
         y="-1650.71" /></text>
    <g
       id="g4682"
       transform="translate(-131.228,68.9689)" />
    <g
       id="g4684"
       transform="translate(-75.2279,86.3582)" />
    <g
       id="g4686"
       transform="matrix(0.195657,0,0,0.195657,-173.077,45.8768)" />
    <g
       id="g4688"
       transform="matrix(0.133333,0,0,0.133333,-198.438,132.464)" />
    <g
       id="g4690"
       transform="matrix(1.06667,0,0,1.06667,-133.895,66.9445)" />
    <text
       id="text4748"
       style="font-size:18px;font-style:normal;font-weight:normal;fill:#000000;fill-opacity:1;stroke:none;font-family:Bitstream Vera Sans"
       x="-1953"
       xml:space="preserve"
       y="-1571.05"><tspan
         id="tspan4750"
         sodipodi:role="line"
         x="-1953"
         y="-1571.05" /></text>
    <g
       id="g4752"
       inkscape:r_cx="true"
       inkscape:r_cy="true"
       style="opacity:0.548193;fill:none;stroke:url(#linearGradient5154);stroke-width:1.24928999;stroke-miterlimit:4;stroke-opacity:1;stroke-dasharray:none"
       transform="matrix(-1.28142,-1.07781,-1.08264,1.2757,-499.991,65.9317)" />
    <g
       id="g4754"
       inkscape:r_cx="true"
       inkscape:r_cy="true"
       style="opacity:0.5;fill:none;stroke:#ffffff;stroke-opacity:1"
       transform="matrix(0.190868,0.16126,0.16126,-0.190868,-599.615,78.8872)" />
    <g
       id="g4756"
       transform="matrix(-3.5713,0,0,3.5713,-320.468,-217.366)" />
    <g
       id="g4758"
       transform="matrix(-1,0,0,1,-148.195,85.8474)" />
    <g
       id="g4760"
       transform="matrix(-1.98995,0,0,1.98995,-231.23,-49.0612)" />
    <g
       id="g4224"
       transform="matrix(-1,0,0,1,-226.134,17.619)" />
    <g
       id="g6595"
       transform="matrix(0.528264,0,0,0.541953,35.1432,78.3714)" />
    <g
       id="g7209"
       transform="matrix(0.451518,0,0,0.448002,28.3452,104.954)" />
    <rect
       height="256"
       id="rect3728"
       inkscape:label="256x256"
       style="fill:#eeeeec;fill-opacity:1;fill-rule:nonzero;stroke:none;stroke-width:5;marker:none;visibility:visible;display:none;overflow:visible"
       width="256"
       x="39.427258"
       y="52.944187" />
    <rect
       height="48"
       id="rect3730"
       inkscape:label="48x48"
       style="fill:#eeeeec;fill-opacity:1;fill-rule:nonzero;stroke:none;stroke-width:5;marker:none;visibility:visible;display:none;overflow:visible"
       width="48"
       x="-22.572744"
       y="52.944187" />
    <text
       id="text3750"
       sodipodi:linespacing="125%"
       style="font-size:56.11529922px;font-style:normal;font-variant:normal;font-weight:bold;font-stretch:normal;text-indent:0pt;text-align:start;text-decoration:none;line-height:125%;letter-spacing:normal;word-spacing:normal;text-transform:none;direction:ltr;text-anchor:start;fill:#2e3436;fill-opacity:1;fill-rule:nonzero;stroke:none;stroke-width:5;marker:none;visibility:visible;display:none;overflow:visible;font-family:Myriad"
       x="-405.48499"
       xml:space="preserve"
       y="54.205898"><tspan
         id="tspan3752"
         sodipodi:role="line"
         x="-405.48499"
         y="54.205898">audio-x-generic</tspan></text>
    <g
       id="g3756"
       transform="translate(400.041,62.6161)" />
    <g
       id="g3758"
       transform="translate(456.041,80.0054)" />
    <g
       id="g3760"
       transform="matrix(0.195657,0,0,0.195657,358.192,39.524)" />
    <g
       id="g3762"
       transform="matrix(0.133333,0,0,0.133333,332.831,126.112)" />
    <g
       id="g3764"
       transform="matrix(1.06667,0,0,1.06667,397.374,60.5917)" />
    <text
       id="barcode_bottomtext"
       style="font-size:15.81449986px;text-align:center;text-anchor:middle;fill:#000000"
       transform="scale(1.40998,0.70923)"
       x="40.0056"
       xml:space="preserve"
       y="193.759" />
    <g
       id="g3353"
       inkscape:label="Base"
       style="display:inline"
       transform="translate(-72.506,-2.27442)" />
    <rect
       height="256"
       id="rect4752"
       inkscape:label="256x256"
       style="fill:#eeeeec;fill-opacity:1;fill-rule:nonzero;stroke:none;stroke-width:5;marker:none;visibility:visible;display:none;overflow:visible"
       width="256"
       x="-173.07274"
       y="76.631859" />
    <g
       id="g4794"
       transform="translate(187.541,86.3038)" />
    <g
       id="g4796"
       transform="translate(243.541,103.693)" />
    <g
       id="g4798"
       transform="matrix(0.195657,0,0,0.195657,145.692,63.2117)" />
    <g
       id="g4800"
       transform="matrix(0.133333,0,0,0.133333,120.331,149.8)" />
    <g
       id="g4802"
       transform="matrix(1.06667,0,0,1.06667,184.874,84.2794)" />
    <rect
       height="256"
       id="rect7970"
       inkscape:label="256x256"
       style="fill:#eeeeec;fill-opacity:1;fill-rule:nonzero;stroke:none;stroke-width:5;marker:none;visibility:visible;display:none;overflow:visible"
       width="256"
       x="-172.76671"
       y="72.944656" />
    <g
       id="g8012"
       transform="translate(187.847,82.6166)" />
    <g
       id="g8014"
       transform="translate(243.847,100.006)" />
    <g
       id="g8016"
       transform="matrix(0.195657,0,0,0.195657,145.998,59.5245)" />
    <g
       id="g8018"
       transform="matrix(0.133333,0,0,0.133333,120.637,146.112)" />
    <g
       id="g8020"
       transform="matrix(1.06667,0,0,1.06667,185.18,80.5922)" />
    <text
       id="text3862"
       style="font-size:18px;font-style:normal;font-weight:normal;fill:#000000;fill-opacity:1;stroke:none;font-family:Bitstream Vera Sans"
       x="-1642.12"
       xml:space="preserve"
       y="-1535.29"><tspan
         id="tspan3864"
         sodipodi:role="line"
         x="-1642.12"
         y="-1535.29" /></text>
    <rect
       height="0"
       id="rect3866"
       style="opacity:0.57786901;fill:#ffffff;fill-opacity:1;fill-rule:nonzero;stroke:none"
       width="1"
       x="-82.945892"
       y="460.69556" />
    <g
       id="g3868"
       style="opacity:0.40163903"
       transform="matrix(-0.782995,0,0,0.650879,-2564.74,1074)" />
    <g
       id="g3870"
       style="opacity:0.40163903"
       transform="matrix(-0.782995,0,0,0.650879,-2564.74,1074)" />
    <g
       id="g3872"
       style="opacity:0.40163903"
       transform="matrix(1,0,0,0.650879,636.221,1081.32)" />
    <g
       id="g3874"
       style="opacity:0.40163903"
       transform="matrix(1,0,0,0.650879,636.221,1081.32)" />
    <g
       id="g4993"
       transform="translate(-32.1577,69.8041)" />
    <g
       id="g4995"
       transform="translate(23.8423,87.1934)" />
    <g
       id="g4997"
       transform="matrix(0.195657,0,0,0.195657,-74.0067,46.7119)" />
    <g
       id="g4999"
       transform="matrix(0.133333,0,0,0.133333,-99.3677,133.3)" />
    <g
       id="g5001"
       transform="matrix(1.06667,0,0,1.06667,-34.8247,67.7797)" />
    <text
       id="text5003"
       style="font-size:18px;font-style:normal;font-weight:normal;fill:#000000;fill-opacity:1;stroke:none;font-family:Bitstream Vera Sans"
       x="-1741.37"
       xml:space="preserve"
       y="-1601.53"><tspan
         id="tspan5005"
         sodipodi:role="line"
         x="-1741.37"
         y="-1601.53" /></text>
    <g
       id="g3883"
       transform="translate(167.842,115.804)" />
    <g
       id="g3885"
       transform="translate(223.842,133.193)" />
    <g
       id="g3887"
       transform="matrix(0.195657,0,0,0.195657,125.993,92.712)" />
    <g
       id="g3889"
       transform="matrix(0.133333,0,0,0.133333,100.632,179.299)" />
    <g
       id="g3891"
       transform="matrix(1.06667,0,0,1.06667,165.175,113.78)" />
    <text
       id="text3893"
       style="font-size:18px;font-style:normal;font-weight:normal;fill:#000000;fill-opacity:1;stroke:none;font-family:Bitstream Vera Sans"
       x="-1541.37"
       xml:space="preserve"
       y="-1555.53"><tspan
         id="tspan3895"
         sodipodi:role="line"
         x="-1541.37"
         y="-1555.53" /></text>
    <g
       id="g7004"
       transform="translate(-244.168,59.704)" />
    <g
       id="g7006"
       transform="translate(-188.168,77.0933)" />
    <g
       id="g7008"
       transform="matrix(0.195657,0,0,0.195657,-286.017,36.6119)" />
    <g
       id="g7010"
       transform="matrix(0.133333,0,0,0.133333,-311.378,123.2)" />
    <g
       id="g7012"
       transform="matrix(1.06667,0,0,1.06667,-246.835,57.6796)" />
    <g
       id="g3947"
       transform="translate(-243.878,57.9799)" />
    <g
       id="g3949"
       transform="translate(-187.878,75.3692)" />
    <g
       id="g3951"
       transform="matrix(0.195657,0,0,0.195657,-285.727,34.8878)" />
    <g
       id="g3953"
       transform="matrix(0.133333,0,0,0.133333,-311.088,121.476)" />
    <g
       id="g3955"
       transform="matrix(1.06667,0,0,1.06667,-246.545,55.9555)" />
    <g
       id="g7048"
       transform="translate(-478.947,15.1744)" />
    <g
       id="g3986"
       transform="translate(-422.947,32.5637)" />
    <g
       id="g3988"
       transform="matrix(0.195657,0,0,0.195657,-520.795,-7.91772)" />
    <g
       id="g7052"
       transform="matrix(0.133333,0,0,0.133333,-546.157,78.6704)" />
    <g
       id="g3991"
       transform="matrix(1.06667,0,0,1.06667,-481.614,13.15)" />
    <text
       id="text7083"
       style="font-size:18px;font-style:normal;font-weight:normal;fill:#000000;fill-opacity:1;stroke:none;font-family:Bitstream Vera Sans"
       x="-2300.72"
       xml:space="preserve"
       y="-1624.85"><tspan
         id="tspan7085"
         sodipodi:role="line"
         x="-2300.72"
         y="-1624.85" /></text>
    <g
       id="g4080"
       transform="translate(-636.815,94.8305)" />
    <g
       id="g4082"
       transform="translate(-580.815,112.22)" />
    <g
       id="g4084"
       transform="matrix(0.195657,0,0,0.195657,-678.664,71.7384)" />
    <g
       id="g4086"
       transform="matrix(0.133333,0,0,0.133333,-704.025,158.325)" />
    <g
       id="g4088"
       transform="matrix(1.06667,0,0,1.06667,-639.482,92.8061)" />
    <text
       id="text4144"
       style="font-size:18px;font-style:normal;font-weight:normal;fill:#000000;fill-opacity:1;stroke:none;font-family:Bitstream Vera Sans"
       x="-2458.5901"
       xml:space="preserve"
       y="-1545.1899"><tspan
         id="tspan4146"
         sodipodi:role="line"
         x="-2458.5901"
         y="-1545.1899" /></text>
    <g
       id="g4148"
       inkscape:r_cx="true"
       inkscape:r_cy="true"
       style="opacity:0.548193;fill:none;stroke:url(#linearGradient4322);stroke-width:1.24928999;stroke-miterlimit:4;stroke-opacity:1;stroke-dasharray:none"
       transform="matrix(-1.28142,-1.07781,-1.08264,1.2757,-1005.58,91.7933)" />
    <g
       id="g4150"
       inkscape:r_cx="true"
       inkscape:r_cy="true"
       style="opacity:0.5;fill:none;stroke:#ffffff;stroke-opacity:1"
       transform="matrix(0.190868,0.16126,0.16126,-0.190868,-1105.2,104.749)" />
    <g
       id="g4152"
       transform="matrix(-3.5713,0,0,3.5713,-826.055,-191.505)" />
    <g
       id="g4154"
       transform="matrix(-1,0,0,1,-653.782,111.709)" />
    <g
       id="g4156"
       transform="matrix(-1.98995,0,0,1.98995,-736.817,-23.1996)" />
    <path
       d="m 126.27669,26.047559 c 0,0 27.706,-19.1784426 28.3664,-19.473152 2.86089,-1.27669 4.41794,-0.8823405 5.97995,0 0.79681,0.4501009 28.67307,19.933148 28.67307,19.933148 l -63.01942,-0.459996 z"
       id="path5302"
       sodipodi:nodetypes="csscc"
       style="fill:url(#linearGradient5304);fill-opacity:1;fill-rule:evenodd;stroke:none;display:inline" />
    <g
       id="g5463">
      <g
         id="g6009"
         transform="matrix(0.4322428,-0.1515592,0.1510381,0.433734,115.79905,10.012992)">
        <g
           id="g6013"
           transform="matrix(0.880541,0,0,0.749525,-48.0825,-187.824)" />
      </g>
      <g
         id="g6021"
         style="display:inline"
         transform="matrix(0,-0.2503034,0.4727818,0,121.6159,48.647957)" />
      <g
         id="g6029"
         style="display:inline"
         transform="matrix(0,-0.2503034,-0.4727818,0,193.75122,49.221787)" />
      <g
         id="g6037"
         transform="matrix(0.3652178,0,0,0.3532303,133.51073,4.1476459)" />
      <g
         id="g5603"
         style="display:inline"
         transform="translate(16.954,-28.9172)">
        <g
           id="g5643"
           style="display:inline"
           transform="matrix(-0.165776,0,0,0.193948,168.61,68.8301)">
          <g
             id="g5647"
             transform="translate(-1.01647,0.574524)">
            <g
               id="g5649" />
          </g>
        </g>
        <g
           id="g5653"
           style="display:inline"
           transform="matrix(-0.199154,0,0,0.193948,172.786,64.8541)">
          <g
             id="g5657"
             transform="translate(-1.01647,0.574524)">
            <g
               id="g5659" />
          </g>
        </g>
      </g>
    </g>
    <path
       d="m 128.74029,70.306048 c 0,0 18.80899,-13.286109 19.25732,-13.490272 1.9422,-0.884443 2.99925,-0.611252 4.05966,0 0.54094,0.311813 19.46552,13.80894 19.46552,13.80894 l -42.7825,-0.318668 z"
       id="path5353"
       sodipodi:nodetypes="csscc"
       style="fill:url(#linearGradient5355);fill-opacity:1;fill-rule:evenodd;stroke:none;display:inline" />
    <g
       id="g5517">
      <g
         id="g6291"
         transform="matrix(0.2970161,-0.1041441,0.103786,0.2980408,121.00966,58.647912)">
        <g
           id="g6295"
           transform="matrix(0.880541,0,0,0.749525,-48.0825,-187.824)" />
      </g>
      <g
         id="g6303"
         style="display:inline"
         transform="matrix(0,-0.1719962,0.3248726,0,125.00671,85.195972)" />
      <g
         id="g6311"
         style="display:inline"
         transform="matrix(0,-0.1719962,-0.3248726,0,174.57458,85.59028)" />
      <g
         id="g6319"
         transform="matrix(0.2509599,0,0,0.2427226,133.18026,54.617533)" />
      <g
         id="g5818">
        <g
           id="g9598"
           style="display:inline"
           transform="matrix(-0.129047,0,0,0.100506,171.006,73.868)">
          <g
             id="g9602"
             transform="translate(-1.01647,0.574524)">
            <g
               id="g9604" />
          </g>
        </g>
        <g
           id="g5778"
           style="display:inline"
           transform="matrix(-0.100331,0,0,0.100506,167.406,75.9063)">
          <g
             id="g5782"
             transform="translate(-1.01647,0.574524)">
            <g
               id="g5784" />
          </g>
        </g>
        <g
           id="g5792"
           style="display:inline"
           transform="matrix(-0.116383,0,0,0.100506,169.411,77.8867)">
          <g
             id="g5796"
             transform="translate(-1.01647,0.574524)">
            <g
               id="g5798" />
          </g>
        </g>
      </g>
    </g>
    <g
       id="g5567">
      <g
         id="g6608"
         transform="matrix(0.2082558,-0.07302165,0.07277056,0.2089742,125.89181,93.441489)">
        <g
           id="g6612"
           transform="matrix(0.880541,0,0,0.749525,-48.0825,-187.824)" />
      </g>
      <g
         id="g6620"
         style="display:inline"
         transform="matrix(0,-0.1205969,0.2277876,0,128.69439,112.05592)" />
      <g
         id="g6628"
         style="display:inline"
         transform="matrix(0,-0.1205969,-0.2277876,0,163.44938,112.33239)" />
      <g
         id="g6636"
         transform="matrix(0.175963,0,0,0.1701873,134.42535,90.615549)" />
      <g
         id="g5996"
         transform="translate(-0.932526,-0.938904)">
        <g
           id="g5864"
           style="display:inline"
           transform="matrix(-0.100249,0,0,0.0938929,162.398,103.975)">
          <g
             id="g5868"
             transform="translate(-1.01647,0.574524)">
            <g
               id="g5870" />
          </g>
        </g>
        <g
           id="g5982"
           style="display:inline"
           transform="matrix(-0.0832639,0,0,0.0938929,160.306,105.986)">
          <g
             id="g5986"
             transform="translate(-1.01647,0.574524)">
            <g
               id="g5988" />
          </g>
        </g>
      </g>
    </g>
    <g
       id="g5611">
      <g
         id="g6732"
         style="display:inline"
         transform="matrix(0.134869,0,0,0.130673,132.919,114.989)">
        <g
           id="g6740"
           transform="matrix(1.10729,-0.388254,0.386919,1.11111,-39.6975,22.5976)">
          <g
             id="g6744"
             transform="matrix(0.880541,0,0,0.749525,-48.0825,-187.824)" />
        </g>
        <g
           id="g6752"
           style="display:inline"
           transform="matrix(0,-0.64121,1.21114,0,-24.7963,121.57)" />
        <g
           id="g6760"
           style="display:inline"
           transform="matrix(0,-0.64121,-1.21114,0,159.995,123.04)" />
        <g
           id="g6768"
           transform="matrix(0.93559,0,0,0.904881,5.67505,7.57216)" />
      </g>
    </g>
    <g
       id="g5403">
      <g
         id="g5503"
         transform="matrix(0.99863,0,0,0.99863,0.0135322,0.0138967)">
        <path
           d="m 120.20815,120.32754 c 0,0.87868 -22.952231,1.59099 -51.265241,1.59099 -28.31301,0 -51.265239,-0.71231 -51.265239,-1.59099 0,-0.87868 22.952229,-1.59099 51.265239,-1.59099 28.31301,0 51.265241,0.71231 51.265241,1.59099 z"
           id="path2881"
           sodipodi:cx="68.942909"
           sodipodi:cy="120.32754"
           sodipodi:rx="51.26524"
           sodipodi:ry="1.5909902"
           sodipodi:type="arc"
           style="opacity:0.67142896;fill:url(#radialGradient4289);fill-opacity:1;fill-rule:nonzero;stroke:none;stroke-width:0.5;marker:none;visibility:visible;display:inline;overflow:visible"
           transform="matrix(1.11379,0,0,2.44444,-8.72911,-173.63)" />
        <path
           d="m 124,110.5 c 0,1.10457 -25.631696,2 -57.25,2 -31.618304,0 -57.2500038,-0.89543 -57.2500038,-2 0,-1.10457 25.6316998,-2 57.2500038,-2 31.618304,0 57.25,0.89543 57.25,2 z"
           id="path4039"
           sodipodi:cx="66.75"
           sodipodi:cy="110.5"
           sodipodi:rx="57.250004"
           sodipodi:ry="2"
           sodipodi:type="arc"
           style="opacity:0.775;fill:url(#radialGradient4291);fill-opacity:1;fill-rule:nonzero;stroke:none;stroke-width:0.57499999;marker:none;visibility:visible;display:inline;overflow:visible"
           transform="matrix(0.980527,0,0,2.09254,3.41467,-130.766)" />
        <path
           d="M 62.142975,11.798239 C 61.267607,12.314836 40.127364,26.926726 40.127364,26.926726 l -13.566061,9.303313 -13.566061,9.303313 c 0,0 -2.865245,3.24127 -2.865245,5.542399 l 0,64.161749 c 0,2.57554 2.131959,4.63752 4.794901,4.63752 l 104.786122,0 c 2.66294,0 4.82414,-2.06198 4.82414,-4.63752 l 0,-64.161749 -1.34491,-5.005126 -13.97539,-9.416423 c 0,0 -34.525869,-24.054328 -35.260056,-24.573188 C 70.679988,9.7666579 65.195602,9.9967386 62.142975,11.798239 z"
           id="rect2716"
           sodipodi:nodetypes="ccccccccccccss"
           style="fill:url(#linearGradient4293);fill-opacity:1;stroke:#737373;stroke-width:0.50068593;stroke-miterlimit:4;stroke-opacity:1;stroke-dasharray:none" />
        <path
           d="M 79.75,67.1875 C 79.75,80.683959 68.808959,91.625 55.3125,91.625 41.816041,91.625 30.875,80.683959 30.875,67.1875 30.875,53.691041 41.816041,42.75 55.3125,42.75 68.808959,42.75 79.75,53.691041 79.75,67.1875 z"
           id="path2668"
           sodipodi:cx="55.3125"
           sodipodi:cy="67.1875"
           sodipodi:rx="24.4375"
           sodipodi:ry="24.4375"
           sodipodi:type="arc"
           style="opacity:0.85751301;fill:url(#radialGradient4295);fill-opacity:1;fill-rule:nonzero;stroke:none;stroke-width:0.40000001;marker:none;visibility:visible;display:inline;overflow:visible"
           transform="matrix(2.07288,0,0,1.01292,-45.8943,-4.59394)" />
        <g
           id="g3831"
           transform="matrix(1.10729,-0.388254,0.386919,1.11111,-39.6975,22.5976)">
          <path
             d="m 22.525126,25 0,70 c 0,0 59.301301,0 59.301301,0 l 30.853023,-20.533488 0,-49.466512 -90.154324,0 0,0 0,0 z"
             id="path4956"
             sodipodi:nodetypes="cccccc"
             style="fill:url(#linearGradient4297);fill-opacity:1;stroke:none;display:inline;filter:url(#filter3693)"
             transform="matrix(0.799996,0,0,0.799996,22.5363,21.9995)" />
          <g
             id="g6008"
             transform="matrix(0.880541,0,0,0.749525,-48.0825,-187.824)">
            <path
               d="m 98.78125,27.1875 -74.875,26.28125 13.5,38.75 72.5625,0 7.1875,-12.28125 -18.375,-52.75 z"
               id="path34"
               style="fill:#ffffff;fill-opacity:1;stroke:#878787;stroke-width:1.00137055;stroke-miterlimit:4;stroke-opacity:1;stroke-dasharray:none"
               transform="matrix(0.914026,0.375217,-0.31829,1.0701,98.0827,241.304)" />
            <path
               clip-path="url(#clipPath7084-9)"
               d="m 41.879531,115.98249 c 0,0 24.309609,-24.309614 24.309609,-24.309614 0,0 -9.35314,2.913124 -19.60314,2.913124 0,10.25 -4.706469,21.39649 -4.706469,21.39649 z"
               id="path5540"
               sodipodi:nodetypes="cccc"
               style="opacity:0.4;fill:#000000;fill-opacity:1;filter:url(#filter6697-7)"
               transform="translate(106.997,277.011)" />
            <path
               d="m 146.16925,397.01058 c 0,0 11.914,-9.914 17.414,-15.414 5.5,-5.5 15.414,-17.414 15.414,-17.414 0,0 -13.75,8.828 -24,8.828 0,10.25 -8.828,24 -8.828,24 l 0,0 0,0 z"
               id="path14523"
               sodipodi:nodetypes="csccc"
               style="fill:url(#linearGradient4299);fill-opacity:1" />
          </g>
        </g>
        <g
           id="g3914"
           style="display:inline"
           transform="matrix(0,-0.64121,1.21114,0,-24.7963,121.57)">
          <path
             d="m 119.96875,48.8125 -53.65625,30.09375 -51.09375,-28.625 3,30.75 43.3125,0.46875 9.375,0 -2.625,-1.46875 5.40625,0 43.28125,-0.46875 3,-30.75 z"
             id="path3916"
             style="fill:url(#linearGradient4301);fill-opacity:1;fill-rule:evenodd;stroke:none;filter:url(#filter3685)"
             transform="matrix(0,0.825669,-1.55955,0,189.595,20.4735)" />
          <path
             d="M 64.932556,81.692603 64.067478,118.81572 8.0104561,119.16927 64.75954,73.560875 l 0.173016,8.131728 z"
             id="path3918"
             style="fill:url(#linearGradient4303);fill-opacity:1;fill-rule:evenodd;stroke:none;display:inline" />
          <path
             d="M 116.47474,121.79224 64.840652,76.303425 8.7188743,119.9543 116.47474,121.79224 z"
             id="path3920"
             sodipodi:nodetypes="cccc"
             style="fill:url(#linearGradient4305);fill-opacity:1;fill-rule:evenodd;stroke:none;display:inline" />
        </g>
        <g
           id="g3928"
           style="display:inline"
           transform="matrix(0,-0.64121,-1.21114,0,159.995,123.04)">
          <path
             d="M 64.932556,81.692603 64.067478,118.81572 8.0104561,119.16927 64.75954,73.560875 l 0.173016,8.131728 z"
             id="path3932"
             style="fill:url(#linearGradient4307);fill-opacity:1;fill-rule:evenodd;stroke:none;display:inline" />
          <path
             d="M 116.47474,121.79224 64.840652,76.303425 8.7188743,119.9543 116.47474,121.79224 z"
             id="path3934"
             sodipodi:nodetypes="cccc"
             style="fill:url(#linearGradient4309);fill-opacity:1;fill-rule:evenodd;stroke:none;display:inline" />
        </g>
        <path
           d="m 111.14859,112.32664 c 0,0 -41.796099,-34.831002 -42.332593,-35.453022 -2.372235,-2.750408 -9.368922,-2.345036 -12.002706,0.118344 -0.647842,0.605927 -36.143356,33.469648 -36.143356,33.469648 l 90.478655,1.86503 z"
           id="path2914"
           sodipodi:nodetypes="csscc"
           style="fill:#000000;fill-opacity:0.7819549;fill-rule:evenodd;stroke:none;display:inline;filter:url(#filter5284)"
           transform="matrix(1.04713,0,0,1.04713,-0.563246,-3.52195)" />
        <g
           id="g3909"
           transform="matrix(0.93559,0,0,0.904881,5.67505,7.57216)">
          <path
             d="m 124.25727,121.90494 c 0,0 -54.185908,-43.663137 -54.759336,-44.350542 -2.535549,-3.039523 -7.587213,-2.5919 -10.402317,0.130423 C 58.403175,78.354441 7.6500305,122.16453 7.6500305,122.16453 L 124.25727,121.90494 z"
             id="path3571"
             sodipodi:nodetypes="csscc"
             style="fill:url(#linearGradient4311);fill-opacity:1;fill-rule:evenodd;stroke:none;display:inline" />
        </g>
      </g>
      <rect
         height="74.481674"
         id="rect9080"
         rx="9.5459414"
         ry="9.5459414"
         style="fill:#434343;fill-opacity:1;fill-rule:nonzero;stroke:none;stroke-width:0.5;marker:none;visibility:visible;display:inline;overflow:visible;filter:url(#filter9120)"
         transform="matrix(0.565143,0,0,0.561952,59.3533,68.3361)"
         width="104.27991"
         x="15.470078"
         y="35.25" />
      <rect
         height="44.694466"
         id="rect3429"
         rx="5.7282643"
         ry="5.7282643"
         style="fill:url(#linearGradient3927);fill-opacity:1;fill-rule:nonzero;stroke:#545454;stroke-width:0.5;stroke-linecap:round;stroke-linejoin:miter;stroke-miterlimit:4;stroke-opacity:1;stroke-dasharray:none;stroke-dashoffset:0;marker:none;visibility:visible;display:inline;overflow:visible"
         width="64.689835"
         x="65.15509"
         y="85.150017" />
      <path
         d="m 129.97576,123.99927 c -0.82127,0.1837 -1.75818,0.29005 -2.75279,0.29005 l -61.937864,0 0.767641,2.71485 c 0,1.40243 1.883757,2.84581 5.164435,2.84581 l 52.845888,0 c 3.28068,0 5.03539,-1.8677 5.03539,-3.27013 l 0.8773,-2.58058 z"
         id="rect4209"
         sodipodi:nodetypes="cccccccc"
         style="opacity:0.80149799;fill:url(#linearGradient3924);fill-opacity:1;fill-rule:nonzero;stroke:none;stroke-width:0.5;marker:none;visibility:visible;display:inline;overflow:visible" />
      <path
         d="m 123.92737,129.5687 c 0.18991,-0.5278 0.29985,-1.12991 0.29985,-1.7691 l 0,-39.804731 2.58725,0.422853 c 1.44982,0 2.85112,1.731138 2.85112,3.839485 l -0.31018,32.986603 c 0,2.10834 -1.85876,3.90203 -3.30858,3.90203 l -2.11946,0.42286 z"
         id="path4223"
         sodipodi:nodetypes="cccccccc"
         style="opacity:0.80149799;fill:url(#linearGradient3921);fill-opacity:1;fill-rule:nonzero;stroke:none;stroke-width:0.5;marker:none;visibility:visible;display:inline;overflow:visible" />
      <path
         d="m 79.490355,90.997065 c -3.480846,0 -6.307614,2.434272 -6.307614,5.431806 0,2.997533 2.826768,5.431809 6.307614,5.431809 3.480848,0 6.307612,-2.434276 6.307612,-5.431809 0,-2.997534 -2.826764,-5.431807 -6.307612,-5.431806 l 0,0 z M 73.935026,101.54507 C 72.51336,101.60858 71.28928,102.63784 70,103.32245 L 70,115 l 8.641623,0 1.716751,0 L 89,115 89,103.32245 c -2.200373,-1.16839 -4.194304,-3.352734 -7.349238,0 l -2.160407,2.89032 -2.141117,-2.89032 c -1.1831,-1.25728 -2.197611,-1.73184 -3.124873,-1.77738 -0.09659,-0.005 -0.194562,-0.004 -0.289339,0 z"
         id="path3665"
         style="fill:url(#linearGradient3918);fill-opacity:1;fill-rule:nonzero;stroke:none;stroke-width:1;marker:none;visibility:visible;display:inline;overflow:visible" />
      <rect
         height="8.9597054"
         id="rect2383"
         inkscape:r_cx="true"
         inkscape:r_cy="true"
         rx="0"
         ry="0"
         style="opacity:0.73144902;fill:#000000;fill-opacity:1;fill-rule:evenodd;stroke:none;stroke-width:1;marker:none;visibility:visible;display:inline;overflow:visible"
         width="1.6477985"
         x="71.1978"
         y="118.03993" />
      <rect
         height="4.4577055"
         id="rect2385"
         inkscape:r_cx="true"
         inkscape:r_cy="true"
         rx="0"
         ry="0"
         style="opacity:0.73144902;fill:#000000;fill-opacity:1;fill-rule:evenodd;stroke:none;stroke-width:1;marker:none;visibility:visible;display:inline;overflow:visible"
         width="3.2955983"
         x="74.493393"
         y="117.99854" />
      <rect
         height="4.4577055"
         id="rect2387"
         inkscape:r_cx="true"
         inkscape:r_cy="true"
         style="opacity:0.73144902;fill:#000000;fill-opacity:1;fill-rule:evenodd;stroke:none;stroke-width:1;marker:none;visibility:visible;display:inline;overflow:visible"
         width="1.6477991"
         x="79.43679"
         y="117.99854" />
      <rect
         height="4.4577055"
         id="rect2389"
         inkscape:r_cx="true"
         inkscape:r_cy="true"
         style="opacity:0.73144902;fill:#000000;fill-opacity:1;fill-rule:evenodd;stroke:none;stroke-width:1;marker:none;visibility:visible;display:inline;overflow:visible"
         width="3.2955983"
         x="82.732391"
         y="117.99854" />
      <rect
         height="4.4577055"
         id="rect2393"
         inkscape:r_cx="true"
         inkscape:r_cy="true"
         style="opacity:0.73144902;fill:#000000;fill-opacity:1;fill-rule:evenodd;stroke:none;stroke-width:1;marker:none;visibility:visible;display:inline;overflow:visible"
         width="1.6326574"
         x="89.323586"
         y="117.99854" />
      <rect
         height="4.4577055"
         id="rect2397"
         inkscape:r_cx="true"
         inkscape:r_cy="true"
         style="opacity:0.73144902;fill:#000000;fill-opacity:1;fill-rule:evenodd;stroke:none;stroke-width:1;marker:none;visibility:visible;display:inline;overflow:visible"
         width="3.2955983"
         x="92.619186"
         y="117.99854" />
      <rect
         height="4.4577055"
         id="rect2399"
         inkscape:r_cx="true"
         inkscape:r_cy="true"
         style="opacity:0.73144902;fill:#000000;fill-opacity:1;fill-rule:evenodd;stroke:none;stroke-width:1;marker:none;visibility:visible;display:inline;overflow:visible"
         width="3.2955983"
         x="97.562584"
         y="117.99854" />
      <rect
         height="4.4577055"
         id="rect2401"
         inkscape:r_cx="true"
         inkscape:r_cy="true"
         style="opacity:0.73144902;fill:#000000;fill-opacity:1;fill-rule:evenodd;stroke:none;stroke-width:1;marker:none;visibility:visible;display:inline;overflow:visible"
         width="1.6478001"
         x="102.50598"
         y="118.03993" />
      <rect
         height="4.4577055"
         id="rect2403"
         inkscape:r_cx="true"
         inkscape:r_cy="true"
         style="opacity:0.73144902;fill:#000000;fill-opacity:1;fill-rule:evenodd;stroke:none;stroke-width:1;marker:none;visibility:visible;display:inline;overflow:visible"
         width="1.6477991"
         x="107.44938"
         y="117.99854" />
      <rect
         height="4.4577055"
         id="rect2407"
         inkscape:r_cx="true"
         inkscape:r_cy="true"
         style="opacity:0.73144902;fill:#000000;fill-opacity:1;fill-rule:evenodd;stroke:none;stroke-width:1;marker:none;visibility:visible;display:inline;overflow:visible"
         width="3.2955983"
         x="110.74497"
         y="117.99854" />
      <rect
         height="4.4577055"
         id="rect2409"
         inkscape:r_cx="true"
         inkscape:r_cy="true"
         style="opacity:0.73144902;fill:#000000;fill-opacity:1;fill-rule:evenodd;stroke:none;stroke-width:1;marker:none;visibility:visible;display:inline;overflow:visible"
         width="1.647801"
         x="118.98397"
         y="118.03993" />
      <rect
         height="8.9597054"
         id="rect2411"
         inkscape:r_cx="true"
         inkscape:r_cy="true"
         style="opacity:0.73144902;fill:#000000;fill-opacity:1;fill-rule:evenodd;stroke:none;stroke-width:1;marker:none;visibility:visible;display:inline;overflow:visible"
         width="1.6478001"
         x="122.27957"
         y="118.03993" />
      <path
         d="m 75.245163,125.71366 c 0.107659,0.0287 0.191566,0.0885 0.2517,0.17925 0.06088,0.0908 0.09133,0.20288 0.09133,0.33627 0,0.20473 -0.05643,0.36314 -0.16929,0.47524 -0.112857,0.11209 -0.27323,0.16813 -0.481126,0.16813 -0.0698,0 -0.141827,-0.009 -0.216064,-0.0264 -0.07351,-0.0167 -0.149612,-0.0421 -0.228319,-0.0764 l 0,-0.27097 c 0.06237,0.0454 0.130685,0.0797 0.20492,0.10283 0.07426,0.0232 0.151842,0.0347 0.232772,0.0347 0.141082,0 0.248368,-0.0347 0.321877,-0.10422 0.07424,-0.0695 0.111363,-0.17045 0.111363,-0.30293 0,-0.12227 -0.03453,-0.21769 -0.103567,-0.28624 -0.06832,-0.0695 -0.163729,-0.10422 -0.286224,-0.10422 l -0.193795,0 0,-0.23067 0.202696,0 c 0.110637,1e-5 0.195272,-0.0273 0.253929,-0.082 0.05866,-0.0556 0.08798,-0.13525 0.08798,-0.239 0,-0.10654 -0.03044,-0.18806 -0.09132,-0.24457 -0.06015,-0.0574 -0.146652,-0.0862 -0.259496,-0.0862 -0.06163,0 -0.127713,0.008 -0.198247,0.025 -0.07055,0.0167 -0.148132,0.0426 -0.23277,0.0778 l 0,-0.25012 c 0.08539,-0.0297 0.165197,-0.0519 0.239449,-0.0667 0.07499,-0.0148 0.14552,-0.0222 0.211601,-0.0222 0.170783,1e-5 0.305905,0.0486 0.405405,0.14591 0.09949,0.0963 0.14924,0.22696 0.14924,0.39185 0,0.11488 -0.02637,0.21214 -0.07908,0.29181 -0.05271,0.0787 -0.12771,0.1334 -0.224973,0.16397 m 0.964487,0.88237 0.785177,0 0,0.23622 -1.055822,0 0,-0.23622 c 0.0854,-0.11024 0.201593,-0.25799 0.348605,-0.44327 0.14776,-0.1862 0.240569,-0.30617 0.278429,-0.35989 0.07203,-0.10098 0.122139,-0.18621 0.150357,-0.25568 0.02895,-0.0704 0.04344,-0.13942 0.04344,-0.20705 0,-0.11024 -0.03118,-0.20009 -0.09356,-0.26957 -0.06163,-0.0695 -0.142187,-0.10422 -0.241673,-0.10422 -0.07053,0 -0.145163,0.0153 -0.223855,0.0459 -0.07797,0.0306 -0.161487,0.0769 -0.250592,0.13896 l 0,-0.28347 c 0.09059,-0.0454 0.17522,-0.0797 0.253925,-0.10283 0.07871,-0.0231 0.150735,-0.0347 0.216068,-0.0347 0.172249,1e-5 0.309607,0.0537 0.412084,0.16119 0.102461,0.10746 0.153692,0.25105 0.153692,0.43077 0,0.0852 -0.013,0.16628 -0.03898,0.24317 -0.02525,0.076 -0.07165,0.16582 -0.139216,0.26957 -0.01857,0.0269 -0.0776,0.10469 -0.177087,0.23345 -0.09949,0.12784 -0.239823,0.30709 -0.42099,0.53776 m 1.876629,-1.59383 -0.568002,1.10748 0.568002,0 0,-1.10748 m -0.05903,-0.24456 0.282896,0 0,1.35204 0.237222,0 0,0.23345 -0.237222,0 0,0.48912 -0.223865,0 0,-0.48912 -0.750649,0 0,-0.27096 0.691618,-1.31453 m 0.895449,0 0.883184,0 0,0.23623 -0.677155,0 0,0.50858 c 0.03267,-0.0139 0.06535,-0.0241 0.09801,-0.0306 0.03267,-0.007 0.06535,-0.0111 0.09801,-0.0111 0.185621,0 0.332635,0.0635 0.441042,0.19037 0.108405,0.12692 0.16261,0.29876 0.16261,0.51553 0,0.22325 -0.0557,0.39695 -0.167065,0.52108 -0.111381,0.12321 -0.268402,0.18481 -0.471112,0.18481 -0.06979,0 -0.141068,-0.007 -0.213826,-0.0222 -0.07203,-0.0148 -0.14664,-0.0371 -0.223867,-0.0667 l 0,-0.28208 c 0.06683,0.0454 0.135884,0.0792 0.207163,0.10144 0.07127,0.0222 0.146639,0.0333 0.226078,0.0333 0.128456,0 0.230171,-0.0422 0.305169,-0.12645 0.07499,-0.0843 0.112489,-0.19871 0.112489,-0.34322 0,-0.14452 -0.0375,-0.25893 -0.112489,-0.34322 -0.075,-0.0843 -0.176713,-0.12645 -0.305169,-0.12645 -0.06014,0 -0.120284,0.008 -0.180421,0.025 -0.0594,0.0167 -0.120282,0.0426 -0.182645,0.0778 l 0,-1.04217 m 2.657351,0.18481 c -0.115834,0 -0.203071,0.0713 -0.261727,0.214 -0.05792,0.14173 -0.08688,0.35526 -0.08688,0.64058 0,0.2844 0.02895,0.49793 0.08688,0.64059 0.05866,0.14174 0.145893,0.2126 0.261727,0.2126 0.116562,0 0.203815,-0.0709 0.261722,-0.2126 0.05866,-0.14266 0.08799,-0.35619 0.08799,-0.64059 0,-0.28532 -0.02933,-0.49885 -0.08799,-0.64058 -0.05791,-0.14266 -0.14516,-0.214 -0.261722,-0.214 m 0,-0.22233 c 0.186364,1e-5 0.328553,0.0922 0.426559,0.27653 0.09874,0.18342 0.148121,0.45022 0.148121,0.80038 0,0.34924 -0.04938,0.61604 -0.148121,0.80039 -0.09801,0.18342 -0.240195,0.27513 -0.426559,0.27513 -0.186368,0 -0.328927,-0.0917 -0.427668,-0.27513 -0.09801,-0.18435 -0.147013,-0.45115 -0.147013,-0.80039 0,-0.35016 0.049,-0.61696 0.147013,-0.80038 0.09874,-0.18435 0.2413,-0.27652 0.427668,-0.27653 m 0.973389,0.0375 0.883184,0 0,0.23623 -0.67714,0 0,0.50858 c 0.03268,-0.0139 0.06533,-0.0241 0.09801,-0.0306 0.03267,-0.007 0.06533,-0.0111 0.09801,-0.0111 0.185619,0 0.332631,0.0635 0.441036,0.19037 0.108396,0.12692 0.162598,0.29876 0.162598,0.51553 0,0.22325 -0.05568,0.39695 -0.167047,0.52108 -0.111383,0.12321 -0.268419,0.18481 -0.471117,0.18481 -0.06978,0 -0.141064,-0.007 -0.213838,-0.0222 -0.07201,-0.0148 -0.146641,-0.0371 -0.223851,-0.0667 l 0,-0.28208 c 0.06683,0.0454 0.135866,0.0792 0.207147,0.10144 0.07128,0.0222 0.146638,0.0333 0.226093,0.0333 0.128441,0 0.230171,-0.0422 0.305156,-0.12645 0.07499,-0.0843 0.112487,-0.19871 0.112487,-0.34322 0,-0.14452 -0.0375,-0.25893 -0.112487,-0.34322 -0.07498,-0.0843 -0.176715,-0.12645 -0.305156,-0.12645 -0.06015,0 -0.120286,0.008 -0.180419,0.025 -0.0594,0.0167 -0.120286,0.0426 -0.182664,0.0778 l 0,-1.04217 m 1.452308,0 0.883184,0 0,0.23623 -0.677143,0 0,0.50858 c 0.03266,-0.0139 0.06533,-0.0241 0.09801,-0.0306 0.03266,-0.007 0.06534,-0.0111 0.09801,-0.0111 0.185618,0 0.332633,0.0635 0.441025,0.19037 0.108408,0.12692 0.162612,0.29876 0.162612,0.51553 0,0.22325 -0.05569,0.39695 -0.167066,0.52108 -0.111365,0.12321 -0.268402,0.18481 -0.471097,0.18481 -0.0698,0 -0.141082,-0.007 -0.21384,-0.0222 -0.07203,-0.0148 -0.14664,-0.0371 -0.223852,-0.0667 l 0,-0.28208 c 0.06681,0.0454 0.135868,0.0792 0.207149,0.10144 0.07128,0.0222 0.146638,0.0333 0.226089,0.0333 0.128444,0 0.230157,-0.0422 0.305158,-0.12645 0.07498,-0.0843 0.112485,-0.19871 0.112485,-0.34322 0,-0.14452 -0.0375,-0.25893 -0.112485,-0.34322 -0.075,-0.0843 -0.176714,-0.12645 -0.305158,-0.12645 -0.06015,0 -0.120283,0.008 -0.180433,0.025 -0.0594,0.0167 -0.120282,0.0426 -0.182645,0.0778 l 0,-1.04217 m 1.393273,0 1.069176,0 0,0.1195 -0.603648,1.95511 -0.234994,0 0.568001,-1.83838 -0.798535,0 0,-0.23623 m 2.237481,0 0.883184,0 0,0.23623 -0.677155,0 0,0.50858 c 0.03268,-0.0139 0.06535,-0.0241 0.09801,-0.0306 0.03267,-0.007 0.06535,-0.0111 0.09801,-0.0111 0.18562,0 0.332631,0.0635 0.441039,0.19037 0.108407,0.12692 0.162611,0.29876 0.162611,0.51553 0,0.22325 -0.0557,0.39695 -0.167064,0.52108 -0.111379,0.12321 -0.268416,0.18481 -0.471114,0.18481 -0.06978,0 -0.141065,-0.007 -0.213826,-0.0222 -0.07203,-0.0148 -0.146638,-0.0371 -0.223865,-0.0667 l 0,-0.28208 c 0.06683,0.0454 0.135882,0.0792 0.207163,0.10144 0.07127,0.0222 0.146638,0.0333 0.226076,0.0333 0.128457,0 0.230172,-0.0422 0.305157,-0.12645 0.075,-0.0843 0.112486,-0.19871 0.112501,-0.34322 -1.5e-5,-0.14452 -0.0375,-0.25893 -0.112501,-0.34322 -0.07498,-0.0843 -0.1767,-0.12645 -0.305157,-0.12645 -0.06013,0 -0.120285,0.008 -0.180419,0.025 -0.0594,0.0167 -0.120285,0.0426 -0.182647,0.0778 l 0,-1.04217 m 1.489045,1.83839 0.367533,0 0,-1.58271 -0.399835,0.10005 0,-0.25568 0.397609,-0.10005 0.224971,0 0,1.83839 0.367533,0 0,0.23622 -0.957811,0 0,-0.23622 m 1.89445,-1.65358 c -0.115832,0 -0.203069,0.0713 -0.261724,0.214 -0.05791,0.14173 -0.08686,0.35526 -0.08686,0.64058 0,0.2844 0.02895,0.49793 0.08686,0.64059 0.05866,0.14174 0.145892,0.2126 0.261724,0.2126 0.116564,0 0.203816,-0.0709 0.261725,-0.2126 0.05866,-0.14266 0.08798,-0.35619 0.08798,-0.64059 0,-0.28532 -0.02933,-0.49885 -0.08798,-0.64058 -0.05791,-0.14266 -0.145161,-0.214 -0.261725,-0.214 m 0,-0.22233 c 0.186366,1e-5 0.328551,0.0922 0.426561,0.27653 0.09874,0.18342 0.148119,0.45022 0.148119,0.80038 0,0.34924 -0.04938,0.61604 -0.148119,0.80039 -0.09801,0.18342 -0.240195,0.27513 -0.426561,0.27513 -0.186365,0 -0.328912,-0.0917 -0.427668,-0.27513 -0.09801,-0.18435 -0.147012,-0.45115 -0.147012,-0.80039 0,-0.35016 0.049,-0.61696 0.147012,-0.80038 0.09876,-0.18435 0.241303,-0.27652 0.427668,-0.27653 m 1.480139,0.96297 c -0.100967,0 -0.181165,0.0431 -0.240554,0.12923 -0.05866,0.0862 -0.08799,0.20426 -0.08799,0.35434 0,0.14914 0.02933,0.26725 0.08799,0.35433 0.05939,0.0862 0.139587,0.12923 0.240554,0.12923 0.100982,0 0.180808,-0.0431 0.239463,-0.12923 0.05939,-0.0871 0.08909,-0.20519 0.08909,-0.35433 0,-0.15008 -0.0297,-0.26819 -0.08909,-0.35434 -0.05866,-0.0862 -0.138481,-0.12923 -0.239463,-0.12923 m 0.446613,-0.87959 0,0.25568 c -0.05643,-0.0333 -0.113606,-0.0588 -0.171517,-0.0764 -0.05718,-0.0176 -0.113965,-0.0264 -0.170395,-0.0264 -0.148506,0 -0.262097,0.0625 -0.340804,0.18759 -0.07796,0.12506 -0.122511,0.31404 -0.133642,0.56694 0.04381,-0.0806 0.09874,-0.14219 0.164825,-0.18481 0.06608,-0.0435 0.138838,-0.0653 0.21829,-0.0653 0.167064,0 0.298851,0.0635 0.395368,0.19037 0.09728,0.12599 0.145904,0.29783 0.145904,0.51553 0,0.21306 -0.0505,0.38398 -0.151462,0.51274 -0.100982,0.12877 -0.23537,0.19315 -0.40318,0.19315 -0.192297,0 -0.33931,-0.0917 -0.441024,-0.27513 -0.10173,-0.18435 -0.152586,-0.45115 -0.152586,-0.80039 0,-0.32793 0.06236,-0.58917 0.187114,-0.78371 0.124739,-0.19546 0.292158,-0.29319 0.502277,-0.2932 0.05643,1e-5 0.113234,0.007 0.170412,0.0209 0.05791,0.0139 0.118042,0.0347 0.18042,0.0625 m 1.22509,-0.0459 0.883195,0 0,0.23623 -0.677157,0 0,0.50858 c 0.03268,-0.0139 0.06535,-0.0241 0.09801,-0.0306 0.03268,-0.007 0.06535,-0.0111 0.09801,-0.0111 0.185618,0 0.332631,0.0635 0.441038,0.19037 0.108405,0.12692 0.16261,0.29876 0.16261,0.51553 0,0.22325 -0.0557,0.39695 -0.167064,0.52108 -0.11138,0.12321 -0.268418,0.18481 -0.471112,0.18481 -0.06979,0 -0.141067,-0.007 -0.213824,-0.0222 -0.07203,-0.0148 -0.146642,-0.0371 -0.223865,-0.0667 l 0,-0.28208 c 0.06683,0.0454 0.13588,0.0792 0.207162,0.10144 0.07126,0.0222 0.146637,0.0333 0.226074,0.0333 0.128456,0 0.230172,-0.0422 0.305156,-0.12645 0.075,-0.0843 0.112489,-0.19871 0.112501,-0.34322 -1.2e-5,-0.14452 -0.0375,-0.25893 -0.112501,-0.34322 -0.07498,-0.0843 -0.1767,-0.12645 -0.305156,-0.12645 -0.06014,0 -0.120282,0.008 -0.180419,0.025 -0.0594,0.0167 -0.120284,0.0426 -0.182657,0.0778 l 0,-1.04217 m 2.068202,0.24456 -0.568001,1.10748 0.568001,0 0,-1.10748 m -0.05903,-0.24456 0.28288,0 0,1.35204 0.237223,0 0,0.23345 -0.237223,0 0,0.48912 -0.223852,0 0,-0.48912 -0.750661,0 0,-0.27096 0.691633,-1.31453 m 1.374332,0.18481 c -0.115834,0 -0.203071,0.0713 -0.261724,0.214 -0.05791,0.14173 -0.08686,0.35526 -0.08686,0.64058 0,0.2844 0.02895,0.49793 0.08686,0.64059 0.05865,0.14174 0.14589,0.2126 0.261724,0.2126 0.116565,0 0.203814,-0.0709 0.261724,-0.2126 0.05866,-0.14266 0.08798,-0.35619 0.08798,-0.64059 0,-0.28532 -0.02933,-0.49885 -0.08798,-0.64058 -0.05791,-0.14266 -0.145159,-0.214 -0.261724,-0.214 m 0,-0.22233 c 0.186364,1e-5 0.328551,0.0922 0.426562,0.27653 0.09874,0.18342 0.148119,0.45022 0.148119,0.80038 0,0.34924 -0.04938,0.61604 -0.148119,0.80039 -0.09801,0.18342 -0.240198,0.27513 -0.426562,0.27513 -0.186368,0 -0.328926,-0.0917 -0.427668,-0.27513 -0.09801,-0.18435 -0.147012,-0.45115 -0.147012,-0.80039 0,-0.35016 0.049,-0.61696 0.147012,-0.80038 0.09874,-0.18435 0.2413,-0.27652 0.427668,-0.27653 m 1.480138,0.96297 c -0.100967,0 -0.181165,0.0431 -0.240552,0.12923 -0.05866,0.0862 -0.08799,0.20426 -0.08799,0.35434 0,0.14914 0.02933,0.26725 0.08799,0.35433 0.05939,0.0862 0.139585,0.12923 0.240552,0.12923 0.100982,0 0.180795,-0.0431 0.23945,-0.12923 0.0594,-0.0871 0.0891,-0.20519 0.0891,-0.35433 0,-0.15008 -0.0297,-0.26819 -0.0891,-0.35434 -0.05866,-0.0862 -0.138468,-0.12923 -0.23945,-0.12923 m 0.446612,-0.87959 0,0.25568 c -0.05643,-0.0333 -0.113608,-0.0588 -0.171517,-0.0764 -0.05718,-0.0176 -0.113978,-0.0264 -0.170392,-0.0264 -0.148507,0 -0.2621,0.0625 -0.340804,0.18759 -0.07796,0.12506 -0.12251,0.31404 -0.133657,0.56694 0.0438,-0.0806 0.09876,-0.14219 0.164836,-0.18481 0.06608,-0.0435 0.138842,-0.0653 0.218294,-0.0653 0.167062,0 0.298851,0.0635 0.395365,0.19037 0.09728,0.12599 0.145907,0.29783 0.145907,0.51553 0,0.21306 -0.0505,0.38398 -0.151465,0.51274 -0.100979,0.12877 -0.23537,0.19315 -0.403179,0.19315 -0.192296,0 -0.339312,-0.0917 -0.441027,-0.27513 -0.101725,-0.18435 -0.152582,-0.45115 -0.152582,-0.80039 0,-0.32793 0.06236,-0.58917 0.187097,-0.78371 0.124739,-0.19546 0.292173,-0.29319 0.502295,-0.2932 0.05643,1e-5 0.113232,0.007 0.170409,0.0209 0.05791,0.0139 0.118045,0.0347 0.18042,0.0625 m 1.225091,-0.0459 0.8832,0 0,0.23623 -0.67715,0 0,0.50858 c 0.0327,-0.0139 0.0653,-0.0241 0.098,-0.0306 0.0327,-0.007 0.0653,-0.0111 0.098,-0.0111 0.18561,0 0.33262,0.0635 0.44103,0.19037 0.10841,0.12692 0.1626,0.29876 0.16261,0.51553 -1e-5,0.22325 -0.0557,0.39695 -0.16706,0.52108 -0.11138,0.12321 -0.26842,0.18481 -0.47111,0.18481 -0.0698,0 -0.14107,-0.007 -0.21383,-0.0222 -0.072,-0.0148 -0.14664,-0.0371 -0.22387,-0.0667 l 0,-0.28208 c 0.0668,0.0454 0.13589,0.0792 0.20715,0.10144 0.0713,0.0222 0.14666,0.0333 0.22609,0.0333 0.12846,0 0.23017,-0.0422 0.30516,-0.12645 0.075,-0.0843 0.11249,-0.19871 0.11249,-0.34322 0,-0.14452 -0.0375,-0.25893 -0.11249,-0.34322 -0.075,-0.0843 -0.1767,-0.12645 -0.30516,-0.12645 -0.0601,0 -0.12028,0.008 -0.18041,0.025 -0.0594,0.0167 -0.12029,0.0426 -0.18267,0.0778 l 0,-1.04217 m 2.06819,0.24456 -0.56798,1.10748 0.56798,0 0,-1.10748 m -0.059,-0.24456 0.28286,0 0,1.35204 0.23724,0 0,0.23345 -0.23724,0 0,0.48912 -0.22386,0 0,-0.48912 -0.75065,0 0,-0.27096 0.69165,-1.31453 m 1.40217,0.92545 c -0.10098,0 -0.18117,0.0431 -0.24056,0.12923 -0.0587,0.0862 -0.088,0.20426 -0.088,0.35434 0,0.14914 0.0293,0.26725 0.088,0.35433 0.0594,0.0862 0.13958,0.12923 0.24056,0.12923 0.10098,0 0.1808,-0.0431 0.23946,-0.12923 0.0594,-0.0871 0.0891,-0.20519 0.0891,-0.35433 -2e-5,-0.15008 -0.0297,-0.26819 -0.0891,-0.35434 -0.0587,-0.0862 -0.13848,-0.12923 -0.23946,-0.12923 m 0.44659,-0.87959 0,0.25568 c -0.0564,-0.0333 -0.11359,-0.0588 -0.17151,-0.0764 -0.0571,-0.0176 -0.11396,-0.0264 -0.17039,-0.0264 -0.1485,0 -0.26209,0.0625 -0.34081,0.18759 -0.078,0.12506 -0.12251,0.31404 -0.13363,0.56694 0.0438,-0.0806 0.0987,-0.14219 0.16481,-0.18481 0.0661,-0.0435 0.13886,-0.0653 0.2183,-0.0653 0.16707,0 0.29885,0.0635 0.39539,0.19037 0.0973,0.12599 0.14589,0.29783 0.14589,0.51553 0,0.21306 -0.0505,0.38398 -0.15147,0.51274 -0.10098,0.12877 -0.23537,0.19315 -0.40317,0.19315 -0.19231,0 -0.33932,-0.0917 -0.44104,-0.27513 -0.10173,-0.18435 -0.15259,-0.45115 -0.15259,-0.80039 0,-0.32793 0.0624,-0.58917 0.18712,-0.78371 0.12474,-0.19546 0.29217,-0.29319 0.50229,-0.2932 0.0564,10e-6 0.11323,0.007 0.1704,0.0209 0.0579,0.0139 0.11807,0.0347 0.18041,0.0625 m 0.49896,-0.0459 0.88319,0 0,0.23623 -0.67715,0 0,0.50858 c 0.0327,-0.0139 0.0654,-0.0241 0.098,-0.0306 0.0327,-0.007 0.0653,-0.0111 0.098,-0.0111 0.18563,0 0.33264,0.0635 0.44105,0.19037 0.1084,0.12692 0.16259,0.29876 0.16259,0.51553 0,0.22325 -0.0557,0.39695 -0.16705,0.52108 -0.11139,0.12321 -0.26842,0.18481 -0.47111,0.18481 -0.0698,0 -0.14107,-0.007 -0.21382,-0.0222 -0.072,-0.0148 -0.14665,-0.0371 -0.22388,-0.0667 l 0,-0.28208 c 0.0668,0.0454 0.13589,0.0792 0.20716,0.10144 0.0713,0.0222 0.14664,0.0333 0.22608,0.0333 0.12847,0 0.23017,-0.0422 0.30516,-0.12645 0.075,-0.0843 0.11249,-0.19871 0.11249,-0.34322 0,-0.14452 -0.0375,-0.25893 -0.11249,-0.34322 -0.075,-0.0843 -0.17669,-0.12645 -0.30516,-0.12645 -0.0601,0 -0.12027,0.008 -0.18042,0.025 -0.0594,0.0167 -0.12029,0.0426 -0.18265,0.0778 l 0,-1.04217 m 2.11942,0 1.06918,0 0,0.1195 -0.60364,1.95511 -0.235,0 0.568,-1.83838 -0.79854,0 0,-0.23623 m 1.99025,0.18481 c -0.11583,0 -0.20308,0.0713 -0.26174,0.214 -0.0579,0.14173 -0.0869,0.35526 -0.0869,0.64058 0,0.2844 0.029,0.49793 0.0869,0.64059 0.0587,0.14174 0.14591,0.2126 0.26174,0.2126 0.11656,0 0.2038,-0.0709 0.26172,-0.2126 0.0587,-0.14266 0.088,-0.35619 0.088,-0.64059 0,-0.28532 -0.0293,-0.49885 -0.088,-0.64058 -0.0579,-0.14266 -0.14516,-0.214 -0.26172,-0.214 m 0,-0.22233 c 0.18634,1e-5 0.32852,0.0922 0.42653,0.27653 0.0988,0.18342 0.14815,0.45022 0.14815,0.80038 0,0.34924 -0.0494,0.61604 -0.14815,0.80039 -0.098,0.18342 -0.24019,0.27513 -0.42653,0.27513 -0.18638,0 -0.32893,-0.0917 -0.42769,-0.27513 -0.098,-0.18435 -0.14701,-0.45115 -0.14701,-0.80039 0,-0.35016 0.049,-0.61696 0.14701,-0.80038 0.0988,-0.18435 0.24131,-0.27652 0.42769,-0.27653 m 1.48013,0.96297 c -0.10098,0 -0.18116,0.0431 -0.24057,0.12923 -0.0586,0.0862 -0.088,0.20426 -0.088,0.35434 0,0.14914 0.0293,0.26725 0.088,0.35433 0.0594,0.0862 0.13959,0.12923 0.24057,0.12923 0.10096,0 0.1808,-0.0431 0.23946,-0.12923 0.0594,-0.0871 0.0891,-0.20519 0.0891,-0.35433 0,-0.15008 -0.0297,-0.26819 -0.0891,-0.35434 -0.0587,-0.0862 -0.1385,-0.12923 -0.23946,-0.12923 m 0.4466,-0.87959 0,0.25568 c -0.0564,-0.0333 -0.11361,-0.0588 -0.17152,-0.0764 -0.0572,-0.0176 -0.11395,-0.0264 -0.17039,-0.0264 -0.1485,0 -0.26211,0.0625 -0.34081,0.18759 -0.078,0.12506 -0.1225,0.31404 -0.13363,0.56694 0.0438,-0.0806 0.0987,-0.14219 0.16482,-0.18481 0.0661,-0.0435 0.13886,-0.0653 0.21829,-0.0653 0.16706,0 0.29885,0.0635 0.39537,0.19037 0.0973,0.12599 0.14589,0.29783 0.14589,0.51553 0,0.21306 -0.0505,0.38398 -0.15145,0.51274 -0.10098,0.12877 -0.23538,0.19315 -0.40317,0.19315 -0.19231,0 -0.33932,-0.0917 -0.44103,-0.27513 -0.10174,-0.18435 -0.15259,-0.45115 -0.15259,-0.80039 0,-0.32793 0.0624,-0.58917 0.18711,-0.78371 0.12473,-0.19546 0.29215,-0.29319 0.50228,-0.2932 0.0564,1e-5 0.11324,0.007 0.17041,0.0209 0.0579,0.0139 0.11805,0.0347 0.18042,0.0625 m 0.49896,-0.0459 0.88318,0 0,0.23623 -0.67715,0 0,0.50858 c 0.0327,-0.0139 0.0654,-0.0241 0.098,-0.0306 0.0327,-0.007 0.0653,-0.0111 0.098,-0.0111 0.18562,0 0.33263,0.0635 0.44103,0.19037 0.10841,0.12692 0.16261,0.29876 0.16261,0.51553 0,0.22325 -0.0557,0.39695 -0.16705,0.52108 -0.11139,0.12321 -0.26842,0.18481 -0.47112,0.18481 -0.0698,0 -0.14106,-0.007 -0.21383,-0.0222 -0.072,-0.0148 -0.14663,-0.0371 -0.22386,-0.0667 l 0,-0.28208 c 0.0668,0.0454 0.13589,0.0792 0.20715,0.10144 0.0713,0.0222 0.14665,0.0333 0.22608,0.0333 0.12846,0 0.23017,-0.0422 0.30516,-0.12645 0.075,-0.0843 0.11249,-0.19871 0.11251,-0.34322 -2e-5,-0.14452 -0.0375,-0.25893 -0.11251,-0.34322 -0.075,-0.0843 -0.1767,-0.12645 -0.30516,-0.12645 -0.0601,0 -0.12029,0.008 -0.18041,0.025 -0.0594,0.0167 -0.12029,0.0426 -0.18265,0.0778 l 0,-1.04217 m 2.11941,0 1.06919,0 0,0.1195 -0.60365,1.95511 -0.235,0 0.56801,-1.83838 -0.79855,0 0,-0.23623 m 2.01808,0.92545 c -0.10098,0 -0.18117,0.0431 -0.24056,0.12923 -0.0587,0.0862 -0.088,0.20426 -0.088,0.35434 0,0.14914 0.0293,0.26725 0.088,0.35433 0.0594,0.0862 0.13958,0.12923 0.24056,0.12923 0.10098,0 0.18079,-0.0431 0.23945,-0.12923 0.0594,-0.0871 0.0891,-0.20519 0.0891,-0.35433 0,-0.15008 -0.0297,-0.26819 -0.0891,-0.35434 -0.0587,-0.0862 -0.13847,-0.12923 -0.23945,-0.12923 m 0.44662,-0.87959 0,0.25568 c -0.0564,-0.0333 -0.11361,-0.0588 -0.17152,-0.0764 -0.0572,-0.0176 -0.11397,-0.0264 -0.17041,-0.0264 -0.1485,0 -0.26211,0.0625 -0.34081,0.18759 -0.078,0.12506 -0.12251,0.31404 -0.13363,0.56694 0.0438,-0.0806 0.0987,-0.14219 0.16483,-0.18481 0.0661,-0.0435 0.13885,-0.0653 0.2183,-0.0653 0.16703,0 0.29883,0.0635 0.39535,0.19037 0.0973,0.12599 0.14589,0.29783 0.14589,0.51553 0,0.21306 -0.0505,0.38398 -0.15145,0.51274 -0.10098,0.12877 -0.23536,0.19315 -0.40317,0.19315 -0.19229,0 -0.3393,-0.0917 -0.44103,-0.27513 -0.10172,-0.18435 -0.15258,-0.45115 -0.15258,-0.80039 0,-0.32793 0.0624,-0.58917 0.1871,-0.78371 0.12473,-0.19546 0.29217,-0.29319 0.50229,-0.2932 0.0564,1e-5 0.11322,0.007 0.1704,0.0209 0.0579,0.0139 0.11804,0.0347 0.18044,0.0625 m 0.43991,-0.0459 1.06918,0 0,0.1195 -0.60365,1.95511 -0.23498,0 0.56798,-1.83838 -0.79853,0 0,-0.23623 m 1.51579,2.03154 0,-0.25568 c 0.0564,0.0333 0.11359,0.0588 0.1715,0.0764 0.0579,0.0176 0.11472,0.0264 0.17041,0.0264 0.1485,0 0.26171,-0.0621 0.33968,-0.1862 0.0787,-0.12506 0.12362,-0.3145 0.13475,-0.56833 -0.0431,0.0797 -0.0976,0.14081 -0.16371,0.18342 -0.0661,0.0426 -0.13921,0.0639 -0.2194,0.0639 -0.16632,0 -0.29811,-0.0625 -0.39537,-0.18759 -0.0965,-0.12599 -0.14479,-0.29783 -0.14479,-0.51553 0,-0.21306 0.0505,-0.38398 0.15145,-0.51275 0.101,-0.12876 0.23539,-0.19314 0.40319,-0.19315 0.19229,1e-5 0.33894,0.0922 0.43992,0.27653 0.10171,0.18342 0.15256,0.45022 0.15259,0.80038 -3e-5,0.32701 -0.0624,0.58825 -0.18712,0.78372 -0.12399,0.19453 -0.29104,0.2918 -0.50117,0.2918 -0.0564,0 -0.11361,-0.007 -0.17152,-0.0208 -0.0579,-0.0139 -0.11804,-0.0347 -0.18041,-0.0625 m 0.44771,-0.87959 c 0.10096,0 0.1808,-0.0431 0.23944,-0.12923 0.0594,-0.0862 0.0891,-0.20427 0.0891,-0.35434 0,-0.14915 -0.0297,-0.26679 -0.0891,-0.35295 -0.0586,-0.0871 -0.13848,-0.13062 -0.23944,-0.13062 -0.10098,0 -0.18117,0.0436 -0.24057,0.13062 -0.0586,0.0862 -0.088,0.2038 -0.088,0.35295 0,0.15007 0.0293,0.26819 0.088,0.35434 0.0594,0.0862 0.13959,0.12923 0.24057,0.12923 m 1.00458,0.87959 0,-0.25568 c 0.0564,0.0333 0.11361,0.0588 0.17151,0.0764 0.0579,0.0176 0.11471,0.0264 0.17042,0.0264 0.14848,0 0.26172,-0.0621 0.33968,-0.1862 0.0787,-0.12506 0.12361,-0.3145 0.13476,-0.56833 -0.0431,0.0797 -0.0977,0.14081 -0.16372,0.18342 -0.0661,0.0426 -0.13923,0.0639 -0.21942,0.0639 -0.16631,0 -0.29809,-0.0625 -0.39536,-0.18759 -0.0965,-0.12599 -0.14478,-0.29783 -0.14478,-0.51553 0,-0.21306 0.0505,-0.38398 0.15145,-0.51275 0.10099,-0.12876 0.23538,-0.19314 0.40317,-0.19315 0.19231,1e-5 0.33895,0.0922 0.43994,0.27653 0.10171,0.18342 0.15257,0.45022 0.15257,0.80038 0,0.32701 -0.0624,0.58825 -0.1871,0.78372 -0.12401,0.19453 -0.29105,0.2918 -0.50119,0.2918 -0.0564,0 -0.11359,-0.007 -0.17152,-0.0208 -0.0579,-0.0139 -0.11804,-0.0347 -0.18041,-0.0625 m 0.44771,-0.87959 c 0.10099,0 0.1808,-0.0431 0.23944,-0.12923 0.0594,-0.0862 0.0891,-0.20427 0.0891,-0.35434 0,-0.14915 -0.0297,-0.26679 -0.0891,-0.35295 -0.0586,-0.0871 -0.13845,-0.13062 -0.23944,-0.13062 -0.10096,0 -0.18116,0.0436 -0.24056,0.13062 -0.0587,0.0862 -0.088,0.2038 -0.088,0.35295 0,0.15007 0.0293,0.26819 0.088,0.35434 0.0594,0.0862 0.1396,0.12923 0.24056,0.12923"
         id="path2413"
         inkscape:r_cx="true"
         inkscape:r_cy="true"
         style="font-size:1.58811998px;font-style:normal;font-variant:normal;font-weight:normal;font-stretch:normal;line-height:120.00000477%;text-anchor:start;opacity:0.73144902;fill:#000000;fill-opacity:1;stroke:none;font-family:Bitstream Vera Sans" />
      <rect
         height="4.4577055"
         id="rect2474"
         inkscape:r_cx="true"
         inkscape:r_cy="true"
         style="opacity:0.73144902;fill:#000000;fill-opacity:1;fill-rule:evenodd;stroke:none;stroke-width:1;marker:none;visibility:visible;display:inline;overflow:visible"
         width="1.6477991"
         x="115.68837"
         y="117.99854" />
      <g
         id="g3573"
         transform="matrix(-0.461659,0,0,0.320973,148.275,102.325)">
        <rect
           height="8.8477125"
           id="rect5736"
           rx="3.7617927"
           ry="3.6865468"
           style="fill:url(#radialGradient5595);fill-opacity:1;fill-rule:nonzero;stroke:#2e3436;stroke-width:0.79249102;stroke-linecap:round;stroke-linejoin:miter;stroke-miterlimit:4;stroke-opacity:1;stroke-dasharray:none;stroke-dashoffset:0;marker:none;visibility:visible;display:inline;overflow:visible"
           width="60.006844"
           x="63.742355"
           y="11.472268" />
        <g
           id="g3555"
           transform="translate(-1.01647,0.574524)">
          <g
             id="g3560">
            <path
               d="m 65.537331,15.136255 c 0.04237,0.597954 0.227552,1.407788 0.525873,1.927739 0.280374,0.48867 0.820897,1.069766 1.31468,1.341035 0.424074,0.232973 1.577617,0.335259 1.577617,0.335259 l 52.937809,-0.08382 c 0,0 1.18608,-0.40518 1.57762,-0.754333 0.22154,-0.197561 0.39733,-0.570585 0.52587,-0.838146 0.20756,-0.432034 0.26767,-1.030807 0.3049,-1.508666 0.0457,-0.586032 0.0991,-1.474639 -0.12961,-2.016127 -0.26434,-0.625849 -0.7945,-1.318535 -1.31469,-1.755535 -0.26778,-0.224962 -1.05175,-0.502889 -1.05175,-0.502889 l -53.288376,-0.08382 c 0,0 -0.982002,0.110858 -1.272715,0.286491 -0.562763,0.339993 -1.138255,0.989073 -1.444292,1.557433 -0.306037,0.56836 -0.307716,1.463414 -0.262936,2.09537 l 0,9e-6 z"
               id="path3551"
               sodipodi:nodetypes="cssccsssssccszs"
               style="opacity:0.858657;fill:none;stroke:url(#linearGradient5597);stroke-width:0.5;stroke-linecap:butt;stroke-linejoin:miter;stroke-miterlimit:4;stroke-opacity:1;stroke-dasharray:none;display:inline" />
          </g>
        </g>
      </g>
      <g
         id="g5240"
         style="display:inline"
         transform="matrix(-0.311489,0,0,0.320973,129.701,108.325)">
        <rect
           height="8.8477125"
           id="rect5242"
           rx="3.7617927"
           ry="3.6865468"
           style="fill:url(#radialGradient5599);fill-opacity:1;fill-rule:nonzero;stroke:#2e3436;stroke-width:0.97030002;stroke-linecap:round;stroke-linejoin:miter;stroke-miterlimit:4;stroke-opacity:1;stroke-dasharray:none;stroke-dashoffset:0;marker:none;visibility:visible;display:inline;overflow:visible"
           width="60.006844"
           x="63.742355"
           y="11.472268" />
        <g
           id="g5246"
           transform="translate(-1.01647,0.574524)">
          <g
             id="g5248">
            <path
               d="m 65.537331,15.136255 c 0.04237,0.597954 0.227552,1.407788 0.525873,1.927739 0.280374,0.48867 0.820897,1.069766 1.31468,1.341035 0.424074,0.232973 1.577617,0.335259 1.577617,0.335259 l 52.937809,-0.08382 c 0,0 1.18608,-0.40518 1.57762,-0.754333 0.22154,-0.197561 0.39733,-0.570585 0.52587,-0.838146 0.20756,-0.432034 0.26767,-1.030807 0.3049,-1.508666 0.0457,-0.586032 0.0991,-1.474639 -0.12961,-2.016127 -0.26434,-0.625849 -0.7945,-1.318535 -1.31469,-1.755535 -0.26778,-0.224962 -1.05175,-0.502889 -1.05175,-0.502889 l -53.288376,-0.08382 c 0,0 -0.982002,0.110858 -1.272715,0.286491 -0.562763,0.339993 -1.138255,0.989073 -1.444292,1.557433 -0.306037,0.56836 -0.307716,1.463414 -0.262936,2.09537 l 0,9e-6 z"
               id="path5250"
               sodipodi:nodetypes="cssccsssssccszs"
               style="opacity:0.858657;fill:none;stroke:url(#linearGradient5601);stroke-width:0.5;stroke-linecap:butt;stroke-linejoin:miter;stroke-miterlimit:4;stroke-opacity:1;stroke-dasharray:none;display:inline" />
          </g>
        </g>
      </g>
      <text
         id="text5258"
         style="font-size:4.99241161px;font-style:normal;font-weight:normal;fill:#000000;fill-opacity:1;stroke:none;font-family:Bitstream Vera Sans"
         transform="scale(0.7727544,1.2940723)"
         x="117.3018"
         xml:space="preserve"
         y="74.113472"><tspan
           id="tspan5260"
           sodipodi:role="line"
           style="font-weight:bold;text-align:justify;text-anchor:start"
           x="117.3018"
           y="74.113472">Breathe Contact</tspan></text>
      <g
         id="g3241"
         style="display:inline"
         transform="matrix(-0.560559,0,0,0.320973,160.546,96.3253)">
        <rect
           height="8.8477125"
           id="rect3243"
           rx="3.7617927"
           ry="3.6865468"
           style="fill:url(#radialGradient5591);fill-opacity:1;fill-rule:nonzero;stroke:#2e3436;stroke-width:0.79249102;stroke-linecap:round;stroke-linejoin:miter;stroke-miterlimit:4;stroke-opacity:1;stroke-dasharray:none;stroke-dashoffset:0;marker:none;visibility:visible;display:inline;overflow:visible"
           width="60.006844"
           x="63.742355"
           y="11.472268" />
        <g
           id="g3245"
           transform="translate(-1.01647,0.574524)">
          <g
             id="g3247">
            <path
               d="m 65.537331,15.136255 c 0.04237,0.597954 0.227552,1.407788 0.525873,1.927739 0.280374,0.48867 0.820897,1.069766 1.31468,1.341035 0.424074,0.232973 1.577617,0.335259 1.577617,0.335259 l 52.937809,-0.08382 c 0,0 1.18608,-0.40518 1.57762,-0.754333 0.22154,-0.197561 0.39733,-0.570585 0.52587,-0.838146 0.20756,-0.432034 0.26767,-1.030807 0.3049,-1.508666 0.0457,-0.586032 0.0991,-1.474639 -0.12961,-2.016127 -0.26434,-0.625849 -0.7945,-1.318535 -1.31469,-1.755535 -0.26778,-0.224962 -1.05175,-0.502889 -1.05175,-0.502889 l -53.288376,-0.08382 c 0,0 -0.982002,0.110858 -1.272715,0.286491 -0.562763,0.339993 -1.138255,0.989073 -1.444292,1.557433 -0.306037,0.56836 -0.307716,1.463414 -0.262936,2.09537 l 0,9e-6 z"
               id="path3249"
               sodipodi:nodetypes="cssccsssssccszs"
               style="opacity:0.858657;fill:none;stroke:url(#linearGradient5593);stroke-width:0.5;stroke-linecap:butt;stroke-linejoin:miter;stroke-miterlimit:4;stroke-opacity:1;stroke-dasharray:none;display:inline" />
          </g>
        </g>
      </g>
      <path
         d="m 16.5,44.250002 c 0,0 45.17324,-31.26949 46.249998,-31.749999 4.664543,-2.081579 7.203234,-1.438612 9.75,0 C 73.799158,13.23387 119.25,45.000002 119.25,45.000002 l -102.75,-0.75 z"
         id="path5288"
         sodipodi:nodetypes="csscc"
         style="fill:url(#linearGradient5300);fill-opacity:1;fill-rule:evenodd;stroke:none" />
    </g>
  </g>
</svg>
